Mitr-SemiBold.ufo
<glyph name="quotedbl" format="1">
  <advance width="377"/>
  <unicode hex="0022"/>
  <note>
	quotedbl
  </note>
  <outline>
    <contour>
      <point x="120" y="483" type="line" smooth="yes"/>
      <point x="145" y="483"/>
      <point x="155" y="492"/>
      <point x="158" y="519" type="curve"/>
      <point x="169" y="668" type="line" smooth="yes"/>
      <point x="171" y="695"/>
      <point x="160" y="703"/>
      <point x="131" y="703" type="curve" smooth="yes"/>
      <point x="60" y="703" type="line" smooth="yes"/>
      <point x="31" y="703"/>
      <point x="22" y="695"/>
      <point x="23" y="668" type="curve" smooth="yes"/>
      <point x="32" y="519" type="line" smooth="yes"/>
      <point x="34" y="492"/>
      <point x="46" y="483"/>
      <point x="69" y="483" type="curve" smooth="yes"/>
    </contour>
    <contour>
      <point x="304" y="483" type="line" smooth="yes"/>
      <point x="329" y="483"/>
      <point x="339" y="492"/>
      <point x="342" y="519" type="curve"/>
      <point x="353" y="668" type="line" smooth="yes"/>
      <point x="355" y="695"/>
      <point x="344" y="703"/>
      <point x="315" y="703" type="curve" smooth="yes"/>
      <point x="244" y="703" type="line" smooth="yes"/>
      <point x="216" y="703"/>
      <point x="206" y="695"/>
      <point x="208" y="668" type="curve" smooth="yes"/>
      <point x="216" y="519" type="line" smooth="yes"/>
      <point x="218" y="492"/>
      <point x="230" y="483"/>
      <point x="253" y="483" type="curve" smooth="yes"/>
    </contour>
  </outline>
</glyph>
<glyph name="numbersign" format="1">
  <advance width="818"/>
  <unicode hex="0023"/>
  <note>
	numbersign
  </note>
  <outline>
    <contour>
      <point x="207" y="0" type="line" smooth="yes"/>
      <point x="226" y="0"/>
      <point x="232" y="4"/>
      <point x="238" y="20" type="curve" smooth="yes"/>
      <point x="283" y="136" type="line"/>
      <point x="390" y="136" type="line"/>
      <point x="351" y="36" type="line" smooth="yes"/>
      <point x="342" y="14"/>
      <point x="346" y="0"/>
      <point x="366" y="0" type="curve" smooth="yes"/>
      <point x="506" y="0" type="line" smooth="yes"/>
      <point x="525" y="0"/>
      <point x="531" y="4"/>
      <point x="537" y="20" type="curve" smooth="yes"/>
      <point x="582" y="136" type="line"/>
      <point x="712" y="136" type="line" smooth="yes"/>
      <point x="751" y="136"/>
      <point x="759" y="150"/>
      <point x="759" y="185" type="curve" smooth="yes"/>
      <point x="759" y="227" type="line" smooth="yes"/>
      <point x="759" y="268"/>
      <point x="749" y="277"/>
      <point x="700" y="277" type="curve" smooth="yes"/>
      <point x="636" y="277" type="line"/>
      <point x="676" y="379" type="line"/>
      <point x="748" y="379" type="line" smooth="yes"/>
      <point x="787" y="379"/>
      <point x="795" y="393"/>
      <point x="795" y="429" type="curve" smooth="yes"/>
      <point x="795" y="471" type="line" smooth="yes"/>
      <point x="795" y="507"/>
      <point x="787" y="521"/>
      <point x="748" y="521" type="curve" smooth="yes"/>
      <point x="729" y="521" type="line"/>
      <point x="776" y="643" type="line" smooth="yes"/>
      <point x="785" y="665"/>
      <point x="779" y="680"/>
      <point x="754" y="680" type="curve" smooth="yes"/>
      <point x="627" y="680" type="line" smooth="yes"/>
      <point x="603" y="680"/>
      <point x="596" y="673"/>
      <point x="589" y="656" type="curve" smooth="yes"/>
      <point x="537" y="521" type="line"/>
      <point x="430" y="521" type="line"/>
      <point x="477" y="643" type="line" smooth="yes"/>
      <point x="486" y="665"/>
      <point x="480" y="680"/>
      <point x="455" y="680" type="curve" smooth="yes"/>
      <point x="328" y="680" type="line" smooth="yes"/>
      <point x="304" y="680"/>
      <point x="297" y="673"/>
      <point x="290" y="656" type="curve" smooth="yes"/>
      <point x="238" y="521" type="line"/>
      <point x="146" y="521" type="line" smooth="yes"/>
      <point x="96" y="521"/>
      <point x="87" y="512"/>
      <point x="87" y="471" type="curve" smooth="yes"/>
      <point x="87" y="429" type="line" smooth="yes"/>
      <point x="87" y="389"/>
      <point x="96" y="379"/>
      <point x="146" y="379" type="curve" smooth="yes"/>
      <point x="184" y="379" type="line"/>
      <point x="144" y="277" type="line"/>
      <point x="70" y="277" type="line" smooth="yes"/>
      <point x="31" y="277"/>
      <point x="23" y="264"/>
      <point x="23" y="227" type="curve" smooth="yes"/>
      <point x="23" y="185" type="line" smooth="yes"/>
      <point x="23" y="150"/>
      <point x="30" y="136"/>
      <point x="69" y="136" type="curve" smooth="yes"/>
      <point x="91" y="136" type="line"/>
      <point x="52" y="36" type="line" smooth="yes"/>
      <point x="43" y="14"/>
      <point x="47" y="0"/>
      <point x="67" y="0" type="curve" smooth="yes"/>
    </contour>
    <contour>
      <point x="376" y="379" type="line"/>
      <point x="483" y="379" type="line"/>
      <point x="443" y="277" type="line"/>
      <point x="336" y="277" type="line"/>
    </contour>
  </outline>
</glyph>
<glyph name="percent" format="1">
  <advance width="779"/>
  <unicode hex="0025"/>
  <note>
	percent
  </note>
  <outline>
    <contour>
      <point x="234" y="0" type="line" smooth="yes"/>
      <point x="253" y="0"/>
      <point x="259" y="4"/>
      <point x="268" y="18" type="curve" smooth="yes"/>
      <point x="699" y="643" type="line" smooth="yes"/>
      <point x="711" y="660"/>
      <point x="705" y="680"/>
      <point x="684" y="680" type="curve" smooth="yes"/>
      <point x="541" y="680" type="line" smooth="yes"/>
      <point x="522" y="680"/>
      <point x="513" y="671"/>
      <point x="503" y="656" type="curve" smooth="yes"/>
      <point x="76" y="37" type="line" smooth="yes"/>
      <point x="64" y="19"/>
      <point x="70" y="0"/>
      <point x="91" y="0" type="curve" smooth="yes"/>
    </contour>
    <contour>
      <point x="270" y="376"/>
      <point x="341" y="441"/>
      <point x="341" y="535" type="curve" smooth="yes"/>
      <point x="341" y="629"/>
      <point x="270" y="695"/>
      <point x="182" y="695" type="curve" smooth="yes"/>
      <point x="94" y="695"/>
      <point x="23" y="629"/>
      <point x="23" y="535" type="curve" smooth="yes"/>
      <point x="23" y="441"/>
      <point x="94" y="376"/>
      <point x="182" y="376" type="curve" smooth="yes"/>
    </contour>
    <contour>
      <point x="149" y="476"/>
      <point x="123" y="500"/>
      <point x="123" y="535" type="curve" smooth="yes"/>
      <point x="123" y="570"/>
      <point x="149" y="595"/>
      <point x="182" y="595" type="curve" smooth="yes"/>
      <point x="215" y="595"/>
      <point x="241" y="570"/>
      <point x="241" y="535" type="curve" smooth="yes"/>
      <point x="241" y="500"/>
      <point x="215" y="476"/>
      <point x="182" y="476" type="curve" smooth="yes"/>
    </contour>
    <contour>
      <point x="684" y="-15"/>
      <point x="756" y="50"/>
      <point x="756" y="144" type="curve" smooth="yes"/>
      <point x="756" y="238"/>
      <point x="684" y="303"/>
      <point x="596" y="303" type="curve" smooth="yes"/>
      <point x="508" y="303"/>
      <point x="437" y="238"/>
      <point x="437" y="144" type="curve" smooth="yes"/>
      <point x="437" y="50"/>
      <point x="508" y="-15"/>
      <point x="596" y="-15" type="curve" smooth="yes"/>
    </contour>
    <contour>
      <point x="564" y="85"/>
      <point x="537" y="109"/>
      <point x="537" y="144" type="curve" smooth="yes"/>
      <point x="537" y="179"/>
      <point x="564" y="203"/>
      <point x="596" y="203" type="curve" smooth="yes"/>
      <point x="629" y="203"/>
      <point x="656" y="179"/>
      <point x="656" y="144" type="curve" smooth="yes"/>
      <point x="656" y="109"/>
      <point x="629" y="85"/>
      <point x="596" y="85" type="curve" smooth="yes"/>
    </contour>
  </outline>
</glyph>
<glyph name="ampersand" format="1">
  <advance width="721"/>
  <unicode hex="0026"/>
  <note>
	ampersand
  </note>
  <outline>
    <contour>
      <point x="518" y="-15"/>
      <point x="625" y="92"/>
      <point x="636" y="234" type="curve" smooth="yes"/>
      <point x="637" y="250"/>
      <point x="638" y="267"/>
      <point x="638" y="283" type="curve"/>
      <point x="659" y="283" type="line" smooth="yes"/>
      <point x="698" y="283"/>
      <point x="708" y="299"/>
      <point x="708" y="333" type="curve" smooth="yes"/>
      <point x="708" y="379" type="line" smooth="yes"/>
      <point x="708" y="413"/>
      <point x="698" y="429"/>
      <point x="659" y="429" type="curve" smooth="yes"/>
      <point x="329" y="429" type="line" smooth="yes"/>
      <point x="279" y="429"/>
      <point x="249" y="442"/>
      <point x="249" y="486" type="curve" smooth="yes"/>
      <point x="249" y="532"/>
      <point x="281" y="550"/>
      <point x="347" y="550" type="curve" smooth="yes"/>
      <point x="400" y="550"/>
      <point x="440" y="537"/>
      <point x="467" y="520" type="curve" smooth="yes"/>
      <point x="482" y="510"/>
      <point x="489" y="510"/>
      <point x="498" y="525" type="curve"/>
      <point x="548" y="601" type="line" smooth="yes"/>
      <point x="555" y="612"/>
      <point x="554" y="625"/>
      <point x="544" y="633" type="curve" smooth="yes"/>
      <point x="494" y="674"/>
      <point x="425" y="695"/>
      <point x="330" y="695" type="curve" smooth="yes"/>
      <point x="155" y="695"/>
      <point x="48" y="617"/>
      <point x="48" y="492" type="curve" smooth="yes"/>
      <point x="48" y="446"/>
      <point x="69" y="392"/>
      <point x="111" y="364" type="curve"/>
      <point x="54" y="332"/>
      <point x="23" y="271"/>
      <point x="23" y="204" type="curve" smooth="yes"/>
      <point x="23" y="56"/>
      <point x="151" y="-15"/>
      <point x="329" y="-15" type="curve" smooth="yes"/>
    </contour>
    <contour>
      <point x="261" y="128"/>
      <point x="224" y="156"/>
      <point x="224" y="211" type="curve" smooth="yes"/>
      <point x="224" y="263"/>
      <point x="256" y="283"/>
      <point x="304" y="283" type="curve" smooth="yes"/>
      <point x="451" y="283" type="line"/>
      <point x="451" y="187"/>
      <point x="432" y="128"/>
      <point x="334" y="128" type="curve" smooth="yes"/>
    </contour>
  </outline>
</glyph>
<glyph name="quotesingle" format="1">
  <advance width="212"/>
  <unicode hex="0027"/>
  <note>
	quotesingle
  </note>
  <outline>
    <contour>
      <point x="140" y="483" type="line" smooth="yes"/>
      <point x="165" y="483"/>
      <point x="175" y="492"/>
      <point x="178" y="519" type="curve"/>
      <point x="189" y="668" type="line" smooth="yes"/>
      <point x="191" y="695"/>
      <point x="180" y="703"/>
      <point x="151" y="703" type="curve" smooth="yes"/>
      <point x="60" y="703" type="line" smooth="yes"/>
      <point x="31" y="703"/>
      <point x="22" y="695"/>
      <point x="23" y="668" type="curve" smooth="yes"/>
      <point x="32" y="519" type="line" smooth="yes"/>
      <point x="34" y="492"/>
      <point x="46" y="483"/>
      <point x="69" y="483" type="curve" smooth="yes"/>
    </contour>
  </outline>
</glyph>
<glyph name="parenleft" format="1">
  <advance width="372"/>
  <unicode hex="0028"/>
  <note>
	parenleft
  </note>
  <outline>
    <contour>
      <point x="321" y="-145"/>
      <point x="361" y="-139"/>
      <point x="361" y="-74" type="curve" smooth="yes"/>
      <point x="361" y="-24"/>
      <point x="359" y="-15"/>
      <point x="326" y="12" type="curve" smooth="yes"/>
      <point x="250" y="75"/>
      <point x="224" y="174"/>
      <point x="224" y="316" type="curve" smooth="yes"/>
      <point x="224" y="457"/>
      <point x="250" y="556"/>
      <point x="326" y="619" type="curve" smooth="yes"/>
      <point x="358" y="647"/>
      <point x="361" y="655"/>
      <point x="361" y="705" type="curve" smooth="yes"/>
      <point x="361" y="771"/>
      <point x="321" y="776"/>
      <point x="252" y="751" type="curve" smooth="yes"/>
      <point x="113" y="700"/>
      <point x="23" y="519"/>
      <point x="23" y="316" type="curve" smooth="yes"/>
      <point x="23" y="112"/>
      <point x="113" y="-68"/>
      <point x="252" y="-120" type="curve" smooth="yes"/>
    </contour>
  </outline>
</glyph>
<glyph name="parenright" format="1">
  <advance width="372"/>
  <unicode hex="0029"/>
  <note>
	parenright
  </note>
  <outline>
    <contour>
      <point x="259" y="-68"/>
      <point x="349" y="112"/>
      <point x="349" y="316" type="curve" smooth="yes"/>
      <point x="349" y="519"/>
      <point x="259" y="700"/>
      <point x="120" y="751" type="curve" smooth="yes"/>
      <point x="51" y="776"/>
      <point x="11" y="771"/>
      <point x="11" y="705" type="curve" smooth="yes"/>
      <point x="11" y="655"/>
      <point x="13" y="647"/>
      <point x="46" y="619" type="curve" smooth="yes"/>
      <point x="122" y="556"/>
      <point x="148" y="457"/>
      <point x="148" y="316" type="curve" smooth="yes"/>
      <point x="148" y="174"/>
      <point x="122" y="75"/>
      <point x="46" y="12" type="curve" smooth="yes"/>
      <point x="13" y="-15"/>
      <point x="11" y="-24"/>
      <point x="11" y="-74" type="curve" smooth="yes"/>
      <point x="11" y="-139"/>
      <point x="51" y="-145"/>
      <point x="120" y="-120" type="curve" smooth="yes"/>
    </contour>
  </outline>
</glyph>
<glyph name="asterisk" format="1">
  <advance width="439"/>
  <unicode hex="002A"/>
  <note>
	asterisk
  </note>
  <outline>
    <contour>
      <point x="378" y="424" type="line" smooth="yes"/>
      <point x="388" y="432"/>
      <point x="390" y="443"/>
      <point x="380" y="453" type="curve" smooth="yes"/>
      <point x="319" y="517" type="line"/>
      <point x="402" y="552" type="line" smooth="yes"/>
      <point x="414" y="557"/>
      <point x="419" y="565"/>
      <point x="413" y="578" type="curve" smooth="yes"/>
      <point x="382" y="642" type="line"/>
      <point x="378" y="652"/>
      <point x="370" y="655"/>
      <point x="357" y="649" type="curve" smooth="yes"/>
      <point x="282" y="616" type="line"/>
      <point x="282" y="693" type="line" smooth="yes"/>
      <point x="282" y="708"/>
      <point x="274" y="718"/>
      <point x="258" y="718" type="curve" smooth="yes"/>
      <point x="181" y="718" type="line" smooth="yes"/>
      <point x="165" y="718"/>
      <point x="156" y="708"/>
      <point x="156" y="693" type="curve" smooth="yes"/>
      <point x="156" y="617" type="line"/>
      <point x="81" y="651" type="line" smooth="yes"/>
      <point x="69" y="656"/>
      <point x="61" y="654"/>
      <point x="56" y="643" type="curve" smooth="yes"/>
      <point x="25" y="579" type="line" smooth="yes"/>
      <point x="19" y="566"/>
      <point x="24" y="559"/>
      <point x="36" y="553" type="curve"/>
      <point x="119" y="518" type="line"/>
      <point x="58" y="454" type="line" smooth="yes"/>
      <point x="48" y="444"/>
      <point x="50" y="434"/>
      <point x="61" y="425" type="curve" smooth="yes"/>
      <point x="116" y="377" type="line" smooth="yes"/>
      <point x="125" y="369"/>
      <point x="134" y="371"/>
      <point x="143" y="380" type="curve" smooth="yes"/>
      <point x="219" y="461" type="line"/>
      <point x="294" y="380" type="line"/>
      <point x="304" y="370"/>
      <point x="313" y="368"/>
      <point x="322" y="376" type="curve" smooth="yes"/>
    </contour>
  </outline>
</glyph>
<glyph name="plus" format="1">
  <advance width="468"/>
  <unicode hex="002B"/>
  <note>
	plus
  </note>
  <outline>
    <contour>
      <point x="264" y="119" type="line" smooth="yes"/>
      <point x="300" y="119"/>
      <point x="312" y="129"/>
      <point x="312" y="165" type="curve" smooth="yes"/>
      <point x="312" y="230" type="line"/>
      <point x="396" y="230" type="line" smooth="yes"/>
      <point x="434" y="230"/>
      <point x="445" y="242"/>
      <point x="445" y="278" type="curve" smooth="yes"/>
      <point x="445" y="328" type="line" smooth="yes"/>
      <point x="445" y="364"/>
      <point x="434" y="376"/>
      <point x="396" y="376" type="curve" smooth="yes"/>
      <point x="312" y="376" type="line"/>
      <point x="312" y="442" type="line" smooth="yes"/>
      <point x="312" y="478"/>
      <point x="300" y="488"/>
      <point x="264" y="488" type="curve" smooth="yes"/>
      <point x="202" y="488" type="line" smooth="yes"/>
      <point x="167" y="488"/>
      <point x="154" y="478"/>
      <point x="154" y="442" type="curve" smooth="yes"/>
      <point x="154" y="376" type="line"/>
      <point x="72" y="376" type="line" smooth="yes"/>
      <point x="34" y="376"/>
      <point x="23" y="364"/>
      <point x="23" y="328" type="curve" smooth="yes"/>
      <point x="23" y="278" type="line" smooth="yes"/>
      <point x="23" y="242"/>
      <point x="34" y="230"/>
      <point x="72" y="230" type="curve" smooth="yes"/>
      <point x="154" y="230" type="line"/>
      <point x="154" y="165" type="line" smooth="yes"/>
      <point x="154" y="129"/>
      <point x="167" y="119"/>
      <point x="202" y="119" type="curve" smooth="yes"/>
    </contour>
  </outline>
</glyph>
<glyph name="hyphen" format="1">
  <advance width="468"/>
  <unicode hex="002D"/>
  <note>
	hyphen
  </note>
  <outline>
    <contour>
      <point x="399" y="230" type="line" smooth="yes"/>
      <point x="436" y="230"/>
      <point x="445" y="246"/>
      <point x="445" y="278" type="curve" smooth="yes"/>
      <point x="445" y="328" type="line" smooth="yes"/>
      <point x="445" y="360"/>
      <point x="436" y="376"/>
      <point x="399" y="376" type="curve" smooth="yes"/>
      <point x="69" y="376" type="line" smooth="yes"/>
      <point x="32" y="376"/>
      <point x="23" y="360"/>
      <point x="23" y="328" type="curve" smooth="yes"/>
      <point x="23" y="278" type="line" smooth="yes"/>
      <point x="23" y="246"/>
      <point x="32" y="230"/>
      <point x="69" y="230" type="curve" smooth="yes"/>
    </contour>
  </outline>
</glyph>
<glyph name="period" format="1">
  <advance width="176"/>
  <unicode hex="002E"/>
  <note>
	period
  </note>
  <outline>
    <contour>
      <point x="100" y="0" type="line" smooth="yes"/>
      <point x="132" y="0"/>
      <point x="153" y="26"/>
      <point x="153" y="56" type="curve" smooth="yes"/>
      <point x="153" y="78" type="line" smooth="yes"/>
      <point x="153" y="110"/>
      <point x="131" y="135"/>
      <point x="100" y="135" type="curve" smooth="yes"/>
      <point x="76" y="135" type="line" smooth="yes"/>
      <point x="44" y="135"/>
      <point x="23" y="110"/>
      <point x="23" y="78" type="curve" smooth="yes"/>
      <point x="23" y="56" type="line" smooth="yes"/>
      <point x="23" y="26"/>
      <point x="44" y="0"/>
      <point x="76" y="0" type="curve" smooth="yes"/>
    </contour>
  </outline>
</glyph>
<glyph name="semicolon" format="1">
  <advance width="267"/>
  <unicode hex="003B"/>
  <note>
	semicolon
  </note>
  <outline>
    <contour>
      <point x="125" y="-119" type="line" smooth="yes"/>
      <point x="148" y="-119"/>
      <point x="158" y="-111"/>
      <point x="164" y="-96" type="curve" smooth="yes"/>
      <point x="236" y="73" type="line" smooth="yes"/>
      <point x="250" y="109"/>
      <point x="244" y="123"/>
      <point x="206" y="123" type="curve" smooth="yes"/>
      <point x="126" y="123" type="line" smooth="yes"/>
      <point x="95" y="123"/>
      <point x="85" y="117"/>
      <point x="76" y="87" type="curve" smooth="yes"/>
      <point x="25" y="-87" type="line" smooth="yes"/>
      <point x="20" y="-105"/>
      <point x="24" y="-119"/>
      <point x="49" y="-119" type="curve" smooth="yes"/>
    </contour>
    <contour>
      <point x="176" y="327" type="line" smooth="yes"/>
      <point x="216" y="327"/>
      <point x="242" y="360"/>
      <point x="242" y="398" type="curve" smooth="yes"/>
      <point x="242" y="423" type="line" smooth="yes"/>
      <point x="242" y="462"/>
      <point x="216" y="493"/>
      <point x="176" y="493" type="curve" smooth="yes"/>
      <point x="146" y="493" type="line" smooth="yes"/>
      <point x="106" y="493"/>
      <point x="80" y="462"/>
      <point x="80" y="423" type="curve" smooth="yes"/>
      <point x="80" y="398" type="line" smooth="yes"/>
      <point x="80" y="360"/>
      <point x="106" y="327"/>
      <point x="146" y="327" type="curve" smooth="yes"/>
    </contour>
  </outline>
</glyph>
<glyph name="less" format="1">
  <advance width="526"/>
  <unicode hex="003C"/>
  <note>
	less
  </note>
  <outline>
    <contour>
      <point x="493" y="6"/>
      <point x="503" y="11"/>
      <point x="503" y="24" type="curve" smooth="yes"/>
      <point x="503" y="167" type="line" smooth="yes"/>
      <point x="503" y="183"/>
      <point x="499" y="187"/>
      <point x="486" y="192" type="curve" smooth="yes"/>
      <point x="267" y="274" type="line"/>
      <point x="486" y="356" type="line" smooth="yes"/>
      <point x="499" y="361"/>
      <point x="503" y="365"/>
      <point x="503" y="381" type="curve" smooth="yes"/>
      <point x="503" y="521" type="line" smooth="yes"/>
      <point x="503" y="534"/>
      <point x="493" y="539"/>
      <point x="480" y="533" type="curve" smooth="yes"/>
      <point x="40" y="339" type="line" smooth="yes"/>
      <point x="27" y="333"/>
      <point x="23" y="325"/>
      <point x="23" y="310" type="curve" smooth="yes"/>
      <point x="23" y="235" type="line" smooth="yes"/>
      <point x="23" y="220"/>
      <point x="27" y="212"/>
      <point x="40" y="206" type="curve" smooth="yes"/>
      <point x="480" y="12" type="line" smooth="yes"/>
    </contour>
  </outline>
</glyph>
<glyph name="question" format="1">
  <advance width="559"/>
  <unicode hex="003F"/>
  <note>
	question
  </note>
  <outline>
    <contour>
      <point x="290" y="166" type="line" smooth="yes"/>
      <point x="330" y="166"/>
      <point x="343" y="183"/>
      <point x="343" y="216" type="curve" smooth="yes"/>
      <point x="343" y="224" type="line" smooth="yes"/>
      <point x="343" y="264"/>
      <point x="363" y="288"/>
      <point x="421" y="322" type="curve" smooth="yes"/>
      <point x="495" y="365"/>
      <point x="536" y="410"/>
      <point x="536" y="494" type="curve" smooth="yes"/>
      <point x="536" y="624"/>
      <point x="427" y="695"/>
      <point x="274" y="695" type="curve" smooth="yes"/>
      <point x="168" y="695"/>
      <point x="94" y="669"/>
      <point x="34" y="627" type="curve" smooth="yes"/>
      <point x="19" y="616"/>
      <point x="20" y="605"/>
      <point x="29" y="590" type="curve" smooth="yes"/>
      <point x="73" y="514" type="line" smooth="yes"/>
      <point x="82" y="498"/>
      <point x="93" y="497"/>
      <point x="110" y="509" type="curve" smooth="yes"/>
      <point x="144" y="532"/>
      <point x="193" y="551"/>
      <point x="246" y="551" type="curve" smooth="yes"/>
      <point x="306" y="551"/>
      <point x="334" y="529"/>
      <point x="334" y="493" type="curve" smooth="yes"/>
      <point x="334" y="457"/>
      <point x="319" y="446"/>
      <point x="264" y="411" type="curve" smooth="yes"/>
      <point x="182" y="357"/>
      <point x="141" y="311"/>
      <point x="141" y="226" type="curve" smooth="yes"/>
      <point x="141" y="216" type="line" smooth="yes"/>
      <point x="141" y="183"/>
      <point x="154" y="166"/>
      <point x="193" y="166" type="curve" smooth="yes"/>
    </contour>
    <contour>
      <point x="278" y="0" type="line" smooth="yes"/>
      <point x="326" y="0"/>
      <point x="349" y="19"/>
      <point x="349" y="50" type="curve" smooth="yes"/>
      <point x="349" y="73" type="line" smooth="yes"/>
      <point x="349" y="105"/>
      <point x="326" y="124"/>
      <point x="278" y="124" type="curve" smooth="yes"/>
      <point x="205" y="124" type="line" smooth="yes"/>
      <point x="158" y="124"/>
      <point x="135" y="105"/>
      <point x="135" y="73" type="curve" smooth="yes"/>
      <point x="135" y="50" type="line" smooth="yes"/>
      <point x="135" y="19"/>
      <point x="158" y="0"/>
      <point x="205" y="0" type="curve" smooth="yes"/>
    </contour>
  </outline>
</glyph>
<glyph name="at" format="1">
  <advance width="950"/>
  <unicode hex="0040"/>
  <note>
	at
  </note>
  <outline>
    <contour>
      <point x="537" y="-89"/>
      <point x="607" y="-70"/>
      <point x="655" y="-37" type="curve" smooth="yes"/>
      <point x="665" y="-30"/>
      <point x="666" y="-20"/>
      <point x="663" y="-12" type="curve" smooth="yes"/>
      <point x="631" y="74" type="line" smooth="yes"/>
      <point x="628" y="82"/>
      <point x="620" y="88"/>
      <point x="610" y="81" type="curve" smooth="yes"/>
      <point x="567" y="50"/>
      <point x="515" y="37"/>
      <point x="454" y="37" type="curve" smooth="yes"/>
      <point x="290" y="37"/>
      <point x="175" y="128"/>
      <point x="175" y="299" type="curve" smooth="yes"/>
      <point x="175" y="503"/>
      <point x="311" y="592"/>
      <point x="498" y="592" type="curve" smooth="yes"/>
      <point x="647" y="592"/>
      <point x="775" y="521"/>
      <point x="775" y="350" type="curve" smooth="yes"/>
      <point x="775" y="242"/>
      <point x="759" y="203"/>
      <point x="726" y="203" type="curve" smooth="yes"/>
      <point x="705" y="203"/>
      <point x="696" y="213"/>
      <point x="696" y="240" type="curve" smooth="yes"/>
      <point x="696" y="459" type="line"/>
      <point x="650" y="509"/>
      <point x="573" y="540"/>
      <point x="498" y="540" type="curve" smooth="yes"/>
      <point x="338" y="540"/>
      <point x="228" y="461"/>
      <point x="228" y="297" type="curve" smooth="yes"/>
      <point x="228" y="167"/>
      <point x="316" y="94"/>
      <point x="449" y="93" type="curve" smooth="yes"/>
      <point x="520" y="92"/>
      <point x="580" y="120"/>
      <point x="615" y="169" type="curve"/>
      <point x="627" y="127"/>
      <point x="666" y="93"/>
      <point x="723" y="93" type="curve" smooth="yes"/>
      <point x="841" y="93"/>
      <point x="927" y="173"/>
      <point x="927" y="349" type="curve" smooth="yes"/>
      <point x="927" y="574"/>
      <point x="765" y="714"/>
      <point x="500" y="714" type="curve" smooth="yes"/>
      <point x="216" y="714"/>
      <point x="23" y="577"/>
      <point x="23" y="299" type="curve" smooth="yes"/>
      <point x="23" y="61"/>
      <point x="192" y="-89"/>
      <point x="455" y="-89" type="curve" smooth="yes"/>
    </contour>
    <contour>
      <point x="403" y="218"/>
      <point x="373" y="245"/>
      <point x="373" y="301" type="curve" smooth="yes"/>
      <point x="373" y="369"/>
      <point x="419" y="406"/>
      <point x="486" y="406" type="curve" smooth="yes"/>
      <point x="514" y="406"/>
      <point x="541" y="399"/>
      <point x="558" y="390" type="curve"/>
      <point x="558" y="292" type="line" smooth="yes"/>
      <point x="558" y="243"/>
      <point x="512" y="218"/>
      <point x="462" y="218" type="curve" smooth="yes"/>
    </contour>
  </outline>
</glyph>
<glyph name="B" format="1">
  <advance width="663"/>
  <unicode hex="0042"/>
  <note>
	B
  </note>
  <outline>
    <contour>
      <point x="390" y="0" type="line" smooth="yes"/>
      <point x="561" y="0"/>
      <point x="640" y="92"/>
      <point x="640" y="207" type="curve" smooth="yes"/>
      <point x="640" y="283"/>
      <point x="605" y="331"/>
      <point x="541" y="352" type="curve"/>
      <point x="589" y="372"/>
      <point x="622" y="424"/>
      <point x="622" y="485" type="curve" smooth="yes"/>
      <point x="622" y="603"/>
      <point x="554" y="680"/>
      <point x="393" y="680" type="curve" smooth="yes"/>
      <point x="95" y="680" type="line" smooth="yes"/>
      <point x="56" y="680"/>
      <point x="43" y="663"/>
      <point x="43" y="629" type="curve" smooth="yes"/>
      <point x="43" y="50" type="line" smooth="yes"/>
      <point x="43" y="16"/>
      <point x="56" y="0"/>
      <point x="95" y="0" type="curve" smooth="yes"/>
    </contour>
    <contour>
      <point x="245" y="280" type="line"/>
      <point x="368" y="280" type="line" smooth="yes"/>
      <point x="411" y="280"/>
      <point x="439" y="258"/>
      <point x="439" y="212" type="curve" smooth="yes"/>
      <point x="439" y="173"/>
      <point x="416" y="145"/>
      <point x="372" y="145" type="curve" smooth="yes"/>
      <point x="245" y="145" type="line"/>
    </contour>
    <contour>
      <point x="245" y="535" type="line"/>
      <point x="355" y="535" type="line" smooth="yes"/>
      <point x="398" y="535"/>
      <point x="420" y="519"/>
      <point x="420" y="475" type="curve" smooth="yes"/>
      <point x="420" y="434"/>
      <point x="396" y="414"/>
      <point x="355" y="414" type="curve" smooth="yes"/>
      <point x="245" y="414" type="line"/>
    </contour>
  </outline>
</glyph>
<glyph name="F" format="1">
  <advance width="561"/>
  <unicode hex="0046"/>
  <note>
	F
  </note>
  <outline>
    <contour>
      <point x="192" y="0" type="line" smooth="yes"/>
      <point x="232" y="0"/>
      <point x="245" y="16"/>
      <point x="245" y="50" type="curve" smooth="yes"/>
      <point x="245" y="267" type="line"/>
      <point x="420" y="267" type="line" smooth="yes"/>
      <point x="459" y="267"/>
      <point x="469" y="283"/>
      <point x="469" y="317" type="curve" smooth="yes"/>
      <point x="469" y="363" type="line" smooth="yes"/>
      <point x="469" y="397"/>
      <point x="459" y="413"/>
      <point x="420" y="413" type="curve" smooth="yes"/>
      <point x="245" y="413" type="line"/>
      <point x="245" y="534" type="line"/>
      <point x="510" y="534" type="line" smooth="yes"/>
      <point x="549" y="534"/>
      <point x="558" y="550"/>
      <point x="558" y="584" type="curve" smooth="yes"/>
      <point x="558" y="630" type="line" smooth="yes"/>
      <point x="558" y="664"/>
      <point x="549" y="680"/>
      <point x="510" y="680" type="curve" smooth="yes"/>
      <point x="95" y="680" type="line" smooth="yes"/>
      <point x="56" y="680"/>
      <point x="43" y="663"/>
      <point x="43" y="629" type="curve" smooth="yes"/>
      <point x="43" y="50" type="line" smooth="yes"/>
      <point x="43" y="16"/>
      <point x="56" y="0"/>
      <point x="95" y="0" type="curve" smooth="yes"/>
    </contour>
  </outline>
</glyph>
<glyph name="G" format="1">
  <advance width="705"/>
  <unicode hex="0047"/>
  <note>
	G
  </note>
  <outline>
    <contour>
      <point x="515" y="-15"/>
      <point x="601" y="9"/>
      <point x="659" y="50" type="curve" smooth="yes"/>
      <point x="678" y="64"/>
      <point x="682" y="75"/>
      <point x="682" y="100" type="curve" smooth="yes"/>
      <point x="682" y="344" type="line" smooth="yes"/>
      <point x="682" y="385"/>
      <point x="669" y="407"/>
      <point x="622" y="407" type="curve" smooth="yes"/>
      <point x="409" y="407" type="line" smooth="yes"/>
      <point x="370" y="407"/>
      <point x="360" y="393"/>
      <point x="360" y="359" type="curve" smooth="yes"/>
      <point x="360" y="314" type="line" smooth="yes"/>
      <point x="360" y="280"/>
      <point x="370" y="265"/>
      <point x="409" y="265" type="curve" smooth="yes"/>
      <point x="495" y="265" type="line"/>
      <point x="495" y="143" type="line"/>
      <point x="475" y="135"/>
      <point x="439" y="129"/>
      <point x="409" y="129" type="curve" smooth="yes"/>
      <point x="293" y="129"/>
      <point x="224" y="194"/>
      <point x="224" y="340" type="curve" smooth="yes"/>
      <point x="224" y="484"/>
      <point x="304" y="551"/>
      <point x="424" y="551" type="curve" smooth="yes"/>
      <point x="488" y="551"/>
      <point x="533" y="535"/>
      <point x="566" y="518" type="curve" smooth="yes"/>
      <point x="584" y="509"/>
      <point x="592" y="506"/>
      <point x="602" y="524" type="curve" smooth="yes"/>
      <point x="646" y="599" type="line" smooth="yes"/>
      <point x="655" y="615"/>
      <point x="657" y="626"/>
      <point x="642" y="636" type="curve" smooth="yes"/>
      <point x="587" y="673"/>
      <point x="501" y="695"/>
      <point x="397" y="695" type="curve" smooth="yes"/>
      <point x="165" y="695"/>
      <point x="23" y="575"/>
      <point x="23" y="340" type="curve" smooth="yes"/>
      <point x="23" y="104"/>
      <point x="164" y="-15"/>
      <point x="397" y="-15" type="curve" smooth="yes"/>
    </contour>
  </outline>
</glyph>
<glyph name="H" format="1">
  <advance width="719"/>
  <unicode hex="0048"/>
  <note>
	H
  </note>
  <outline>
    <contour>
      <point x="192" y="0" type="line" smooth="yes"/>
      <point x="232" y="0"/>
      <point x="245" y="16"/>
      <point x="245" y="50" type="curve" smooth="yes"/>
      <point x="245" y="268" type="line"/>
      <point x="473" y="268" type="line"/>
      <point x="473" y="50" type="line" smooth="yes"/>
      <point x="473" y="16"/>
      <point x="487" y="0"/>
      <point x="526" y="0" type="curve" smooth="yes"/>
      <point x="623" y="0" type="line" smooth="yes"/>
      <point x="663" y="0"/>
      <point x="676" y="16"/>
      <point x="676" y="50" type="curve" smooth="yes"/>
      <point x="676" y="629" type="line" smooth="yes"/>
      <point x="676" y="663"/>
      <point x="663" y="680"/>
      <point x="623" y="680" type="curve" smooth="yes"/>
      <point x="526" y="680" type="line" smooth="yes"/>
      <point x="487" y="680"/>
      <point x="473" y="663"/>
      <point x="473" y="629" type="curve" smooth="yes"/>
      <point x="473" y="413" type="line"/>
      <point x="245" y="413" type="line"/>
      <point x="245" y="629" type="line" smooth="yes"/>
      <point x="245" y="663"/>
      <point x="232" y="680"/>
      <point x="192" y="680" type="curve" smooth="yes"/>
      <point x="95" y="680" type="line" smooth="yes"/>
      <point x="56" y="680"/>
      <point x="43" y="663"/>
      <point x="43" y="629" type="curve" smooth="yes"/>
      <point x="43" y="50" type="line" smooth="yes"/>
      <point x="43" y="16"/>
      <point x="56" y="0"/>
      <point x="95" y="0" type="curve" smooth="yes"/>
    </contour>
  </outline>
</glyph>
<glyph name="J" format="1">
  <advance width="512"/>
  <unicode hex="004A"/>
  <note>
	J
  </note>
  <outline>
    <contour>
      <point x="394" y="-15"/>
      <point x="474" y="75"/>
      <point x="474" y="207" type="curve" smooth="yes"/>
      <point x="474" y="629" type="line" smooth="yes"/>
      <point x="474" y="663"/>
      <point x="461" y="680"/>
      <point x="421" y="680" type="curve" smooth="yes"/>
      <point x="324" y="680" type="line" smooth="yes"/>
      <point x="285" y="680"/>
      <point x="271" y="663"/>
      <point x="271" y="629" type="curve" smooth="yes"/>
      <point x="271" y="208" type="line" smooth="yes"/>
      <point x="271" y="157"/>
      <point x="248" y="128"/>
      <point x="192" y="128" type="curve" smooth="yes"/>
      <point x="150" y="128"/>
      <point x="115" y="145"/>
      <point x="89" y="164" type="curve" smooth="yes"/>
      <point x="75" y="174"/>
      <point x="63" y="176"/>
      <point x="53" y="158" type="curve" smooth="yes"/>
      <point x="10" y="84" type="line" smooth="yes"/>
      <point x="1" y="68"/>
      <point x="-1" y="55"/>
      <point x="14" y="45" type="curve" smooth="yes"/>
      <point x="66" y="9"/>
      <point x="137" y="-15"/>
      <point x="231" y="-15" type="curve" smooth="yes"/>
    </contour>
  </outline>
</glyph>
<glyph name="L" format="1">
  <advance width="554"/>
  <unicode hex="004C"/>
  <note>
	L
  </note>
  <outline>
    <contour>
      <point x="503" y="0" type="line" smooth="yes"/>
      <point x="542" y="0"/>
      <point x="551" y="16"/>
      <point x="551" y="49" type="curve" smooth="yes"/>
      <point x="551" y="95" type="line" smooth="yes"/>
      <point x="551" y="129"/>
      <point x="542" y="145"/>
      <point x="503" y="145" type="curve" smooth="yes"/>
      <point x="245" y="145" type="line"/>
      <point x="245" y="629" type="line" smooth="yes"/>
      <point x="245" y="663"/>
      <point x="232" y="680"/>
      <point x="192" y="680" type="curve" smooth="yes"/>
      <point x="95" y="680" type="line" smooth="yes"/>
      <point x="56" y="680"/>
      <point x="43" y="663"/>
      <point x="43" y="629" type="curve" smooth="yes"/>
      <point x="43" y="50" type="line" smooth="yes"/>
      <point x="43" y="16"/>
      <point x="56" y="0"/>
      <point x="95" y="0" type="curve" smooth="yes"/>
    </contour>
  </outline>
</glyph>
<glyph name="N" format="1">
  <advance width="700"/>
  <unicode hex="004E"/>
  <note>
	N
  </note>
  <outline>
    <contour>
      <point x="192" y="0" type="line" smooth="yes"/>
      <point x="232" y="0"/>
      <point x="245" y="16"/>
      <point x="245" y="49" type="curve" smooth="yes"/>
      <point x="245" y="356" type="line"/>
      <point x="476" y="24" type="line" smooth="yes"/>
      <point x="490" y="4"/>
      <point x="501" y="0"/>
      <point x="525" y="0" type="curve" smooth="yes"/>
      <point x="604" y="0" type="line" smooth="yes"/>
      <point x="644" y="0"/>
      <point x="657" y="16"/>
      <point x="657" y="49" type="curve" smooth="yes"/>
      <point x="657" y="629" type="line" smooth="yes"/>
      <point x="657" y="663"/>
      <point x="644" y="680"/>
      <point x="604" y="680" type="curve" smooth="yes"/>
      <point x="507" y="680" type="line" smooth="yes"/>
      <point x="468" y="680"/>
      <point x="455" y="663"/>
      <point x="455" y="629" type="curve" smooth="yes"/>
      <point x="455" y="323" type="line"/>
      <point x="224" y="655" type="line" smooth="yes"/>
      <point x="210" y="675"/>
      <point x="199" y="680"/>
      <point x="175" y="680" type="curve" smooth="yes"/>
      <point x="96" y="680" type="line" smooth="yes"/>
      <point x="56" y="680"/>
      <point x="43" y="664"/>
      <point x="43" y="630" type="curve" smooth="yes"/>
      <point x="43" y="50" type="line" smooth="yes"/>
      <point x="43" y="16"/>
      <point x="56" y="0"/>
      <point x="95" y="0" type="curve" smooth="yes"/>
    </contour>
  </outline>
</glyph>
<glyph name="Q" format="1">
  <advance width="756"/>
  <unicode hex="0051"/>
  <note>
	Q
  </note>
  <outline>
    <contour>
      <point x="592" y="-181"/>
      <point x="636" y="-163"/>
      <point x="673" y="-135" type="curve" smooth="yes"/>
      <point x="686" y="-125"/>
      <point x="687" y="-120"/>
      <point x="680" y="-108" type="curve"/>
      <point x="634" y="-36" type="line" smooth="yes"/>
      <point x="628" y="-27"/>
      <point x="622" y="-25"/>
      <point x="610" y="-33" type="curve" smooth="yes"/>
      <point x="590" y="-46"/>
      <point x="564" y="-56"/>
      <point x="526" y="-56" type="curve" smooth="yes"/>
      <point x="487" y="-56"/>
      <point x="449" y="-42"/>
      <point x="440" y="-7" type="curve"/>
      <point x="634" y="17"/>
      <point x="733" y="138"/>
      <point x="733" y="340" type="curve" smooth="yes"/>
      <point x="733" y="564"/>
      <point x="612" y="695"/>
      <point x="378" y="695" type="curve" smooth="yes"/>
      <point x="144" y="695"/>
      <point x="23" y="564"/>
      <point x="23" y="340" type="curve" smooth="yes"/>
      <point x="23" y="143"/>
      <point x="115" y="18"/>
      <point x="296" y="-9" type="curve"/>
      <point x="311" y="-109"/>
      <point x="394" y="-181"/>
      <point x="524" y="-181" type="curve" smooth="yes"/>
    </contour>
    <contour>
      <point x="272" y="128"/>
      <point x="224" y="201"/>
      <point x="224" y="340" type="curve" smooth="yes"/>
      <point x="224" y="479"/>
      <point x="272" y="551"/>
      <point x="378" y="551" type="curve" smooth="yes"/>
      <point x="484" y="551"/>
      <point x="532" y="479"/>
      <point x="532" y="340" type="curve" smooth="yes"/>
      <point x="532" y="201"/>
      <point x="484" y="128"/>
      <point x="378" y="128" type="curve" smooth="yes"/>
    </contour>
  </outline>
</glyph>
<glyph name="T" format="1">
  <advance width="614"/>
  <unicode hex="0054"/>
  <note>
	T
  </note>
  <outline>
    <contour>
      <point x="355" y="0" type="line" smooth="yes"/>
      <point x="395" y="0"/>
      <point x="408" y="16"/>
      <point x="408" y="50" type="curve" smooth="yes"/>
      <point x="408" y="534" type="line"/>
      <point x="562" y="534" type="line" smooth="yes"/>
      <point x="601" y="534"/>
      <point x="611" y="550"/>
      <point x="611" y="583" type="curve" smooth="yes"/>
      <point x="611" y="630" type="line" smooth="yes"/>
      <point x="611" y="663"/>
      <point x="601" y="680"/>
      <point x="562" y="680" type="curve" smooth="yes"/>
      <point x="51" y="680" type="line" smooth="yes"/>
      <point x="12" y="680"/>
      <point x="3" y="663"/>
      <point x="3" y="630" type="curve" smooth="yes"/>
      <point x="3" y="583" type="line" smooth="yes"/>
      <point x="3" y="550"/>
      <point x="12" y="534"/>
      <point x="51" y="534" type="curve" smooth="yes"/>
      <point x="205" y="534" type="line"/>
      <point x="205" y="50" type="line" smooth="yes"/>
      <point x="205" y="16"/>
      <point x="219" y="0"/>
      <point x="258" y="0" type="curve" smooth="yes"/>
    </contour>
  </outline>
</glyph>
<glyph name="U" format="1">
  <advance width="716"/>
  <unicode hex="0055"/>
  <note>
	U
  </note>
  <outline>
    <contour>
      <point x="547" y="-15"/>
      <point x="678" y="82"/>
      <point x="678" y="246" type="curve" smooth="yes"/>
      <point x="678" y="629" type="line" smooth="yes"/>
      <point x="678" y="663"/>
      <point x="664" y="680"/>
      <point x="624" y="680" type="curve" smooth="yes"/>
      <point x="527" y="680" type="line" smooth="yes"/>
      <point x="488" y="680"/>
      <point x="475" y="663"/>
      <point x="475" y="629" type="curve" smooth="yes"/>
      <point x="475" y="243" type="line" smooth="yes"/>
      <point x="475" y="167"/>
      <point x="430" y="128"/>
      <point x="358" y="128" type="curve" smooth="yes"/>
      <point x="286" y="128"/>
      <point x="240" y="167"/>
      <point x="240" y="243" type="curve" smooth="yes"/>
      <point x="240" y="629" type="line" smooth="yes"/>
      <point x="240" y="663"/>
      <point x="227" y="680"/>
      <point x="187" y="680" type="curve" smooth="yes"/>
      <point x="90" y="680" type="line" smooth="yes"/>
      <point x="51" y="680"/>
      <point x="38" y="663"/>
      <point x="38" y="629" type="curve" smooth="yes"/>
      <point x="38" y="246" type="line" smooth="yes"/>
      <point x="38" y="82"/>
      <point x="168" y="-15"/>
      <point x="358" y="-15" type="curve" smooth="yes"/>
    </contour>
  </outline>
</glyph>
<glyph name="V" format="1">
  <advance width="729"/>
  <unicode hex="0056"/>
  <note>
	V
  </note>
  <outline>
    <contour>
      <point x="410" y="0" type="line" smooth="yes"/>
      <point x="436" y="0"/>
      <point x="447" y="8"/>
      <point x="457" y="33" type="curve" smooth="yes"/>
      <point x="702" y="642" type="line" smooth="yes"/>
      <point x="710" y="662"/>
      <point x="707" y="680"/>
      <point x="686" y="680" type="curve" smooth="yes"/>
      <point x="532" y="680" type="line" smooth="yes"/>
      <point x="511" y="680"/>
      <point x="500" y="670"/>
      <point x="495" y="655" type="curve" smooth="yes"/>
      <point x="364" y="277" type="line"/>
      <point x="233" y="655" type="line" smooth="yes"/>
      <point x="228" y="670"/>
      <point x="218" y="680"/>
      <point x="197" y="680" type="curve" smooth="yes"/>
      <point x="43" y="680" type="line" smooth="yes"/>
      <point x="22" y="680"/>
      <point x="19" y="662"/>
      <point x="27" y="642" type="curve" smooth="yes"/>
      <point x="273" y="33" type="line" smooth="yes"/>
      <point x="283" y="8"/>
      <point x="294" y="0"/>
      <point x="319" y="0" type="curve" smooth="yes"/>
    </contour>
  </outline>
</glyph>
<glyph name="Y" format="1">
  <advance width="736"/>
  <unicode hex="0059"/>
  <note>
	Y
  </note>
  <outline>
    <contour>
      <point x="416" y="0" type="line" smooth="yes"/>
      <point x="456" y="0"/>
      <point x="469" y="16"/>
      <point x="469" y="50" type="curve" smooth="yes"/>
      <point x="469" y="234" type="line"/>
      <point x="707" y="642" type="line" smooth="yes"/>
      <point x="717" y="660"/>
      <point x="713" y="680"/>
      <point x="691" y="680" type="curve" smooth="yes"/>
      <point x="536" y="680" type="line" smooth="yes"/>
      <point x="516" y="680"/>
      <point x="509" y="670"/>
      <point x="501" y="656" type="curve" smooth="yes"/>
      <point x="368" y="420" type="line"/>
      <point x="234" y="656" type="line" smooth="yes"/>
      <point x="226" y="670"/>
      <point x="220" y="680"/>
      <point x="199" y="680" type="curve" smooth="yes"/>
      <point x="45" y="680" type="line" smooth="yes"/>
      <point x="23" y="680"/>
      <point x="18" y="660"/>
      <point x="29" y="642" type="curve" smooth="yes"/>
      <point x="266" y="235" type="line"/>
      <point x="266" y="50" type="line" smooth="yes"/>
      <point x="266" y="16"/>
      <point x="280" y="0"/>
      <point x="319" y="0" type="curve" smooth="yes"/>
    </contour>
  </outline>
</glyph>
<glyph name="bracketleft" format="1">
  <advance width="355"/>
  <unicode hex="005B"/>
  <note>
	bracketleft
  </note>
  <outline>
    <contour>
      <point x="294" y="-70" type="line" smooth="yes"/>
      <point x="333" y="-70"/>
      <point x="342" y="-54"/>
      <point x="342" y="-21" type="curve" smooth="yes"/>
      <point x="342" y="25" type="line" smooth="yes"/>
      <point x="342" y="59"/>
      <point x="333" y="75"/>
      <point x="294" y="75" type="curve" smooth="yes"/>
      <point x="225" y="75" type="line"/>
      <point x="225" y="604" type="line"/>
      <point x="294" y="604" type="line" smooth="yes"/>
      <point x="333" y="604"/>
      <point x="342" y="620"/>
      <point x="342" y="654" type="curve" smooth="yes"/>
      <point x="342" y="700" type="line" smooth="yes"/>
      <point x="342" y="734"/>
      <point x="333" y="750"/>
      <point x="294" y="750" type="curve" smooth="yes"/>
      <point x="75" y="750" type="line" smooth="yes"/>
      <point x="36" y="750"/>
      <point x="23" y="733"/>
      <point x="23" y="699" type="curve" smooth="yes"/>
      <point x="23" y="-20" type="line" smooth="yes"/>
      <point x="23" y="-54"/>
      <point x="36" y="-70"/>
      <point x="75" y="-70" type="curve" smooth="yes"/>
    </contour>
  </outline>
</glyph>
<glyph name="backslash" format="1">
  <advance width="517"/>
  <unicode hex="005C"/>
  <note>
	backslash
  </note>
  <outline>
    <contour>
      <point x="475" y="0" type="line" smooth="yes"/>
      <point x="496" y="0"/>
      <point x="498" y="17"/>
      <point x="490" y="37" type="curve" smooth="yes"/>
      <point x="230" y="671" type="line" smooth="yes"/>
      <point x="224" y="685"/>
      <point x="216" y="695"/>
      <point x="196" y="695" type="curve" smooth="yes"/>
      <point x="42" y="695" type="line" smooth="yes"/>
      <point x="21" y="695"/>
      <point x="19" y="678"/>
      <point x="27" y="658" type="curve" smooth="yes"/>
      <point x="287" y="23" type="line" smooth="yes"/>
      <point x="293" y="9"/>
      <point x="302" y="0"/>
      <point x="321" y="0" type="curve" smooth="yes"/>
    </contour>
  </outline>
</glyph>
<glyph name="underscore" format="1">
  <advance width="518"/>
  <unicode hex="005F"/>
  <note>
	underscore
  </note>
  <outline>
    <contour>
      <point x="448" y="-161" type="line" smooth="yes"/>
      <point x="485" y="-161"/>
      <point x="495" y="-145"/>
      <point x="495" y="-113" type="curve" smooth="yes"/>
      <point x="495" y="-63" type="line" smooth="yes"/>
      <point x="495" y="-31"/>
      <point x="485" y="-15"/>
      <point x="448" y="-15" type="curve" smooth="yes"/>
      <point x="69" y="-15" type="line" smooth="yes"/>
      <point x="32" y="-15"/>
      <point x="23" y="-31"/>
      <point x="23" y="-63" type="curve" smooth="yes"/>
      <point x="23" y="-113" type="line" smooth="yes"/>
      <point x="23" y="-145"/>
      <point x="32" y="-161"/>
      <point x="69" y="-161" type="curve" smooth="yes"/>
    </contour>
  </outline>
</glyph>
<glyph name="grave" format="1">
  <advance width="305"/>
  <unicode hex="0060"/>
  <note>
	grave
  </note>
  <outline>
    <contour>
      <point x="247" y="551" type="line" smooth="yes"/>
      <point x="278" y="551"/>
      <point x="286" y="568"/>
      <point x="278" y="591" type="curve" smooth="yes"/>
      <point x="234" y="713" type="line" smooth="yes"/>
      <point x="225" y="737"/>
      <point x="219" y="746"/>
      <point x="183" y="746" type="curve" smooth="yes"/>
      <point x="61" y="746" type="line" smooth="yes"/>
      <point x="29" y="746"/>
      <point x="13" y="730"/>
      <point x="30" y="699" type="curve" smooth="yes"/>
      <point x="97" y="580" type="line" smooth="yes"/>
      <point x="110" y="557"/>
      <point x="119" y="551"/>
      <point x="154" y="551" type="curve" smooth="yes"/>
    </contour>
  </outline>
</glyph>
<glyph name="a" format="1">
  <advance width="618"/>
  <unicode hex="0061"/>
  <note>
	a
  </note>
  <outline>
    <contour>
      <point x="307" y="-15"/>
      <point x="359" y="4"/>
      <point x="398" y="45" type="curve"/>
      <point x="411" y="15" type="line" smooth="yes"/>
      <point x="416" y="4"/>
      <point x="423" y="0"/>
      <point x="438" y="0" type="curve" smooth="yes"/>
      <point x="540" y="0" type="line" smooth="yes"/>
      <point x="568" y="0"/>
      <point x="575" y="6"/>
      <point x="575" y="31" type="curve" smooth="yes"/>
      <point x="575" y="431" type="line"/>
      <point x="513" y="471"/>
      <point x="438" y="495"/>
      <point x="333" y="495" type="curve" smooth="yes"/>
      <point x="147" y="495"/>
      <point x="23" y="385"/>
      <point x="23" y="216" type="curve" smooth="yes"/>
      <point x="23" y="67"/>
      <point x="107" y="-15"/>
      <point x="230" y="-15" type="curve" smooth="yes"/>
    </contour>
    <contour>
      <point x="251" y="121"/>
      <point x="224" y="152"/>
      <point x="224" y="218" type="curve" smooth="yes"/>
      <point x="224" y="308"/>
      <point x="270" y="359"/>
      <point x="340" y="359" type="curve" smooth="yes"/>
      <point x="358" y="359"/>
      <point x="375" y="356"/>
      <point x="388" y="350" type="curve"/>
      <point x="388" y="194" type="line" smooth="yes"/>
      <point x="388" y="147"/>
      <point x="357" y="121"/>
      <point x="305" y="121" type="curve" smooth="yes"/>
    </contour>
  </outline>
</glyph>
<glyph name="b" format="1">
  <advance width="623"/>
  <unicode hex="0062"/>
  <note>
	b
  </note>
  <outline>
    <contour>
      <point x="500" y="-15"/>
      <point x="600" y="89"/>
      <point x="600" y="259" type="curve" smooth="yes"/>
      <point x="600" y="407"/>
      <point x="516" y="495"/>
      <point x="356" y="495" type="curve" smooth="yes"/>
      <point x="316" y="495"/>
      <point x="266" y="484"/>
      <point x="241" y="467" type="curve"/>
      <point x="241" y="629" type="line" smooth="yes"/>
      <point x="241" y="663"/>
      <point x="228" y="680"/>
      <point x="188" y="680" type="curve" smooth="yes"/>
      <point x="95" y="680" type="line" smooth="yes"/>
      <point x="56" y="680"/>
      <point x="43" y="663"/>
      <point x="43" y="629" type="curve" smooth="yes"/>
      <point x="43" y="56" type="line"/>
      <point x="99" y="16"/>
      <point x="199" y="-15"/>
      <point x="303" y="-15" type="curve" smooth="yes"/>
    </contour>
    <contour>
      <point x="274" y="121"/>
      <point x="253" y="125"/>
      <point x="240" y="132" type="curve"/>
      <point x="240" y="290" type="line" smooth="yes"/>
      <point x="240" y="337"/>
      <point x="277" y="359"/>
      <point x="318" y="359" type="curve" smooth="yes"/>
      <point x="376" y="359"/>
      <point x="398" y="326"/>
      <point x="398" y="258" type="curve" smooth="yes"/>
      <point x="398" y="167"/>
      <point x="364" y="121"/>
      <point x="293" y="121" type="curve" smooth="yes"/>
    </contour>
  </outline>
</glyph>
<glyph name="f" format="1">
  <advance width="457"/>
  <unicode hex="0066"/>
  <note>
	f
  </note>
  <outline>
    <contour>
      <point x="234" y="0" type="line" smooth="yes"/>
      <point x="274" y="0"/>
      <point x="287" y="16"/>
      <point x="287" y="50" type="curve" smooth="yes"/>
      <point x="287" y="342" type="line"/>
      <point x="372" y="342" type="line" smooth="yes"/>
      <point x="411" y="342"/>
      <point x="420" y="358"/>
      <point x="420" y="392" type="curve" smooth="yes"/>
      <point x="420" y="430" type="line" smooth="yes"/>
      <point x="420" y="464"/>
      <point x="411" y="480"/>
      <point x="372" y="480" type="curve" smooth="yes"/>
      <point x="287" y="480" type="line"/>
      <point x="287" y="503" type="line" smooth="yes"/>
      <point x="287" y="542"/>
      <point x="302" y="563"/>
      <point x="345" y="563" type="curve" smooth="yes"/>
      <point x="367" y="563"/>
      <point x="385" y="558"/>
      <point x="402" y="549" type="curve" smooth="yes"/>
      <point x="415" y="542"/>
      <point x="424" y="543"/>
      <point x="432" y="556" type="curve" smooth="yes"/>
      <point x="468" y="617" type="line" smooth="yes"/>
      <point x="477" y="632"/>
      <point x="476" y="641"/>
      <point x="462" y="651" type="curve" smooth="yes"/>
      <point x="424" y="679"/>
      <point x="369" y="695"/>
      <point x="295" y="695" type="curve" smooth="yes"/>
      <point x="151" y="695"/>
      <point x="85" y="619"/>
      <point x="85" y="495" type="curve" smooth="yes"/>
      <point x="85" y="480" type="line"/>
      <point x="51" y="480" type="line" smooth="yes"/>
      <point x="12" y="480"/>
      <point x="3" y="464"/>
      <point x="3" y="430" type="curve" smooth="yes"/>
      <point x="3" y="392" type="line" smooth="yes"/>
      <point x="3" y="358"/>
      <point x="12" y="342"/>
      <point x="51" y="342" type="curve" smooth="yes"/>
      <point x="85" y="342" type="line"/>
      <point x="85" y="50" type="line" smooth="yes"/>
      <point x="85" y="16"/>
      <point x="98" y="0"/>
      <point x="137" y="0" type="curve" smooth="yes"/>
    </contour>
  </outline>
</glyph>
<glyph name="j" format="1">
  <advance width="362"/>
  <unicode hex="006A"/>
  <note>
	j
  </note>
  <outline>
    <contour>
      <point x="237" y="-170"/>
      <point x="314" y="-84"/>
      <point x="314" y="44" type="curve" smooth="yes"/>
      <point x="314" y="429" type="line" smooth="yes"/>
      <point x="314" y="463"/>
      <point x="301" y="480"/>
      <point x="261" y="480" type="curve" smooth="yes"/>
      <point x="164" y="480" type="line" smooth="yes"/>
      <point x="125" y="480"/>
      <point x="111" y="463"/>
      <point x="111" y="429" type="curve" smooth="yes"/>
      <point x="111" y="47" type="line" smooth="yes"/>
      <point x="111" y="-1"/>
      <point x="92" y="-27"/>
      <point x="38" y="-27" type="curve" smooth="yes"/>
      <point x="0" y="-27"/>
      <point x="-29" y="-10"/>
      <point x="-55" y="8" type="curve" smooth="yes"/>
      <point x="-70" y="18"/>
      <point x="-81" y="20"/>
      <point x="-91" y="2" type="curve" smooth="yes"/>
      <point x="-134" y="-72" type="line" smooth="yes"/>
      <point x="-143" y="-88"/>
      <point x="-145" y="-100"/>
      <point x="-130" y="-111" type="curve" smooth="yes"/>
      <point x="-81" y="-147"/>
      <point x="-11" y="-170"/>
      <point x="80" y="-170" type="curve" smooth="yes"/>
    </contour>
    <contour>
      <point x="248" y="531" type="line" smooth="yes"/>
      <point x="296" y="531"/>
      <point x="319" y="562"/>
      <point x="319" y="593" type="curve" smooth="yes"/>
      <point x="319" y="617" type="line" smooth="yes"/>
      <point x="319" y="649"/>
      <point x="296" y="680"/>
      <point x="248" y="680" type="curve" smooth="yes"/>
      <point x="175" y="680" type="line" smooth="yes"/>
      <point x="128" y="680"/>
      <point x="105" y="649"/>
      <point x="105" y="617" type="curve" smooth="yes"/>
      <point x="105" y="593" type="line" smooth="yes"/>
      <point x="105" y="562"/>
      <point x="128" y="531"/>
      <point x="175" y="531" type="curve" smooth="yes"/>
    </contour>
  </outline>
</glyph>
<glyph name="l" format="1">
  <advance width="288"/>
  <unicode hex="006C"/>
  <note>
	l
  </note>
  <outline>
    <contour>
      <point x="192" y="0" type="line" smooth="yes"/>
      <point x="232" y="0"/>
      <point x="245" y="16"/>
      <point x="245" y="50" type="curve" smooth="yes"/>
      <point x="245" y="629" type="line" smooth="yes"/>
      <point x="245" y="663"/>
      <point x="232" y="680"/>
      <point x="192" y="680" type="curve" smooth="yes"/>
      <point x="95" y="680" type="line" smooth="yes"/>
      <point x="56" y="680"/>
      <point x="43" y="663"/>
      <point x="43" y="629" type="curve" smooth="yes"/>
      <point x="43" y="50" type="line" smooth="yes"/>
      <point x="43" y="16"/>
      <point x="56" y="0"/>
      <point x="95" y="0" type="curve" smooth="yes"/>
    </contour>
  </outline>
</glyph>
<glyph name="o" format="1">
  <advance width="625"/>
  <unicode hex="006F"/>
  <note>
	o
  </note>
  <outline>
    <contour>
      <point x="497" y="-15"/>
      <point x="602" y="85"/>
      <point x="602" y="240" type="curve" smooth="yes"/>
      <point x="602" y="395"/>
      <point x="497" y="495"/>
      <point x="312" y="495" type="curve" smooth="yes"/>
      <point x="127" y="495"/>
      <point x="23" y="395"/>
      <point x="23" y="240" type="curve" smooth="yes"/>
      <point x="23" y="85"/>
      <point x="127" y="-15"/>
      <point x="312" y="-15" type="curve" smooth="yes"/>
    </contour>
    <contour>
      <point x="257" y="128"/>
      <point x="224" y="163"/>
      <point x="224" y="240" type="curve" smooth="yes"/>
      <point x="224" y="317"/>
      <point x="257" y="350"/>
      <point x="312" y="350" type="curve" smooth="yes"/>
      <point x="368" y="350"/>
      <point x="400" y="317"/>
      <point x="400" y="240" type="curve" smooth="yes"/>
      <point x="400" y="163"/>
      <point x="368" y="128"/>
      <point x="312" y="128" type="curve" smooth="yes"/>
    </contour>
  </outline>
</glyph>
<glyph name="q" format="1">
  <advance width="623"/>
  <unicode hex="0071"/>
  <note>
	q
  </note>
  <outline>
    <contour>
      <point x="527" y="-202" type="line" smooth="yes"/>
      <point x="566" y="-202"/>
      <point x="580" y="-186"/>
      <point x="580" y="-152" type="curve" smooth="yes"/>
      <point x="580" y="421" type="line"/>
      <point x="525" y="460"/>
      <point x="430" y="495"/>
      <point x="324" y="495" type="curve" smooth="yes"/>
      <point x="125" y="495"/>
      <point x="23" y="395"/>
      <point x="23" y="225" type="curve" smooth="yes"/>
      <point x="23" y="76"/>
      <point x="108" y="-15"/>
      <point x="267" y="-15" type="curve" smooth="yes"/>
      <point x="311" y="-15"/>
      <point x="355" y="-4"/>
      <point x="381" y="15" type="curve"/>
      <point x="381" y="-152" type="line" smooth="yes"/>
      <point x="381" y="-186"/>
      <point x="394" y="-202"/>
      <point x="434" y="-202" type="curve" smooth="yes"/>
    </contour>
    <contour>
      <point x="250" y="120"/>
      <point x="224" y="158"/>
      <point x="224" y="226" type="curve" smooth="yes"/>
      <point x="224" y="316"/>
      <point x="263" y="358"/>
      <point x="329" y="358" type="curve" smooth="yes"/>
      <point x="348" y="358"/>
      <point x="369" y="355"/>
      <point x="382" y="349" type="curve"/>
      <point x="382" y="190" type="line" smooth="yes"/>
      <point x="382" y="144"/>
      <point x="355" y="120"/>
      <point x="310" y="120" type="curve" smooth="yes"/>
    </contour>
  </outline>
</glyph>
<glyph name="s" format="1">
  <advance width="537"/>
  <unicode hex="0073"/>
  <note>
	s
  </note>
  <outline>
    <contour>
      <point x="440" y="-15"/>
      <point x="514" y="57"/>
      <point x="514" y="139" type="curve" smooth="yes"/>
      <point x="514" y="210"/>
      <point x="487" y="241"/>
      <point x="392" y="274" type="curve" smooth="yes"/>
      <point x="322" y="297"/>
      <point x="237" y="307"/>
      <point x="237" y="336" type="curve" smooth="yes"/>
      <point x="237" y="359"/>
      <point x="265" y="366"/>
      <point x="306" y="366" type="curve" smooth="yes"/>
      <point x="347" y="366"/>
      <point x="393" y="353"/>
      <point x="424" y="337" type="curve" smooth="yes"/>
      <point x="440" y="329"/>
      <point x="444" y="327"/>
      <point x="454" y="342" type="curve" smooth="yes"/>
      <point x="495" y="407" type="line" smooth="yes"/>
      <point x="505" y="424"/>
      <point x="504" y="435"/>
      <point x="483" y="447" type="curve" smooth="yes"/>
      <point x="427" y="477"/>
      <point x="366" y="495"/>
      <point x="274" y="495" type="curve" smooth="yes"/>
      <point x="136" y="495"/>
      <point x="42" y="444"/>
      <point x="42" y="344" type="curve" smooth="yes"/>
      <point x="42" y="262"/>
      <point x="94" y="227"/>
      <point x="199" y="196" type="curve" smooth="yes"/>
      <point x="270" y="175"/>
      <point x="311" y="166"/>
      <point x="311" y="142" type="curve" smooth="yes"/>
      <point x="311" y="121"/>
      <point x="293" y="114"/>
      <point x="251" y="114" type="curve" smooth="yes"/>
      <point x="203" y="114"/>
      <point x="137" y="135"/>
      <point x="102" y="154" type="curve" smooth="yes"/>
      <point x="86" y="162"/>
      <point x="78" y="163"/>
      <point x="70" y="148" type="curve" smooth="yes"/>
      <point x="28" y="73" type="line" smooth="yes"/>
      <point x="19" y="57"/>
      <point x="21" y="49"/>
      <point x="42" y="37" type="curve" smooth="yes"/>
      <point x="104" y="2"/>
      <point x="186" y="-15"/>
      <point x="275" y="-15" type="curve" smooth="yes"/>
    </contour>
  </outline>
</glyph>
<glyph name="x" format="1">
  <advance width="628"/>
  <unicode hex="0078"/>
  <note>
	x
  </note>
  <outline>
    <contour>
      <point x="201" y="0" type="line" smooth="yes"/>
      <point x="219" y="0"/>
      <point x="226" y="3"/>
      <point x="234" y="13" type="curve" smooth="yes"/>
      <point x="313" y="108" type="line"/>
      <point x="393" y="13" type="line" smooth="yes"/>
      <point x="402" y="3"/>
      <point x="408" y="0"/>
      <point x="426" y="0" type="curve" smooth="yes"/>
      <point x="582" y="0" type="line" smooth="yes"/>
      <point x="603" y="0"/>
      <point x="611" y="21"/>
      <point x="597" y="38" type="curve" smooth="yes"/>
      <point x="425" y="244" type="line"/>
      <point x="589" y="442" type="line" smooth="yes"/>
      <point x="603" y="459"/>
      <point x="596" y="480"/>
      <point x="575" y="480" type="curve" smooth="yes"/>
      <point x="419" y="480" type="line" smooth="yes"/>
      <point x="401" y="480"/>
      <point x="394" y="476"/>
      <point x="386" y="466" type="curve" smooth="yes"/>
      <point x="313" y="380" type="line"/>
      <point x="242" y="466" type="line" smooth="yes"/>
      <point x="234" y="476"/>
      <point x="227" y="480"/>
      <point x="208" y="480" type="curve" smooth="yes"/>
      <point x="53" y="480" type="line" smooth="yes"/>
      <point x="31" y="480"/>
      <point x="24" y="459"/>
      <point x="38" y="442" type="curve" smooth="yes"/>
      <point x="201" y="244" type="line"/>
      <point x="31" y="38" type="line" smooth="yes"/>
      <point x="16" y="21"/>
      <point x="24" y="0"/>
      <point x="46" y="0" type="curve" smooth="yes"/>
    </contour>
  </outline>
</glyph>
<glyph name="braceleft" format="1">
  <advance width="395"/>
  <unicode hex="007B"/>
  <note>
	braceleft
  </note>
  <outline>
    <contour>
      <point x="333" y="-70" type="line" smooth="yes"/>
      <point x="372" y="-70"/>
      <point x="382" y="-54"/>
      <point x="382" y="-21" type="curve" smooth="yes"/>
      <point x="382" y="17" type="line" smooth="yes"/>
      <point x="382" y="51"/>
      <point x="372" y="67"/>
      <point x="333" y="67" type="curve" smooth="yes"/>
      <point x="298" y="67" type="line"/>
      <point x="298" y="612" type="line"/>
      <point x="333" y="612" type="line" smooth="yes"/>
      <point x="372" y="612"/>
      <point x="382" y="628"/>
      <point x="382" y="662" type="curve" smooth="yes"/>
      <point x="382" y="700" type="line" smooth="yes"/>
      <point x="382" y="734"/>
      <point x="372" y="750"/>
      <point x="333" y="750" type="curve" smooth="yes"/>
      <point x="152" y="750" type="line" smooth="yes"/>
      <point x="112" y="750"/>
      <point x="99" y="733"/>
      <point x="99" y="699" type="curve" smooth="yes"/>
      <point x="99" y="409" type="line"/>
      <point x="51" y="409" type="line" smooth="yes"/>
      <point x="12" y="409"/>
      <point x="3" y="393"/>
      <point x="3" y="359" type="curve" smooth="yes"/>
      <point x="3" y="321" type="line" smooth="yes"/>
      <point x="3" y="288"/>
      <point x="12" y="272"/>
      <point x="51" y="272" type="curve" smooth="yes"/>
      <point x="99" y="272" type="line"/>
      <point x="99" y="-20" type="line" smooth="yes"/>
      <point x="99" y="-54"/>
      <point x="112" y="-70"/>
      <point x="152" y="-70" type="curve" smooth="yes"/>
    </contour>
  </outline>
</glyph>
<glyph name="braceright" format="1">
  <advance width="395"/>
  <unicode hex="007D"/>
  <note>
	braceright
  </note>
  <outline>
    <contour>
      <point x="243" y="-70" type="line" smooth="yes"/>
      <point x="282" y="-70"/>
      <point x="295" y="-54"/>
      <point x="295" y="-20" type="curve" smooth="yes"/>
      <point x="295" y="272" type="line"/>
      <point x="343" y="272" type="line" smooth="yes"/>
      <point x="382" y="272"/>
      <point x="392" y="288"/>
      <point x="392" y="321" type="curve" smooth="yes"/>
      <point x="392" y="359" type="line" smooth="yes"/>
      <point x="392" y="393"/>
      <point x="382" y="409"/>
      <point x="343" y="409" type="curve" smooth="yes"/>
      <point x="295" y="409" type="line"/>
      <point x="295" y="699" type="line" smooth="yes"/>
      <point x="295" y="733"/>
      <point x="282" y="750"/>
      <point x="243" y="750" type="curve" smooth="yes"/>
      <point x="61" y="750" type="line" smooth="yes"/>
      <point x="22" y="750"/>
      <point x="13" y="734"/>
      <point x="13" y="700" type="curve" smooth="yes"/>
      <point x="13" y="662" type="line" smooth="yes"/>
      <point x="13" y="628"/>
      <point x="22" y="612"/>
      <point x="61" y="612" type="curve" smooth="yes"/>
      <point x="97" y="612" type="line"/>
      <point x="97" y="67" type="line"/>
      <point x="61" y="67" type="line" smooth="yes"/>
      <point x="22" y="67"/>
      <point x="13" y="51"/>
      <point x="13" y="17" type="curve" smooth="yes"/>
      <point x="13" y="-21" type="line" smooth="yes"/>
      <point x="13" y="-54"/>
      <point x="22" y="-70"/>
      <point x="61" y="-70" type="curve" smooth="yes"/>
    </contour>
  </outline>
</glyph>
<glyph name="asciitilde" format="1">
  <advance width="629"/>
  <unicode hex="007E"/>
  <note>
	asciitilde
  </note>
  <outline>
    <contour>
      <point x="502" y="202"/>
      <point x="551" y="243"/>
      <point x="587" y="293" type="curve" smooth="yes"/>
      <point x="615" y="332"/>
      <point x="610" y="351"/>
      <point x="571" y="381" type="curve" smooth="yes"/>
      <point x="524" y="417"/>
      <point x="503" y="420"/>
      <point x="484" y="398" type="curve" smooth="yes"/>
      <point x="463" y="372"/>
      <point x="449" y="354"/>
      <point x="410" y="354" type="curve" smooth="yes"/>
      <point x="343" y="354"/>
      <point x="300" y="420"/>
      <point x="205" y="420" type="curve" smooth="yes"/>
      <point x="129" y="420"/>
      <point x="77" y="379"/>
      <point x="41" y="329" type="curve" smooth="yes"/>
      <point x="13" y="290"/>
      <point x="18" y="271"/>
      <point x="57" y="242" type="curve" smooth="yes"/>
      <point x="104" y="205"/>
      <point x="125" y="203"/>
      <point x="144" y="224" type="curve" smooth="yes"/>
      <point x="164" y="247"/>
      <point x="179" y="268"/>
      <point x="218" y="268" type="curve" smooth="yes"/>
      <point x="297" y="268"/>
      <point x="338" y="202"/>
      <point x="431" y="202" type="curve" smooth="yes"/>
    </contour>
  </outline>
</glyph>
<glyph name="yen" format="1">
  <advance width="736"/>
  <unicode hex="00A5"/>
  <note>
	yen
  </note>
  <outline>
    <contour>
      <point x="416" y="0" type="line" smooth="yes"/>
      <point x="456" y="0"/>
      <point x="469" y="16"/>
      <point x="469" y="50" type="curve" smooth="yes"/>
      <point x="469" y="70" type="line"/>
      <point x="562" y="70" type="line" smooth="yes"/>
      <point x="597" y="70"/>
      <point x="605" y="78"/>
      <point x="605" y="112" type="curve" smooth="yes"/>
      <point x="605" y="142" type="line" smooth="yes"/>
      <point x="605" y="176"/>
      <point x="597" y="184"/>
      <point x="562" y="184" type="curve" smooth="yes"/>
      <point x="469" y="184" type="line"/>
      <point x="469" y="224" type="line"/>
      <point x="562" y="224" type="line" smooth="yes"/>
      <point x="597" y="224"/>
      <point x="605" y="232"/>
      <point x="605" y="265" type="curve" smooth="yes"/>
      <point x="605" y="295" type="line" smooth="yes"/>
      <point x="605" y="329"/>
      <point x="597" y="337"/>
      <point x="562" y="337" type="curve" smooth="yes"/>
      <point x="529" y="337" type="line"/>
      <point x="707" y="642" type="line" smooth="yes"/>
      <point x="717" y="660"/>
      <point x="713" y="680"/>
      <point x="691" y="680" type="curve" smooth="yes"/>
      <point x="536" y="680" type="line" smooth="yes"/>
      <point x="516" y="680"/>
      <point x="508" y="670"/>
      <point x="501" y="656" type="curve"/>
      <point x="368" y="416" type="line"/>
      <point x="234" y="656" type="line"/>
      <point x="227" y="670"/>
      <point x="220" y="680"/>
      <point x="199" y="680" type="curve" smooth="yes"/>
      <point x="45" y="680" type="line" smooth="yes"/>
      <point x="23" y="680"/>
      <point x="18" y="660"/>
      <point x="29" y="642" type="curve" smooth="yes"/>
      <point x="206" y="337" type="line"/>
      <point x="168" y="337" type="line" smooth="yes"/>
      <point x="133" y="337"/>
      <point x="125" y="329"/>
      <point x="125" y="295" type="curve" smooth="yes"/>
      <point x="125" y="265" type="line" smooth="yes"/>
      <point x="125" y="232"/>
      <point x="133" y="224"/>
      <point x="168" y="224" type="curve" smooth="yes"/>
      <point x="266" y="224" type="line"/>
      <point x="266" y="184" type="line"/>
      <point x="168" y="184" type="line" smooth="yes"/>
      <point x="133" y="184"/>
      <point x="125" y="176"/>
      <point x="125" y="142" type="curve" smooth="yes"/>
      <point x="125" y="112" type="line" smooth="yes"/>
      <point x="125" y="78"/>
      <point x="133" y="70"/>
      <point x="168" y="70" type="curve" smooth="yes"/>
      <point x="266" y="70" type="line"/>
      <point x="266" y="50" type="line" smooth="yes"/>
      <point x="266" y="16"/>
      <point x="280" y="0"/>
      <point x="319" y="0" type="curve" smooth="yes"/>
    </contour>
  </outline>
</glyph>
<glyph name="dieresis" format="1">
  <advance width="411"/>
  <unicode hex="00A8"/>
  <note>
	dieresis
  </note>
  <outline>
    <contour>
      <point x="327" y="539" type="line" smooth="yes"/>
      <point x="364" y="539"/>
      <point x="388" y="568"/>
      <point x="388" y="603" type="curve" smooth="yes"/>
      <point x="388" y="628" type="line" smooth="yes"/>
      <point x="388" y="664"/>
      <point x="363" y="692"/>
      <point x="327" y="692" type="curve" smooth="yes"/>
      <point x="300" y="692" type="line" smooth="yes"/>
      <point x="264" y="692"/>
      <point x="239" y="664"/>
      <point x="239" y="628" type="curve" smooth="yes"/>
      <point x="239" y="603" type="line" smooth="yes"/>
      <point x="239" y="568"/>
      <point x="264" y="539"/>
      <point x="300" y="539" type="curve" smooth="yes"/>
    </contour>
    <contour>
      <point x="110" y="539" type="line" smooth="yes"/>
      <point x="147" y="539"/>
      <point x="171" y="568"/>
      <point x="171" y="603" type="curve" smooth="yes"/>
      <point x="171" y="628" type="line" smooth="yes"/>
      <point x="171" y="664"/>
      <point x="146" y="692"/>
      <point x="110" y="692" type="curve" smooth="yes"/>
      <point x="84" y="692" type="line" smooth="yes"/>
      <point x="48" y="692"/>
      <point x="23" y="664"/>
      <point x="23" y="628" type="curve" smooth="yes"/>
      <point x="23" y="603" type="line" smooth="yes"/>
      <point x="23" y="568"/>
      <point x="48" y="539"/>
      <point x="84" y="539" type="curve" smooth="yes"/>
    </contour>
  </outline>
</glyph>
<glyph name="copyright" format="1">
  <advance width="772"/>
  <unicode hex="00A9"/>
  <note>
	copyright
  </note>
  <outline>
    <contour>
      <point x="582" y="-15"/>
      <point x="749" y="144"/>
      <point x="749" y="340" type="curve" smooth="yes"/>
      <point x="749" y="536"/>
      <point x="582" y="695"/>
      <point x="386" y="695" type="curve" smooth="yes"/>
      <point x="190" y="695"/>
      <point x="23" y="536"/>
      <point x="23" y="340" type="curve" smooth="yes"/>
      <point x="23" y="144"/>
      <point x="190" y="-15"/>
      <point x="386" y="-15" type="curve" smooth="yes"/>
    </contour>
    <contour>
      <point x="458" y="117"/>
      <point x="502" y="136"/>
      <point x="538" y="163" type="curve"/>
      <point x="546" y="170"/>
      <point x="546" y="174"/>
      <point x="542" y="183" type="curve"/>
      <point x="517" y="234" type="line"/>
      <point x="511" y="245"/>
      <point x="504" y="244"/>
      <point x="494" y="237" type="curve" smooth="yes"/>
      <point x="472" y="221"/>
      <point x="449" y="212"/>
      <point x="409" y="212" type="curve" smooth="yes"/>
      <point x="339" y="212"/>
      <point x="297" y="254"/>
      <point x="297" y="338" type="curve" smooth="yes"/>
      <point x="297" y="420"/>
      <point x="338" y="466"/>
      <point x="407" y="466" type="curve" smooth="yes"/>
      <point x="448" y="466"/>
      <point x="471" y="457"/>
      <point x="493" y="441" type="curve" smooth="yes"/>
      <point x="502" y="434"/>
      <point x="510" y="432"/>
      <point x="516" y="444" type="curve" smooth="yes"/>
      <point x="538" y="490" type="line" smooth="yes"/>
      <point x="543" y="500"/>
      <point x="544" y="508"/>
      <point x="536" y="515" type="curve" smooth="yes"/>
      <point x="501" y="544"/>
      <point x="456" y="561"/>
      <point x="390" y="561" type="curve" smooth="yes"/>
      <point x="253" y="561"/>
      <point x="169" y="478"/>
      <point x="169" y="338" type="curve" smooth="yes"/>
      <point x="169" y="196"/>
      <point x="252" y="117"/>
      <point x="393" y="117" type="curve" smooth="yes"/>
    </contour>
    <contour>
      <point x="236" y="88"/>
      <point x="137" y="191"/>
      <point x="137" y="340" type="curve" smooth="yes"/>
      <point x="137" y="488"/>
      <point x="236" y="591"/>
      <point x="386" y="591" type="curve" smooth="yes"/>
      <point x="535" y="591"/>
      <point x="634" y="488"/>
      <point x="634" y="340" type="curve" smooth="yes"/>
      <point x="634" y="191"/>
      <point x="535" y="88"/>
      <point x="386" y="88" type="curve" smooth="yes"/>
    </contour>
  </outline>
</glyph>
<glyph name="ordfeminine" format="1">
  <advance width="360"/>
  <unicode hex="00AA"/>
  <note>
	ordfeminine
  </note>
  <outline>
    <contour>
      <point x="183" y="368"/>
      <point x="213" y="381"/>
      <point x="237" y="406" type="curve"/>
      <point x="241" y="390" type="line" smooth="yes"/>
      <point x="243" y="382"/>
      <point x="246" y="377"/>
      <point x="257" y="377" type="curve" smooth="yes"/>
      <point x="322" y="377" type="line" smooth="yes"/>
      <point x="332" y="377"/>
      <point x="337" y="382"/>
      <point x="337" y="390" type="curve" smooth="yes"/>
      <point x="337" y="564" type="line" smooth="yes"/>
      <point x="337" y="651"/>
      <point x="292" y="695"/>
      <point x="181" y="695" type="curve" smooth="yes"/>
      <point x="133" y="695"/>
      <point x="92" y="685"/>
      <point x="64" y="672" type="curve" smooth="yes"/>
      <point x="56" y="668"/>
      <point x="55" y="663"/>
      <point x="58" y="657" type="curve"/>
      <point x="89" y="604" type="line"/>
      <point x="92" y="598"/>
      <point x="96" y="597"/>
      <point x="103" y="600" type="curve" smooth="yes"/>
      <point x="127" y="611"/>
      <point x="150" y="615"/>
      <point x="173" y="615" type="curve" smooth="yes"/>
      <point x="217" y="615"/>
      <point x="235" y="604"/>
      <point x="235" y="577" type="curve" smooth="yes"/>
      <point x="235" y="572" type="line"/>
      <point x="149" y="572" type="line" smooth="yes"/>
      <point x="76" y="572"/>
      <point x="23" y="536"/>
      <point x="23" y="467" type="curve" smooth="yes"/>
      <point x="23" y="406"/>
      <point x="68" y="368"/>
      <point x="131" y="368" type="curve" smooth="yes"/>
    </contour>
    <contour>
      <point x="144" y="441"/>
      <point x="131" y="448"/>
      <point x="131" y="471" type="curve" smooth="yes"/>
      <point x="131" y="491"/>
      <point x="140" y="504"/>
      <point x="168" y="504" type="curve" smooth="yes"/>
      <point x="235" y="504" type="line"/>
      <point x="235" y="498" type="line" smooth="yes"/>
      <point x="235" y="463"/>
      <point x="210" y="441"/>
      <point x="170" y="441" type="curve" smooth="yes"/>
    </contour>
  </outline>
</glyph>
<glyph name="guillemetleft" format="1">
  <advance width="743"/>
  <unicode hex="00AB"/>
  <note>
	guillemotleft
  </note>
  <outline>
    <contour>
      <point x="704" y="91" type="line" smooth="yes"/>
      <point x="721" y="108"/>
      <point x="727" y="122"/>
      <point x="704" y="144" type="curve" smooth="yes"/>
      <point x="558" y="286" type="line"/>
      <point x="704" y="427" type="line" smooth="yes"/>
      <point x="727" y="449"/>
      <point x="721" y="463"/>
      <point x="704" y="480" type="curve" smooth="yes"/>
      <point x="636" y="548" type="line" smooth="yes"/>
      <point x="617" y="567"/>
      <point x="600" y="564"/>
      <point x="578" y="541" type="curve" smooth="yes"/>
      <point x="386" y="344" type="line" smooth="yes"/>
      <point x="367" y="324"/>
      <point x="355" y="312"/>
      <point x="355" y="297" type="curve" smooth="yes"/>
      <point x="355" y="274" type="line" smooth="yes"/>
      <point x="355" y="258"/>
      <point x="365" y="249"/>
      <point x="386" y="227" type="curve" smooth="yes"/>
      <point x="578" y="30" type="line" smooth="yes"/>
      <point x="600" y="7"/>
      <point x="617" y="5"/>
      <point x="636" y="23" type="curve" smooth="yes"/>
    </contour>
    <contour>
      <point x="372" y="91" type="line" smooth="yes"/>
      <point x="389" y="108"/>
      <point x="395" y="122"/>
      <point x="372" y="144" type="curve" smooth="yes"/>
      <point x="226" y="286" type="line"/>
      <point x="372" y="427" type="line" smooth="yes"/>
      <point x="395" y="449"/>
      <point x="389" y="463"/>
      <point x="372" y="480" type="curve" smooth="yes"/>
      <point x="304" y="548" type="line" smooth="yes"/>
      <point x="285" y="567"/>
      <point x="268" y="564"/>
      <point x="246" y="541" type="curve" smooth="yes"/>
      <point x="54" y="344" type="line" smooth="yes"/>
      <point x="35" y="324"/>
      <point x="23" y="312"/>
      <point x="23" y="297" type="curve" smooth="yes"/>
      <point x="23" y="274" type="line" smooth="yes"/>
      <point x="23" y="258"/>
      <point x="33" y="249"/>
      <point x="54" y="227" type="curve" smooth="yes"/>
      <point x="246" y="30" type="line" smooth="yes"/>
      <point x="268" y="7"/>
      <point x="285" y="5"/>
      <point x="304" y="23" type="curve" smooth="yes"/>
    </contour>
  </outline>
</glyph>
<glyph name="logicalnot" format="1">
  <advance width="468"/>
  <unicode hex="00AC"/>
  <note>
	logicalnot
  </note>
  <outline>
    <contour>
      <point x="395" y="111" type="line" smooth="yes"/>
      <point x="428" y="111"/>
      <point x="445" y="120"/>
      <point x="445" y="159" type="curve" smooth="yes"/>
      <point x="445" y="326" type="line" smooth="yes"/>
      <point x="445" y="360"/>
      <point x="435" y="376"/>
      <point x="396" y="376" type="curve" smooth="yes"/>
      <point x="71" y="376" type="line" smooth="yes"/>
      <point x="32" y="376"/>
      <point x="23" y="360"/>
      <point x="23" y="326" type="curve" smooth="yes"/>
      <point x="23" y="280" type="line" smooth="yes"/>
      <point x="23" y="246"/>
      <point x="32" y="230"/>
      <point x="71" y="230" type="curve" smooth="yes"/>
      <point x="287" y="230" type="line"/>
      <point x="287" y="159" type="line" smooth="yes"/>
      <point x="287" y="120"/>
      <point x="304" y="111"/>
      <point x="337" y="111" type="curve" smooth="yes"/>
    </contour>
  </outline>
</glyph>
<glyph name="registered" format="1">
  <advance width="772"/>
  <unicode hex="00AE"/>
  <note>
	registered
  </note>
  <outline>
    <contour>
      <point x="582" y="-15"/>
      <point x="749" y="144"/>
      <point x="749" y="340" type="curve" smooth="yes"/>
      <point x="749" y="536"/>
      <point x="582" y="695"/>
      <point x="386" y="695" type="curve" smooth="yes"/>
      <point x="190" y="695"/>
      <point x="23" y="536"/>
      <point x="23" y="340" type="curve" smooth="yes"/>
      <point x="23" y="144"/>
      <point x="190" y="-15"/>
      <point x="386" y="-15" type="curve" smooth="yes"/>
    </contour>
    <contour>
      <point x="236" y="88"/>
      <point x="137" y="191"/>
      <point x="137" y="340" type="curve" smooth="yes"/>
      <point x="137" y="488"/>
      <point x="236" y="591"/>
      <point x="386" y="591" type="curve" smooth="yes"/>
      <point x="535" y="591"/>
      <point x="634" y="488"/>
      <point x="634" y="340" type="curve" smooth="yes"/>
      <point x="634" y="191"/>
      <point x="535" y="88"/>
      <point x="386" y="88" type="curve" smooth="yes"/>
    </contour>
    <contour>
      <point x="325" y="152" type="line" smooth="yes"/>
      <point x="347" y="152"/>
      <point x="355" y="161"/>
      <point x="355" y="181" type="curve" smooth="yes"/>
      <point x="355" y="279" type="line"/>
      <point x="390" y="279" type="line"/>
      <point x="437" y="162" type="line" smooth="yes"/>
      <point x="440" y="155"/>
      <point x="447" y="152"/>
      <point x="458" y="152" type="curve" smooth="yes"/>
      <point x="536" y="152" type="line" smooth="yes"/>
      <point x="549" y="152"/>
      <point x="553" y="161"/>
      <point x="547" y="173" type="curve" smooth="yes"/>
      <point x="491" y="295" type="line"/>
      <point x="543" y="314"/>
      <point x="564" y="353"/>
      <point x="564" y="409" type="curve" smooth="yes"/>
      <point x="564" y="496"/>
      <point x="514" y="540"/>
      <point x="408" y="540" type="curve" smooth="yes"/>
      <point x="266" y="540" type="line" smooth="yes"/>
      <point x="244" y="540"/>
      <point x="235" y="531"/>
      <point x="235" y="511" type="curve" smooth="yes"/>
      <point x="235" y="181" type="line" smooth="yes"/>
      <point x="235" y="161"/>
      <point x="244" y="152"/>
      <point x="266" y="152" type="curve" smooth="yes"/>
    </contour>
    <contour>
      <point x="355" y="456" type="line"/>
      <point x="402" y="456" type="line" smooth="yes"/>
      <point x="436" y="456"/>
      <point x="451" y="444"/>
      <point x="451" y="409" type="curve" smooth="yes"/>
      <point x="451" y="377"/>
      <point x="436" y="363"/>
      <point x="401" y="363" type="curve" smooth="yes"/>
      <point x="355" y="363" type="line"/>
    </contour>
  </outline>
</glyph>
<glyph name="degree" format="1">
  <advance width="339"/>
  <unicode hex="00B0"/>
  <note>
	degree
  </note>
  <outline>
    <contour>
      <point x="258" y="440"/>
      <point x="316" y="491"/>
      <point x="316" y="586" type="curve" smooth="yes"/>
      <point x="316" y="681"/>
      <point x="258" y="731"/>
      <point x="169" y="731" type="curve" smooth="yes"/>
      <point x="81" y="731"/>
      <point x="23" y="681"/>
      <point x="23" y="586" type="curve" smooth="yes"/>
      <point x="23" y="491"/>
      <point x="81" y="440"/>
      <point x="169" y="440" type="curve" smooth="yes"/>
    </contour>
    <contour>
      <point x="143" y="539"/>
      <point x="124" y="555"/>
      <point x="124" y="586" type="curve" smooth="yes"/>
      <point x="124" y="616"/>
      <point x="143" y="632"/>
      <point x="169" y="632" type="curve" smooth="yes"/>
      <point x="196" y="632"/>
      <point x="215" y="616"/>
      <point x="215" y="586" type="curve" smooth="yes"/>
      <point x="215" y="555"/>
      <point x="196" y="539"/>
      <point x="169" y="539" type="curve" smooth="yes"/>
    </contour>
  </outline>
</glyph>
<glyph name="threesuperior" format="1">
  <advance width="381"/>
  <unicode hex="00B3"/>
  <note>
	threesuperior
  </note>
  <outline>
    <contour>
      <point x="297" y="279"/>
      <point x="358" y="330"/>
      <point x="358" y="406" type="curve" smooth="yes"/>
      <point x="358" y="446"/>
      <point x="342" y="476"/>
      <point x="307" y="493" type="curve"/>
      <point x="336" y="513"/>
      <point x="348" y="540"/>
      <point x="348" y="575" type="curve" smooth="yes"/>
      <point x="348" y="648"/>
      <point x="282" y="695"/>
      <point x="181" y="695" type="curve" smooth="yes"/>
      <point x="120" y="695"/>
      <point x="66" y="682"/>
      <point x="34" y="659" type="curve" smooth="yes"/>
      <point x="26" y="653"/>
      <point x="28" y="646"/>
      <point x="33" y="637" type="curve" smooth="yes"/>
      <point x="59" y="587" type="line" smooth="yes"/>
      <point x="64" y="577"/>
      <point x="69" y="579"/>
      <point x="80" y="584" type="curve" smooth="yes"/>
      <point x="101" y="594"/>
      <point x="120" y="604"/>
      <point x="154" y="604" type="curve" smooth="yes"/>
      <point x="190" y="604"/>
      <point x="201" y="591"/>
      <point x="201" y="570" type="curve" smooth="yes"/>
      <point x="201" y="550"/>
      <point x="193" y="536"/>
      <point x="168" y="536" type="curve" smooth="yes"/>
      <point x="135" y="536" type="line" smooth="yes"/>
      <point x="111" y="536"/>
      <point x="103" y="528"/>
      <point x="103" y="508" type="curve" smooth="yes"/>
      <point x="103" y="475" type="line" smooth="yes"/>
      <point x="103" y="454"/>
      <point x="111" y="445"/>
      <point x="135" y="445" type="curve" smooth="yes"/>
      <point x="173" y="445" type="line" smooth="yes"/>
      <point x="200" y="445"/>
      <point x="213" y="435"/>
      <point x="213" y="410" type="curve" smooth="yes"/>
      <point x="213" y="383"/>
      <point x="194" y="369"/>
      <point x="152" y="369" type="curve" smooth="yes"/>
      <point x="120" y="369"/>
      <point x="96" y="378"/>
      <point x="74" y="389" type="curve"/>
      <point x="65" y="394"/>
      <point x="59" y="396"/>
      <point x="54" y="386" type="curve" smooth="yes"/>
      <point x="27" y="336" type="line" smooth="yes"/>
      <point x="22" y="327"/>
      <point x="20" y="320"/>
      <point x="29" y="314" type="curve" smooth="yes"/>
      <point x="60" y="292"/>
      <point x="122" y="279"/>
      <point x="181" y="279" type="curve" smooth="yes"/>
    </contour>
  </outline>
</glyph>
<glyph name="acute" format="1">
  <advance width="305"/>
  <unicode hex="00B4"/>
  <note>
	acute
  </note>
  <outline>
    <contour>
      <point x="146" y="551" type="line" smooth="yes"/>
      <point x="187" y="551"/>
      <point x="194" y="558"/>
      <point x="209" y="584" type="curve" smooth="yes"/>
      <point x="274" y="699" type="line" smooth="yes"/>
      <point x="291" y="730"/>
      <point x="274" y="746"/>
      <point x="242" y="746" type="curve" smooth="yes"/>
      <point x="122" y="746" type="line" smooth="yes"/>
      <point x="85" y="746"/>
      <point x="79" y="736"/>
      <point x="70" y="712" type="curve" smooth="yes"/>
      <point x="26" y="591" type="line" smooth="yes"/>
      <point x="18" y="568"/>
      <point x="26" y="551"/>
      <point x="57" y="551" type="curve" smooth="yes"/>
    </contour>
  </outline>
</glyph>
<glyph name="micro" format="1">
  <advance width="568"/>
  <unicode hex="00B5"/>
  <note>
	mu
  </note>
  <outline>
    <contour>
      <point x="142" y="-177" type="line" smooth="yes"/>
      <point x="205" y="-177"/>
      <point x="225" y="-172"/>
      <point x="225" y="-127" type="curve" smooth="yes"/>
      <point x="225" y="0" type="line"/>
      <point x="240" y="-10"/>
      <point x="264" y="-15"/>
      <point x="288" y="-15" type="curve" smooth="yes"/>
      <point x="332" y="-15"/>
      <point x="363" y="11"/>
      <point x="377" y="46" type="curve"/>
      <point x="382" y="15" type="line" smooth="yes"/>
      <point x="384" y="2"/>
      <point x="394" y="0"/>
      <point x="408" y="0" type="curve" smooth="yes"/>
      <point x="511" y="0" type="line" smooth="yes"/>
      <point x="539" y="0"/>
      <point x="545" y="6"/>
      <point x="545" y="31" type="curve" smooth="yes"/>
      <point x="545" y="429" type="line" smooth="yes"/>
      <point x="545" y="463"/>
      <point x="532" y="480"/>
      <point x="492" y="480" type="curve" smooth="yes"/>
      <point x="425" y="480" type="line" smooth="yes"/>
      <point x="362" y="480"/>
      <point x="342" y="474"/>
      <point x="342" y="429" type="curve" smooth="yes"/>
      <point x="342" y="182" type="line" smooth="yes"/>
      <point x="342" y="143"/>
      <point x="324" y="121"/>
      <point x="280" y="121" type="curve" smooth="yes"/>
      <point x="244" y="121"/>
      <point x="225" y="141"/>
      <point x="225" y="178" type="curve" smooth="yes"/>
      <point x="225" y="429" type="line" smooth="yes"/>
      <point x="225" y="463"/>
      <point x="212" y="480"/>
      <point x="172" y="480" type="curve" smooth="yes"/>
      <point x="79" y="480" type="line" smooth="yes"/>
      <point x="37" y="480"/>
      <point x="23" y="465"/>
      <point x="23" y="429" type="curve" smooth="yes"/>
      <point x="23" y="-127" type="line" smooth="yes"/>
      <point x="23" y="-160"/>
      <point x="36" y="-177"/>
      <point x="75" y="-177" type="curve" smooth="yes"/>
    </contour>
  </outline>
</glyph>
<glyph name="paragraph" format="1">
  <advance width="787"/>
  <unicode hex="00B6"/>
  <note>
	paragraph
  </note>
  <outline>
    <contour>
      <point x="376" y="-100" type="line" smooth="yes"/>
      <point x="416" y="-100"/>
      <point x="430" y="-84"/>
      <point x="430" y="-50" type="curve" smooth="yes"/>
      <point x="430" y="533" type="line"/>
      <point x="497" y="533" type="line"/>
      <point x="497" y="-50" type="line" smooth="yes"/>
      <point x="497" y="-84"/>
      <point x="510" y="-100"/>
      <point x="549" y="-100" type="curve" smooth="yes"/>
      <point x="644" y="-100" type="line" smooth="yes"/>
      <point x="684" y="-100"/>
      <point x="698" y="-84"/>
      <point x="698" y="-50" type="curve" smooth="yes"/>
      <point x="698" y="534" type="line"/>
      <point x="715" y="534" type="line" smooth="yes"/>
      <point x="754" y="534"/>
      <point x="764" y="550"/>
      <point x="764" y="583" type="curve" smooth="yes"/>
      <point x="764" y="630" type="line" smooth="yes"/>
      <point x="764" y="663"/>
      <point x="754" y="680"/>
      <point x="715" y="680" type="curve" smooth="yes"/>
      <point x="307" y="680" type="line" smooth="yes"/>
      <point x="108" y="680"/>
      <point x="23" y="606"/>
      <point x="23" y="454" type="curve" smooth="yes"/>
      <point x="23" y="328"/>
      <point x="104" y="249"/>
      <point x="228" y="249" type="curve"/>
      <point x="228" y="-50" type="line" smooth="yes"/>
      <point x="228" y="-84"/>
      <point x="242" y="-100"/>
      <point x="281" y="-100" type="curve" smooth="yes"/>
    </contour>
  </outline>
</glyph>
<glyph name="cedilla" format="1">
  <advance width="288"/>
  <unicode hex="00B8"/>
  <note>
	cedilla
  </note>
  <outline>
    <contour>
      <point x="225" y="-243"/>
      <point x="265" y="-202"/>
      <point x="265" y="-155" type="curve" smooth="yes"/>
      <point x="265" y="-111"/>
      <point x="244" y="-89"/>
      <point x="199" y="-81" type="curve"/>
      <point x="222" y="-31" type="line" smooth="yes"/>
      <point x="227" y="-21"/>
      <point x="224" y="-15"/>
      <point x="212" y="-15" type="curve" smooth="yes"/>
      <point x="110" y="-15" type="line" smooth="yes"/>
      <point x="96" y="-15"/>
      <point x="92" y="-18"/>
      <point x="88" y="-29" type="curve" smooth="yes"/>
      <point x="61" y="-97" type="line" smooth="yes"/>
      <point x="57" y="-107"/>
      <point x="61" y="-113"/>
      <point x="71" y="-113" type="curve" smooth="yes"/>
      <point x="88" y="-113" type="line" smooth="yes"/>
      <point x="123" y="-113"/>
      <point x="139" y="-118"/>
      <point x="139" y="-139" type="curve" smooth="yes"/>
      <point x="139" y="-152"/>
      <point x="130" y="-160"/>
      <point x="106" y="-160" type="curve" smooth="yes"/>
      <point x="93" y="-160"/>
      <point x="76" y="-156"/>
      <point x="63" y="-150" type="curve" smooth="yes"/>
      <point x="55" y="-146"/>
      <point x="48" y="-145"/>
      <point x="45" y="-154" type="curve"/>
      <point x="25" y="-207" type="line" smooth="yes"/>
      <point x="21" y="-217"/>
      <point x="23" y="-219"/>
      <point x="35" y="-225" type="curve" smooth="yes"/>
      <point x="54" y="-235"/>
      <point x="98" y="-243"/>
      <point x="134" y="-243" type="curve" smooth="yes"/>
    </contour>
  </outline>
</glyph>
<glyph name="onehalf" format="1">
  <advance width="900"/>
  <unicode hex="00BD"/>
  <note>
	onehalf
  </note>
  <outline>
    <contour>
      <point x="289" y="0" type="line" smooth="yes"/>
      <point x="310" y="0"/>
      <point x="318" y="6"/>
      <point x="325" y="18" type="curve" smooth="yes"/>
      <point x="708" y="643" type="line"/>
      <point x="718" y="661"/>
      <point x="714" y="680"/>
      <point x="693" y="680" type="curve" smooth="yes"/>
      <point x="574" y="680" type="line" smooth="yes"/>
      <point x="555" y="680"/>
      <point x="546" y="672"/>
      <point x="536" y="656" type="curve" smooth="yes"/>
      <point x="157" y="37" type="line" smooth="yes"/>
      <point x="146" y="19"/>
      <point x="151" y="0"/>
      <point x="172" y="0" type="curve" smooth="yes"/>
    </contour>
    <contour>
      <point x="276" y="286" type="line" smooth="yes"/>
      <point x="300" y="286"/>
      <point x="305" y="295"/>
      <point x="305" y="316" type="curve" smooth="yes"/>
      <point x="305" y="351" type="line" smooth="yes"/>
      <point x="305" y="372"/>
      <point x="300" y="382"/>
      <point x="276" y="382" type="curve" smooth="yes"/>
      <point x="229" y="382" type="line"/>
      <point x="229" y="649" type="line" smooth="yes"/>
      <point x="229" y="669"/>
      <point x="220" y="680"/>
      <point x="196" y="680" type="curve" smooth="yes"/>
      <point x="136" y="680" type="line" smooth="yes"/>
      <point x="121" y="680"/>
      <point x="116" y="677"/>
      <point x="108" y="672" type="curve" smooth="yes"/>
      <point x="-4" y="604" type="line" smooth="yes"/>
      <point x="-12" y="599"/>
      <point x="-14" y="594"/>
      <point x="-9" y="587" type="curve"/>
      <point x="29" y="529" type="line" smooth="yes"/>
      <point x="35" y="520"/>
      <point x="41" y="521"/>
      <point x="48" y="525" type="curve"/>
      <point x="90" y="551" type="line"/>
      <point x="90" y="382" type="line"/>
      <point x="43" y="382" type="line" smooth="yes"/>
      <point x="19" y="382"/>
      <point x="12" y="372"/>
      <point x="12" y="351" type="curve" smooth="yes"/>
      <point x="12" y="316" type="line" smooth="yes"/>
      <point x="12" y="295"/>
      <point x="19" y="286"/>
      <point x="43" y="286" type="curve" smooth="yes"/>
    </contour>
    <contour>
      <point x="854" y="0" type="line" smooth="yes"/>
      <point x="876" y="0"/>
      <point x="882" y="9"/>
      <point x="882" y="28" type="curve" smooth="yes"/>
      <point x="882" y="76" type="line" smooth="yes"/>
      <point x="882" y="96"/>
      <point x="876" y="105"/>
      <point x="854" y="105" type="curve" smooth="yes"/>
      <point x="717" y="105" type="line"/>
      <point x="729" y="128"/>
      <point x="751" y="138"/>
      <point x="789" y="161" type="curve" smooth="yes"/>
      <point x="856" y="202"/>
      <point x="879" y="234"/>
      <point x="879" y="292" type="curve" smooth="yes"/>
      <point x="879" y="366"/>
      <point x="816" y="409"/>
      <point x="727" y="409" type="curve" smooth="yes"/>
      <point x="651" y="409"/>
      <point x="593" y="393"/>
      <point x="562" y="371" type="curve" smooth="yes"/>
      <point x="553" y="365"/>
      <point x="554" y="358"/>
      <point x="559" y="348" type="curve" smooth="yes"/>
      <point x="586" y="294" type="line" smooth="yes"/>
      <point x="591" y="284"/>
      <point x="597" y="286"/>
      <point x="607" y="291" type="curve" smooth="yes"/>
      <point x="628" y="301"/>
      <point x="655" y="312"/>
      <point x="689" y="312" type="curve" smooth="yes"/>
      <point x="725" y="312"/>
      <point x="740" y="299"/>
      <point x="740" y="276" type="curve" smooth="yes"/>
      <point x="740" y="243"/>
      <point x="724" y="237"/>
      <point x="664" y="198" type="curve" smooth="yes"/>
      <point x="585" y="147"/>
      <point x="553" y="109"/>
      <point x="553" y="60" type="curve" smooth="yes"/>
      <point x="553" y="27" type="line" smooth="yes"/>
      <point x="553" y="8"/>
      <point x="561" y="0"/>
      <point x="579" y="0" type="curve" smooth="yes"/>
    </contour>
  </outline>
</glyph>
<glyph name="threequarters" format="1">
  <advance width="882"/>
  <unicode hex="00BE"/>
  <note>
	threequarters
  </note>
  <outline>
    <contour>
      <point x="309" y="0" type="line" smooth="yes"/>
      <point x="330" y="0"/>
      <point x="338" y="6"/>
      <point x="345" y="18" type="curve" smooth="yes"/>
      <point x="728" y="643" type="line"/>
      <point x="738" y="661"/>
      <point x="734" y="680"/>
      <point x="713" y="680" type="curve" smooth="yes"/>
      <point x="594" y="680" type="line" smooth="yes"/>
      <point x="575" y="680"/>
      <point x="566" y="672"/>
      <point x="556" y="656" type="curve" smooth="yes"/>
      <point x="177" y="37" type="line" smooth="yes"/>
      <point x="166" y="19"/>
      <point x="171" y="0"/>
      <point x="192" y="0" type="curve" smooth="yes"/>
    </contour>
    <contour>
      <point x="295" y="279"/>
      <point x="356" y="330"/>
      <point x="356" y="406" type="curve" smooth="yes"/>
      <point x="356" y="446"/>
      <point x="340" y="476"/>
      <point x="305" y="493" type="curve"/>
      <point x="334" y="513"/>
      <point x="346" y="540"/>
      <point x="346" y="575" type="curve" smooth="yes"/>
      <point x="346" y="648"/>
      <point x="280" y="695"/>
      <point x="179" y="695" type="curve" smooth="yes"/>
      <point x="118" y="695"/>
      <point x="64" y="682"/>
      <point x="32" y="659" type="curve" smooth="yes"/>
      <point x="24" y="653"/>
      <point x="26" y="646"/>
      <point x="31" y="637" type="curve" smooth="yes"/>
      <point x="57" y="587" type="line" smooth="yes"/>
      <point x="62" y="577"/>
      <point x="67" y="579"/>
      <point x="78" y="584" type="curve" smooth="yes"/>
      <point x="99" y="594"/>
      <point x="118" y="604"/>
      <point x="152" y="604" type="curve" smooth="yes"/>
      <point x="188" y="604"/>
      <point x="199" y="591"/>
      <point x="199" y="570" type="curve" smooth="yes"/>
      <point x="199" y="550"/>
      <point x="191" y="536"/>
      <point x="166" y="536" type="curve" smooth="yes"/>
      <point x="133" y="536" type="line" smooth="yes"/>
      <point x="109" y="536"/>
      <point x="101" y="528"/>
      <point x="101" y="508" type="curve" smooth="yes"/>
      <point x="101" y="475" type="line" smooth="yes"/>
      <point x="101" y="454"/>
      <point x="109" y="445"/>
      <point x="133" y="445" type="curve" smooth="yes"/>
      <point x="171" y="445" type="line" smooth="yes"/>
      <point x="198" y="445"/>
      <point x="211" y="435"/>
      <point x="211" y="410" type="curve" smooth="yes"/>
      <point x="211" y="383"/>
      <point x="192" y="369"/>
      <point x="150" y="369" type="curve" smooth="yes"/>
      <point x="118" y="369"/>
      <point x="94" y="378"/>
      <point x="72" y="389" type="curve"/>
      <point x="63" y="394"/>
      <point x="57" y="396"/>
      <point x="52" y="386" type="curve" smooth="yes"/>
      <point x="25" y="336" type="line" smooth="yes"/>
      <point x="20" y="327"/>
      <point x="18" y="320"/>
      <point x="27" y="314" type="curve" smooth="yes"/>
      <point x="58" y="292"/>
      <point x="120" y="279"/>
      <point x="179" y="279" type="curve" smooth="yes"/>
    </contour>
    <contour>
      <point x="751" y="0" type="line" smooth="yes"/>
      <point x="783" y="0"/>
      <point x="795" y="4"/>
      <point x="795" y="28" type="curve" smooth="yes"/>
      <point x="795" y="79" type="line"/>
      <point x="822" y="79" type="line" smooth="yes"/>
      <point x="846" y="79"/>
      <point x="851" y="86"/>
      <point x="851" y="107" type="curve" smooth="yes"/>
      <point x="851" y="142" type="line" smooth="yes"/>
      <point x="851" y="162"/>
      <point x="846" y="171"/>
      <point x="822" y="171" type="curve" smooth="yes"/>
      <point x="795" y="171" type="line"/>
      <point x="795" y="364" type="line" smooth="yes"/>
      <point x="795" y="385"/>
      <point x="788" y="394"/>
      <point x="765" y="394" type="curve" smooth="yes"/>
      <point x="702" y="394" type="line" smooth="yes"/>
      <point x="668" y="394"/>
      <point x="654" y="394"/>
      <point x="640" y="377" type="curve" smooth="yes"/>
      <point x="479" y="181" type="line" smooth="yes"/>
      <point x="466" y="165"/>
      <point x="463" y="158"/>
      <point x="463" y="138" type="curve" smooth="yes"/>
      <point x="463" y="97" type="line" smooth="yes"/>
      <point x="463" y="85"/>
      <point x="469" y="79"/>
      <point x="482" y="79" type="curve" smooth="yes"/>
      <point x="648" y="79" type="line"/>
      <point x="648" y="28" type="line" smooth="yes"/>
      <point x="648" y="7"/>
      <point x="657" y="0"/>
      <point x="681" y="0" type="curve" smooth="yes"/>
    </contour>
    <contour>
      <point x="679" y="262" type="line"/>
      <point x="679" y="171" type="line"/>
      <point x="609" y="171" type="line"/>
    </contour>
  </outline>
</glyph>
<glyph name="questiondown" format="1">
  <advance width="559"/>
  <unicode hex="00BF"/>
  <note>
	questiondown
  </note>
  <outline>
    <contour>
      <point x="390" y="-139"/>
      <point x="464" y="-113"/>
      <point x="524" y="-71" type="curve" smooth="yes"/>
      <point x="539" y="-60"/>
      <point x="538" y="-49"/>
      <point x="529" y="-34" type="curve" smooth="yes"/>
      <point x="485" y="42" type="line" smooth="yes"/>
      <point x="476" y="58"/>
      <point x="465" y="59"/>
      <point x="448" y="47" type="curve" smooth="yes"/>
      <point x="414" y="24"/>
      <point x="365" y="5"/>
      <point x="312" y="5" type="curve" smooth="yes"/>
      <point x="252" y="5"/>
      <point x="224" y="27"/>
      <point x="224" y="63" type="curve" smooth="yes"/>
      <point x="224" y="99"/>
      <point x="239" y="110"/>
      <point x="294" y="145" type="curve" smooth="yes"/>
      <point x="376" y="199"/>
      <point x="417" y="245"/>
      <point x="417" y="330" type="curve" smooth="yes"/>
      <point x="417" y="340" type="line" smooth="yes"/>
      <point x="417" y="373"/>
      <point x="404" y="390"/>
      <point x="365" y="390" type="curve" smooth="yes"/>
      <point x="268" y="390" type="line" smooth="yes"/>
      <point x="228" y="390"/>
      <point x="215" y="373"/>
      <point x="215" y="340" type="curve" smooth="yes"/>
      <point x="215" y="332" type="line" smooth="yes"/>
      <point x="215" y="292"/>
      <point x="195" y="268"/>
      <point x="137" y="234" type="curve" smooth="yes"/>
      <point x="63" y="191"/>
      <point x="22" y="146"/>
      <point x="22" y="62" type="curve" smooth="yes"/>
      <point x="22" y="-68"/>
      <point x="131" y="-139"/>
      <point x="284" y="-139" type="curve" smooth="yes"/>
    </contour>
    <contour>
      <point x="353" y="432" type="line" smooth="yes"/>
      <point x="400" y="432"/>
      <point x="423" y="451"/>
      <point x="423" y="483" type="curve" smooth="yes"/>
      <point x="423" y="506" type="line" smooth="yes"/>
      <point x="423" y="537"/>
      <point x="400" y="556"/>
      <point x="353" y="556" type="curve" smooth="yes"/>
      <point x="280" y="556" type="line" smooth="yes"/>
      <point x="232" y="556"/>
      <point x="209" y="537"/>
      <point x="209" y="506" type="curve" smooth="yes"/>
      <point x="209" y="483" type="line" smooth="yes"/>
      <point x="209" y="451"/>
      <point x="232" y="432"/>
      <point x="280" y="432" type="curve" smooth="yes"/>
    </contour>
  </outline>
</glyph>
<glyph name="Agrave" format="1">
  <advance width="747"/>
  <unicode hex="00C0"/>
  <note>
	Agrave
  </note>
  <outline>
    <contour>
      <point x="198" y="0" type="line" smooth="yes"/>
      <point x="219" y="0"/>
      <point x="228" y="8"/>
      <point x="234" y="24" type="curve" smooth="yes"/>
      <point x="268" y="120" type="line"/>
      <point x="478" y="120" type="line"/>
      <point x="513" y="24" type="line" smooth="yes"/>
      <point x="519" y="8"/>
      <point x="528" y="0"/>
      <point x="548" y="0" type="curve" smooth="yes"/>
      <point x="703" y="0" type="line" smooth="yes"/>
      <point x="724" y="0"/>
      <point x="728" y="17"/>
      <point x="719" y="38" type="curve" smooth="yes"/>
      <point x="465" y="646" type="line" smooth="yes"/>
      <point x="455" y="671"/>
      <point x="445" y="680"/>
      <point x="419" y="680" type="curve" smooth="yes"/>
      <point x="328" y="680" type="line" smooth="yes"/>
      <point x="303" y="680"/>
      <point x="292" y="671"/>
      <point x="282" y="646" type="curve" smooth="yes"/>
      <point x="28" y="38" type="line" smooth="yes"/>
      <point x="19" y="17"/>
      <point x="22" y="0"/>
      <point x="44" y="0" type="curve" smooth="yes"/>
    </contour>
    <contour>
      <point x="373" y="426" type="line"/>
      <point x="434" y="256" type="line"/>
      <point x="312" y="256" type="line"/>
    </contour>
    <contour>
      <point x="425" y="717" type="line" smooth="yes"/>
      <point x="456" y="717"/>
      <point x="465" y="734"/>
      <point x="456" y="757" type="curve" smooth="yes"/>
      <point x="412" y="878" type="line" smooth="yes"/>
      <point x="403" y="903"/>
      <point x="397" y="912"/>
      <point x="360" y="912" type="curve" smooth="yes"/>
      <point x="240" y="912" type="line" smooth="yes"/>
      <point x="208" y="912"/>
      <point x="191" y="896"/>
      <point x="208" y="865" type="curve" smooth="yes"/>
      <point x="273" y="750" type="line" smooth="yes"/>
      <point x="288" y="724"/>
      <point x="296" y="717"/>
      <point x="336" y="717" type="curve" smooth="yes"/>
    </contour>
  </outline>
</glyph>
<glyph name="Atilde" format="1">
  <advance width="747"/>
  <unicode hex="00C3"/>
  <note>
	Atilde
  </note>
  <outline>
    <contour>
      <point x="198" y="0" type="line" smooth="yes"/>
      <point x="219" y="0"/>
      <point x="228" y="8"/>
      <point x="234" y="24" type="curve" smooth="yes"/>
      <point x="268" y="120" type="line"/>
      <point x="478" y="120" type="line"/>
      <point x="513" y="24" type="line" smooth="yes"/>
      <point x="519" y="8"/>
      <point x="528" y="0"/>
      <point x="548" y="0" type="curve" smooth="yes"/>
      <point x="703" y="0" type="line" smooth="yes"/>
      <point x="724" y="0"/>
      <point x="728" y="17"/>
      <point x="719" y="38" type="curve" smooth="yes"/>
      <point x="465" y="646" type="line" smooth="yes"/>
      <point x="455" y="671"/>
      <point x="445" y="680"/>
      <point x="419" y="680" type="curve" smooth="yes"/>
      <point x="328" y="680" type="line" smooth="yes"/>
      <point x="303" y="680"/>
      <point x="292" y="671"/>
      <point x="282" y="646" type="curve" smooth="yes"/>
      <point x="28" y="38" type="line" smooth="yes"/>
      <point x="19" y="17"/>
      <point x="22" y="0"/>
      <point x="44" y="0" type="curve" smooth="yes"/>
    </contour>
    <contour>
      <point x="373" y="426" type="line"/>
      <point x="434" y="256" type="line"/>
      <point x="312" y="256" type="line"/>
    </contour>
    <contour>
      <point x="527" y="717"/>
      <point x="559" y="744"/>
      <point x="598" y="801" type="curve" smooth="yes"/>
      <point x="620" y="832"/>
      <point x="616" y="848"/>
      <point x="579" y="876" type="curve" smooth="yes"/>
      <point x="541" y="904"/>
      <point x="521" y="910"/>
      <point x="504" y="889" type="curve" smooth="yes"/>
      <point x="483" y="864"/>
      <point x="472" y="855"/>
      <point x="448" y="855" type="curve" smooth="yes"/>
      <point x="400" y="855"/>
      <point x="363" y="905"/>
      <point x="284" y="905" type="curve" smooth="yes"/>
      <point x="227" y="905"/>
      <point x="195" y="875"/>
      <point x="157" y="823" type="curve" smooth="yes"/>
      <point x="135" y="792"/>
      <point x="140" y="777"/>
      <point x="176" y="750" type="curve" smooth="yes"/>
      <point x="213" y="721"/>
      <point x="234" y="714"/>
      <point x="251" y="735" type="curve"/>
      <point x="271" y="758"/>
      <point x="283" y="767"/>
      <point x="308" y="767" type="curve" smooth="yes"/>
      <point x="359" y="767"/>
      <point x="404" y="717"/>
      <point x="467" y="717" type="curve" smooth="yes"/>
    </contour>
  </outline>
</glyph>
<glyph name="AE" format="1">
  <advance width="886"/>
  <unicode hex="00C6"/>
  <note>
	AE
  </note>
  <outline>
    <contour>
      <point x="176" y="0" type="line" smooth="yes"/>
      <point x="205" y="0"/>
      <point x="226" y="-1"/>
      <point x="233" y="22" type="curve"/>
      <point x="268" y="122" type="line"/>
      <point x="388" y="122" type="line"/>
      <point x="388" y="50" type="line" smooth="yes"/>
      <point x="388" y="16"/>
      <point x="402" y="0"/>
      <point x="441" y="0" type="curve" smooth="yes"/>
      <point x="813" y="0" type="line" smooth="yes"/>
      <point x="852" y="0"/>
      <point x="862" y="16"/>
      <point x="862" y="49" type="curve" smooth="yes"/>
      <point x="862" y="95" type="line" smooth="yes"/>
      <point x="862" y="129"/>
      <point x="852" y="145"/>
      <point x="813" y="145" type="curve" smooth="yes"/>
      <point x="575" y="145" type="line"/>
      <point x="575" y="268" type="line"/>
      <point x="725" y="268" type="line" smooth="yes"/>
      <point x="764" y="268"/>
      <point x="773" y="284"/>
      <point x="773" y="318" type="curve" smooth="yes"/>
      <point x="773" y="362" type="line" smooth="yes"/>
      <point x="773" y="396"/>
      <point x="764" y="412"/>
      <point x="725" y="412" type="curve" smooth="yes"/>
      <point x="575" y="412" type="line"/>
      <point x="575" y="534" type="line"/>
      <point x="814" y="534" type="line" smooth="yes"/>
      <point x="853" y="534"/>
      <point x="863" y="550"/>
      <point x="863" y="584" type="curve" smooth="yes"/>
      <point x="863" y="630" type="line" smooth="yes"/>
      <point x="863" y="664"/>
      <point x="853" y="680"/>
      <point x="814" y="680" type="curve" smooth="yes"/>
      <point x="328" y="680" type="line" smooth="yes"/>
      <point x="302" y="680"/>
      <point x="292" y="671"/>
      <point x="282" y="646" type="curve" smooth="yes"/>
      <point x="28" y="38" type="line" smooth="yes"/>
      <point x="19" y="17"/>
      <point x="23" y="0"/>
      <point x="44" y="0" type="curve" smooth="yes"/>
    </contour>
    <contour>
      <point x="388" y="505" type="line"/>
      <point x="388" y="256" type="line"/>
      <point x="306" y="256" type="line"/>
    </contour>
  </outline>
</glyph>
<glyph name="Ccedilla" format="1">
  <advance width="679"/>
  <unicode hex="00C7"/>
  <note>
	Ccedilla
  </note>
  <outline>
    <contour>
      <point x="505" y="-15"/>
      <point x="590" y="5"/>
      <point x="645" y="43" type="curve" smooth="yes"/>
      <point x="660" y="54"/>
      <point x="659" y="64"/>
      <point x="651" y="79" type="curve"/>
      <point x="606" y="156" type="line" smooth="yes"/>
      <point x="596" y="173"/>
      <point x="587" y="170"/>
      <point x="570" y="161" type="curve" smooth="yes"/>
      <point x="534" y="142"/>
      <point x="490" y="128"/>
      <point x="425" y="128" type="curve" smooth="yes"/>
      <point x="305" y="128"/>
      <point x="224" y="197"/>
      <point x="224" y="340" type="curve" smooth="yes"/>
      <point x="224" y="481"/>
      <point x="296" y="551"/>
      <point x="418" y="551" type="curve" smooth="yes"/>
      <point x="482" y="551"/>
      <point x="526" y="536"/>
      <point x="559" y="518" type="curve" smooth="yes"/>
      <point x="576" y="509"/>
      <point x="585" y="506"/>
      <point x="595" y="524" type="curve" smooth="yes"/>
      <point x="638" y="597" type="line" smooth="yes"/>
      <point x="647" y="613"/>
      <point x="649" y="626"/>
      <point x="634" y="636" type="curve" smooth="yes"/>
      <point x="579" y="673"/>
      <point x="495" y="695"/>
      <point x="391" y="695" type="curve" smooth="yes"/>
      <point x="157" y="695"/>
      <point x="23" y="575"/>
      <point x="23" y="340" type="curve" smooth="yes"/>
      <point x="23" y="104"/>
      <point x="164" y="-15"/>
      <point x="397" y="-15" type="curve" smooth="yes"/>
    </contour>
    <contour>
      <point x="461" y="-233"/>
      <point x="501" y="-192"/>
      <point x="501" y="-145" type="curve" smooth="yes"/>
      <point x="501" y="-101"/>
      <point x="479" y="-79"/>
      <point x="435" y="-71" type="curve"/>
      <point x="458" y="-21" type="line" smooth="yes"/>
      <point x="463" y="-11"/>
      <point x="460" y="-5"/>
      <point x="448" y="-5" type="curve" smooth="yes"/>
      <point x="345" y="-5" type="line" smooth="yes"/>
      <point x="331" y="-5"/>
      <point x="327" y="-8"/>
      <point x="323" y="-19" type="curve" smooth="yes"/>
      <point x="296" y="-87" type="line" smooth="yes"/>
      <point x="292" y="-97"/>
      <point x="296" y="-103"/>
      <point x="306" y="-103" type="curve" smooth="yes"/>
      <point x="323" y="-103" type="line" smooth="yes"/>
      <point x="359" y="-103"/>
      <point x="375" y="-108"/>
      <point x="375" y="-129" type="curve" smooth="yes"/>
      <point x="375" y="-142"/>
      <point x="366" y="-150"/>
      <point x="342" y="-150" type="curve" smooth="yes"/>
      <point x="329" y="-150"/>
      <point x="311" y="-146"/>
      <point x="299" y="-140" type="curve"/>
      <point x="290" y="-136"/>
      <point x="285" y="-135"/>
      <point x="281" y="-144" type="curve"/>
      <point x="260" y="-197" type="line" smooth="yes"/>
      <point x="256" y="-207"/>
      <point x="258" y="-209"/>
      <point x="270" y="-215" type="curve" smooth="yes"/>
      <point x="290" y="-225"/>
      <point x="334" y="-233"/>
      <point x="370" y="-233" type="curve" smooth="yes"/>
    </contour>
  </outline>
</glyph>
<glyph name="Eacute" format="1">
  <advance width="571"/>
  <unicode hex="00C9"/>
  <note>
	Eacute
  </note>
  <outline>
    <contour>
      <point x="509" y="0" type="line" smooth="yes"/>
      <point x="548" y="0"/>
      <point x="557" y="16"/>
      <point x="557" y="49" type="curve" smooth="yes"/>
      <point x="557" y="95" type="line" smooth="yes"/>
      <point x="557" y="129"/>
      <point x="548" y="145"/>
      <point x="509" y="145" type="curve" smooth="yes"/>
      <point x="245" y="145" type="line"/>
      <point x="245" y="268" type="line"/>
      <point x="420" y="268" type="line" smooth="yes"/>
      <point x="459" y="268"/>
      <point x="469" y="284"/>
      <point x="469" y="318" type="curve" smooth="yes"/>
      <point x="469" y="362" type="line" smooth="yes"/>
      <point x="469" y="396"/>
      <point x="459" y="412"/>
      <point x="420" y="412" type="curve" smooth="yes"/>
      <point x="245" y="412" type="line"/>
      <point x="245" y="534" type="line"/>
      <point x="510" y="534" type="line" smooth="yes"/>
      <point x="549" y="534"/>
      <point x="558" y="550"/>
      <point x="558" y="584" type="curve" smooth="yes"/>
      <point x="558" y="630" type="line" smooth="yes"/>
      <point x="558" y="664"/>
      <point x="549" y="680"/>
      <point x="510" y="680" type="curve" smooth="yes"/>
      <point x="95" y="680" type="line" smooth="yes"/>
      <point x="56" y="680"/>
      <point x="43" y="663"/>
      <point x="43" y="629" type="curve" smooth="yes"/>
      <point x="43" y="50" type="line" smooth="yes"/>
      <point x="43" y="16"/>
      <point x="56" y="0"/>
      <point x="95" y="0" type="curve" smooth="yes"/>
    </contour>
    <contour>
      <point x="314" y="741" type="line" smooth="yes"/>
      <point x="354" y="741"/>
      <point x="362" y="748"/>
      <point x="377" y="774" type="curve" smooth="yes"/>
      <point x="442" y="889" type="line" smooth="yes"/>
      <point x="459" y="920"/>
      <point x="442" y="936"/>
      <point x="410" y="936" type="curve" smooth="yes"/>
      <point x="290" y="936" type="line" smooth="yes"/>
      <point x="253" y="936"/>
      <point x="247" y="926"/>
      <point x="238" y="902" type="curve" smooth="yes"/>
      <point x="194" y="781" type="line" smooth="yes"/>
      <point x="186" y="758"/>
      <point x="194" y="741"/>
      <point x="225" y="741" type="curve" smooth="yes"/>
    </contour>
  </outline>
</glyph>
<glyph name="Edieresis" format="1">
  <advance width="571"/>
  <unicode hex="00CB"/>
  <note>
	Edieresis
  </note>
  <outline>
    <contour>
      <point x="509" y="0" type="line" smooth="yes"/>
      <point x="548" y="0"/>
      <point x="557" y="16"/>
      <point x="557" y="49" type="curve" smooth="yes"/>
      <point x="557" y="95" type="line" smooth="yes"/>
      <point x="557" y="129"/>
      <point x="548" y="145"/>
      <point x="509" y="145" type="curve" smooth="yes"/>
      <point x="245" y="145" type="line"/>
      <point x="245" y="268" type="line"/>
      <point x="420" y="268" type="line" smooth="yes"/>
      <point x="459" y="268"/>
      <point x="469" y="284"/>
      <point x="469" y="318" type="curve" smooth="yes"/>
      <point x="469" y="362" type="line" smooth="yes"/>
      <point x="469" y="396"/>
      <point x="459" y="412"/>
      <point x="420" y="412" type="curve" smooth="yes"/>
      <point x="245" y="412" type="line"/>
      <point x="245" y="534" type="line"/>
      <point x="510" y="534" type="line" smooth="yes"/>
      <point x="549" y="534"/>
      <point x="558" y="550"/>
      <point x="558" y="584" type="curve" smooth="yes"/>
      <point x="558" y="630" type="line" smooth="yes"/>
      <point x="558" y="664"/>
      <point x="549" y="680"/>
      <point x="510" y="680" type="curve" smooth="yes"/>
      <point x="95" y="680" type="line" smooth="yes"/>
      <point x="56" y="680"/>
      <point x="43" y="663"/>
      <point x="43" y="629" type="curve" smooth="yes"/>
      <point x="43" y="50" type="line" smooth="yes"/>
      <point x="43" y="16"/>
      <point x="56" y="0"/>
      <point x="95" y="0" type="curve" smooth="yes"/>
    </contour>
    <contour>
      <point x="204" y="721" type="line" smooth="yes"/>
      <point x="241" y="721"/>
      <point x="265" y="750"/>
      <point x="265" y="785" type="curve" smooth="yes"/>
      <point x="265" y="810" type="line" smooth="yes"/>
      <point x="265" y="846"/>
      <point x="240" y="874"/>
      <point x="204" y="874" type="curve" smooth="yes"/>
      <point x="177" y="874" type="line" smooth="yes"/>
      <point x="141" y="874"/>
      <point x="116" y="846"/>
      <point x="116" y="810" type="curve" smooth="yes"/>
      <point x="116" y="785" type="line" smooth="yes"/>
      <point x="116" y="750"/>
      <point x="141" y="721"/>
      <point x="177" y="721" type="curve" smooth="yes"/>
    </contour>
    <contour>
      <point x="418" y="721" type="line" smooth="yes"/>
      <point x="455" y="721"/>
      <point x="479" y="750"/>
      <point x="479" y="785" type="curve" smooth="yes"/>
      <point x="479" y="810" type="line" smooth="yes"/>
      <point x="479" y="846"/>
      <point x="454" y="874"/>
      <point x="418" y="874" type="curve" smooth="yes"/>
      <point x="391" y="874" type="line" smooth="yes"/>
      <point x="356" y="874"/>
      <point x="330" y="846"/>
      <point x="330" y="810" type="curve" smooth="yes"/>
      <point x="330" y="785" type="line" smooth="yes"/>
      <point x="330" y="750"/>
      <point x="356" y="721"/>
      <point x="391" y="721" type="curve" smooth="yes"/>
    </contour>
  </outline>
</glyph>
<glyph name="Ograve" format="1">
  <advance width="756"/>
  <unicode hex="00D2"/>
  <note>
	Ograve
  </note>
  <outline>
    <contour>
      <point x="612" y="-15"/>
      <point x="733" y="116"/>
      <point x="733" y="340" type="curve" smooth="yes"/>
      <point x="733" y="564"/>
      <point x="612" y="695"/>
      <point x="378" y="695" type="curve" smooth="yes"/>
      <point x="144" y="695"/>
      <point x="23" y="564"/>
      <point x="23" y="340" type="curve" smooth="yes"/>
      <point x="23" y="116"/>
      <point x="144" y="-15"/>
      <point x="378" y="-15" type="curve" smooth="yes"/>
    </contour>
    <contour>
      <point x="272" y="128"/>
      <point x="224" y="201"/>
      <point x="224" y="340" type="curve" smooth="yes"/>
      <point x="224" y="479"/>
      <point x="272" y="551"/>
      <point x="378" y="551" type="curve" smooth="yes"/>
      <point x="484" y="551"/>
      <point x="532" y="479"/>
      <point x="532" y="340" type="curve" smooth="yes"/>
      <point x="532" y="201"/>
      <point x="484" y="128"/>
      <point x="378" y="128" type="curve" smooth="yes"/>
    </contour>
    <contour>
      <point x="445" y="741" type="line" smooth="yes"/>
      <point x="476" y="741"/>
      <point x="485" y="758"/>
      <point x="476" y="781" type="curve" smooth="yes"/>
      <point x="432" y="902" type="line" smooth="yes"/>
      <point x="423" y="927"/>
      <point x="417" y="936"/>
      <point x="380" y="936" type="curve" smooth="yes"/>
      <point x="260" y="936" type="line" smooth="yes"/>
      <point x="228" y="936"/>
      <point x="211" y="920"/>
      <point x="228" y="889" type="curve" smooth="yes"/>
      <point x="293" y="774" type="line" smooth="yes"/>
      <point x="308" y="748"/>
      <point x="316" y="741"/>
      <point x="356" y="741" type="curve" smooth="yes"/>
    </contour>
  </outline>
</glyph>
<glyph name="Otilde" format="1">
  <advance width="756"/>
  <unicode hex="00D5"/>
  <note>
	Otilde
  </note>
  <outline>
    <contour>
      <point x="612" y="-15"/>
      <point x="733" y="116"/>
      <point x="733" y="340" type="curve" smooth="yes"/>
      <point x="733" y="564"/>
      <point x="612" y="695"/>
      <point x="378" y="695" type="curve" smooth="yes"/>
      <point x="144" y="695"/>
      <point x="23" y="564"/>
      <point x="23" y="340" type="curve" smooth="yes"/>
      <point x="23" y="116"/>
      <point x="144" y="-15"/>
      <point x="378" y="-15" type="curve" smooth="yes"/>
    </contour>
    <contour>
      <point x="272" y="128"/>
      <point x="224" y="201"/>
      <point x="224" y="340" type="curve" smooth="yes"/>
      <point x="224" y="479"/>
      <point x="272" y="551"/>
      <point x="378" y="551" type="curve" smooth="yes"/>
      <point x="484" y="551"/>
      <point x="532" y="479"/>
      <point x="532" y="340" type="curve" smooth="yes"/>
      <point x="532" y="201"/>
      <point x="484" y="128"/>
      <point x="378" y="128" type="curve" smooth="yes"/>
    </contour>
    <contour>
      <point x="532" y="741"/>
      <point x="564" y="768"/>
      <point x="603" y="825" type="curve" smooth="yes"/>
      <point x="625" y="856"/>
      <point x="621" y="872"/>
      <point x="584" y="900" type="curve" smooth="yes"/>
      <point x="546" y="928"/>
      <point x="526" y="934"/>
      <point x="509" y="913" type="curve" smooth="yes"/>
      <point x="488" y="888"/>
      <point x="477" y="879"/>
      <point x="453" y="879" type="curve" smooth="yes"/>
      <point x="405" y="879"/>
      <point x="368" y="929"/>
      <point x="289" y="929" type="curve" smooth="yes"/>
      <point x="232" y="929"/>
      <point x="200" y="899"/>
      <point x="162" y="847" type="curve" smooth="yes"/>
      <point x="140" y="816"/>
      <point x="145" y="801"/>
      <point x="181" y="774" type="curve" smooth="yes"/>
      <point x="218" y="745"/>
      <point x="239" y="738"/>
      <point x="256" y="759" type="curve"/>
      <point x="276" y="782"/>
      <point x="288" y="791"/>
      <point x="313" y="791" type="curve" smooth="yes"/>
      <point x="364" y="791"/>
      <point x="409" y="741"/>
      <point x="472" y="741" type="curve" smooth="yes"/>
    </contour>
  </outline>
</glyph>
<glyph name="multiply" format="1">
  <advance width="400"/>
  <unicode hex="00D7"/>
  <note>
	multiply
  </note>
  <outline>
    <contour>
      <point x="210" y="206" type="line"/>
      <point x="272" y="144" type="line" smooth="yes"/>
      <point x="298" y="118"/>
      <point x="315" y="123"/>
      <point x="338" y="146" type="curve" smooth="yes"/>
      <point x="368" y="175" type="line" smooth="yes"/>
      <point x="391" y="197"/>
      <point x="396" y="216"/>
      <point x="369" y="242" type="curve" smooth="yes"/>
      <point x="308" y="303" type="line"/>
      <point x="369" y="365" type="line" smooth="yes"/>
      <point x="396" y="391"/>
      <point x="391" y="410"/>
      <point x="368" y="432" type="curve"/>
      <point x="339" y="462" type="line" smooth="yes"/>
      <point x="316" y="485"/>
      <point x="298" y="489"/>
      <point x="272" y="463" type="curve" smooth="yes"/>
      <point x="210" y="401" type="line"/>
      <point x="148" y="463" type="line" smooth="yes"/>
      <point x="122" y="489"/>
      <point x="104" y="485"/>
      <point x="81" y="462" type="curve" smooth="yes"/>
      <point x="51" y="432" type="line" smooth="yes"/>
      <point x="29" y="410"/>
      <point x="24" y="391"/>
      <point x="51" y="365" type="curve" smooth="yes"/>
      <point x="112" y="303" type="line"/>
      <point x="51" y="242" type="line" smooth="yes"/>
      <point x="24" y="216"/>
      <point x="29" y="198"/>
      <point x="52" y="175" type="curve" smooth="yes"/>
      <point x="82" y="146" type="line"/>
      <point x="104" y="123"/>
      <point x="123" y="118"/>
      <point x="148" y="144" type="curve" smooth="yes"/>
    </contour>
  </outline>
</glyph>
<glyph name="Thorn" format="1">
  <advance width="635"/>
  <unicode hex="00DE"/>
  <note>
	Thorn
  </note>
  <outline>
    <contour>
      <point x="192" y="0" type="line" smooth="yes"/>
      <point x="232" y="0"/>
      <point x="245" y="16"/>
      <point x="245" y="50" type="curve" smooth="yes"/>
      <point x="245" y="106" type="line"/>
      <point x="340" y="106" type="line" smooth="yes"/>
      <point x="531" y="106"/>
      <point x="612" y="188"/>
      <point x="612" y="340" type="curve" smooth="yes"/>
      <point x="612" y="491"/>
      <point x="531" y="574"/>
      <point x="340" y="574" type="curve" smooth="yes"/>
      <point x="245" y="574" type="line"/>
      <point x="245" y="629" type="line" smooth="yes"/>
      <point x="245" y="663"/>
      <point x="232" y="680"/>
      <point x="192" y="680" type="curve" smooth="yes"/>
      <point x="95" y="680" type="line" smooth="yes"/>
      <point x="56" y="680"/>
      <point x="43" y="663"/>
      <point x="43" y="629" type="curve" smooth="yes"/>
      <point x="43" y="50" type="line" smooth="yes"/>
      <point x="43" y="16"/>
      <point x="56" y="0"/>
      <point x="95" y="0" type="curve" smooth="yes"/>
    </contour>
    <contour>
      <point x="245" y="428" type="line"/>
      <point x="324" y="428" type="line" smooth="yes"/>
      <point x="378" y="428"/>
      <point x="410" y="400"/>
      <point x="410" y="340" type="curve" smooth="yes"/>
      <point x="410" y="280"/>
      <point x="378" y="252"/>
      <point x="324" y="252" type="curve" smooth="yes"/>
      <point x="245" y="252" type="line"/>
    </contour>
  </outline>
</glyph>
<glyph name="germandbls" format="1">
  <advance width="658"/>
  <unicode hex="00DF"/>
  <note>
	germandbls
  </note>
  <outline>
    <contour>
      <point x="565" y="-15"/>
      <point x="635" y="63"/>
      <point x="635" y="193" type="curve" smooth="yes"/>
      <point x="635" y="264"/>
      <point x="605" y="329"/>
      <point x="539" y="351" type="curve"/>
      <point x="587" y="371"/>
      <point x="617" y="428"/>
      <point x="617" y="501" type="curve" smooth="yes"/>
      <point x="617" y="637"/>
      <point x="521" y="720"/>
      <point x="326" y="720" type="curve" smooth="yes"/>
      <point x="131" y="720"/>
      <point x="38" y="626"/>
      <point x="38" y="485" type="curve" smooth="yes"/>
      <point x="38" y="50" type="line" smooth="yes"/>
      <point x="38" y="16"/>
      <point x="51" y="0"/>
      <point x="91" y="0" type="curve" smooth="yes"/>
      <point x="186" y="0" type="line" smooth="yes"/>
      <point x="226" y="0"/>
      <point x="240" y="16"/>
      <point x="240" y="50" type="curve" smooth="yes"/>
      <point x="240" y="473" type="line" smooth="yes"/>
      <point x="240" y="523"/>
      <point x="269" y="556"/>
      <point x="328" y="556" type="curve" smooth="yes"/>
      <point x="393" y="556"/>
      <point x="415" y="533"/>
      <point x="415" y="482" type="curve" smooth="yes"/>
      <point x="415" y="429"/>
      <point x="388" y="413"/>
      <point x="330" y="413" type="curve" smooth="yes"/>
      <point x="300" y="413"/>
      <point x="289" y="405"/>
      <point x="289" y="379" type="curve" smooth="yes"/>
      <point x="289" y="314" type="line" smooth="yes"/>
      <point x="289" y="288"/>
      <point x="305" y="280"/>
      <point x="334" y="280" type="curve" smooth="yes"/>
      <point x="397" y="280"/>
      <point x="430" y="267"/>
      <point x="430" y="206" type="curve" smooth="yes"/>
      <point x="430" y="159"/>
      <point x="414" y="129"/>
      <point x="377" y="130" type="curve" smooth="yes"/>
      <point x="360" y="130"/>
      <point x="346" y="134"/>
      <point x="335" y="141" type="curve" smooth="yes"/>
      <point x="325" y="147"/>
      <point x="317" y="147"/>
      <point x="311" y="136" type="curve" smooth="yes"/>
      <point x="267" y="61" type="line" smooth="yes"/>
      <point x="259" y="47"/>
      <point x="259" y="34"/>
      <point x="271" y="26" type="curve" smooth="yes"/>
      <point x="311" y="-1"/>
      <point x="365" y="-15"/>
      <point x="429" y="-15" type="curve" smooth="yes"/>
    </contour>
  </outline>
</glyph>
<glyph name="ae" format="1">
  <advance width="931"/>
  <unicode hex="00E6"/>
  <note>
	ae
  </note>
  <outline>
    <contour>
      <point x="329" y="-15"/>
      <point x="406" y="16"/>
      <point x="457" y="76" type="curve"/>
      <point x="498" y="15"/>
      <point x="569" y="-15"/>
      <point x="661" y="-15" type="curve" smooth="yes"/>
      <point x="752" y="-15"/>
      <point x="807" y="2"/>
      <point x="863" y="36" type="curve" smooth="yes"/>
      <point x="878" y="45"/>
      <point x="878" y="54"/>
      <point x="870" y="68" type="curve" smooth="yes"/>
      <point x="836" y="132" type="line" smooth="yes"/>
      <point x="829" y="145"/>
      <point x="822" y="148"/>
      <point x="805" y="139" type="curve" smooth="yes"/>
      <point x="774" y="123"/>
      <point x="743" y="109"/>
      <point x="683" y="109" type="curve" smooth="yes"/>
      <point x="603" y="109"/>
      <point x="555" y="143"/>
      <point x="555" y="198" type="curve"/>
      <point x="865" y="198" type="line" smooth="yes"/>
      <point x="897" y="198"/>
      <point x="908" y="215"/>
      <point x="908" y="248" type="curve" smooth="yes"/>
      <point x="908" y="399"/>
      <point x="820" y="495"/>
      <point x="639" y="495" type="curve" smooth="yes"/>
      <point x="558" y="495"/>
      <point x="494" y="467"/>
      <point x="457" y="416" type="curve"/>
      <point x="422" y="467"/>
      <point x="357" y="495"/>
      <point x="264" y="495" type="curve" smooth="yes"/>
      <point x="189" y="495"/>
      <point x="124" y="483"/>
      <point x="72" y="450" type="curve" smooth="yes"/>
      <point x="57" y="440"/>
      <point x="57" y="431"/>
      <point x="64" y="417" type="curve" smooth="yes"/>
      <point x="97" y="354" type="line" smooth="yes"/>
      <point x="104" y="340"/>
      <point x="112" y="337"/>
      <point x="130" y="346" type="curve" smooth="yes"/>
      <point x="161" y="361"/>
      <point x="211" y="371"/>
      <point x="255" y="371" type="curve" smooth="yes"/>
      <point x="344" y="371"/>
      <point x="358" y="343"/>
      <point x="358" y="309" type="curve" smooth="yes"/>
      <point x="358" y="298" type="line"/>
      <point x="230" y="298" type="line" smooth="yes"/>
      <point x="96" y="298"/>
      <point x="23" y="251"/>
      <point x="23" y="142" type="curve" smooth="yes"/>
      <point x="23" y="33"/>
      <point x="110" y="-15"/>
      <point x="236" y="-15" type="curve" smooth="yes"/>
    </contour>
    <contour>
      <point x="217" y="109"/>
      <point x="191" y="122"/>
      <point x="191" y="153" type="curve" smooth="yes"/>
      <point x="191" y="189"/>
      <point x="212" y="200"/>
      <point x="250" y="200" type="curve" smooth="yes"/>
      <point x="358" y="200" type="line"/>
      <point x="358" y="187" type="line" smooth="yes"/>
      <point x="358" y="137"/>
      <point x="327" y="109"/>
      <point x="259" y="109" type="curve" smooth="yes"/>
    </contour>
    <contour>
      <point x="555" y="347"/>
      <point x="582" y="377"/>
      <point x="642" y="377" type="curve" smooth="yes"/>
      <point x="704" y="377"/>
      <point x="730" y="347"/>
      <point x="730" y="297" type="curve"/>
      <point x="555" y="297" type="line"/>
    </contour>
  </outline>
</glyph>
<glyph name="iacute" format="1">
  <advance width="302"/>
  <unicode hex="00ED"/>
  <note>
	iacute
  </note>
  <outline>
    <contour>
      <point x="199" y="0" type="line" smooth="yes"/>
      <point x="239" y="0"/>
      <point x="252" y="16"/>
      <point x="252" y="50" type="curve" smooth="yes"/>
      <point x="252" y="429" type="line" smooth="yes"/>
      <point x="252" y="463"/>
      <point x="239" y="480"/>
      <point x="199" y="480" type="curve" smooth="yes"/>
      <point x="102" y="480" type="line" smooth="yes"/>
      <point x="63" y="480"/>
      <point x="50" y="463"/>
      <point x="50" y="429" type="curve" smooth="yes"/>
      <point x="50" y="50" type="line" smooth="yes"/>
      <point x="50" y="16"/>
      <point x="63" y="0"/>
      <point x="102" y="0" type="curve" smooth="yes"/>
    </contour>
    <contour>
      <point x="171" y="541" type="line" smooth="yes"/>
      <point x="211" y="541"/>
      <point x="219" y="548"/>
      <point x="234" y="574" type="curve" smooth="yes"/>
      <point x="299" y="689" type="line" smooth="yes"/>
      <point x="316" y="720"/>
      <point x="299" y="736"/>
      <point x="267" y="736" type="curve" smooth="yes"/>
      <point x="147" y="736" type="line" smooth="yes"/>
      <point x="110" y="736"/>
      <point x="104" y="726"/>
      <point x="95" y="702" type="curve" smooth="yes"/>
      <point x="51" y="581" type="line" smooth="yes"/>
      <point x="43" y="558"/>
      <point x="51" y="541"/>
      <point x="82" y="541" type="curve" smooth="yes"/>
    </contour>
  </outline>
</glyph>
<glyph name="icircumflex" format="1">
  <advance width="302"/>
  <unicode hex="00EE"/>
  <note>
	icircumflex
  </note>
  <outline>
    <contour>
      <point x="199" y="0" type="line" smooth="yes"/>
      <point x="239" y="0"/>
      <point x="252" y="16"/>
      <point x="252" y="50" type="curve" smooth="yes"/>
      <point x="252" y="429" type="line" smooth="yes"/>
      <point x="252" y="463"/>
      <point x="239" y="480"/>
      <point x="199" y="480" type="curve" smooth="yes"/>
      <point x="102" y="480" type="line" smooth="yes"/>
      <point x="63" y="480"/>
      <point x="50" y="463"/>
      <point x="50" y="429" type="curve" smooth="yes"/>
      <point x="50" y="50" type="line" smooth="yes"/>
      <point x="50" y="16"/>
      <point x="63" y="0"/>
      <point x="102" y="0" type="curve" smooth="yes"/>
    </contour>
    <contour>
      <point x="46" y="530" type="line" smooth="yes"/>
      <point x="79" y="530"/>
      <point x="89" y="537"/>
      <point x="101" y="556" type="curve" smooth="yes"/>
      <point x="152" y="633" type="line"/>
      <point x="202" y="556" type="line" smooth="yes"/>
      <point x="215" y="537"/>
      <point x="224" y="530"/>
      <point x="258" y="530" type="curve" smooth="yes"/>
      <point x="333" y="530" type="line" smooth="yes"/>
      <point x="364" y="530"/>
      <point x="374" y="549"/>
      <point x="352" y="577" type="curve" smooth="yes"/>
      <point x="256" y="702" type="line" smooth="yes"/>
      <point x="241" y="722"/>
      <point x="237" y="729"/>
      <point x="202" y="729" type="curve" smooth="yes"/>
      <point x="101" y="729" type="line" smooth="yes"/>
      <point x="66" y="729"/>
      <point x="63" y="722"/>
      <point x="47" y="702" type="curve" smooth="yes"/>
      <point x="-49" y="577" type="line" smooth="yes"/>
      <point x="-71" y="549"/>
      <point x="-61" y="530"/>
      <point x="-29" y="530" type="curve" smooth="yes"/>
    </contour>
  </outline>
</glyph>
<glyph name="ntilde" format="1">
  <advance width="605"/>
  <unicode hex="00F1"/>
  <note>
	ntilde
  </note>
  <outline>
    <contour>
      <point x="193" y="0" type="line" smooth="yes"/>
      <point x="232" y="0"/>
      <point x="245" y="16"/>
      <point x="245" y="50" type="curve" smooth="yes"/>
      <point x="245" y="298" type="line" smooth="yes"/>
      <point x="245" y="336"/>
      <point x="270" y="358"/>
      <point x="310" y="358" type="curve" smooth="yes"/>
      <point x="347" y="358"/>
      <point x="364" y="342"/>
      <point x="364" y="302" type="curve" smooth="yes"/>
      <point x="364" y="50" type="line" smooth="yes"/>
      <point x="364" y="16"/>
      <point x="378" y="0"/>
      <point x="418" y="0" type="curve" smooth="yes"/>
      <point x="515" y="0" type="line" smooth="yes"/>
      <point x="554" y="0"/>
      <point x="567" y="16"/>
      <point x="567" y="50" type="curve" smooth="yes"/>
      <point x="567" y="315" type="line" smooth="yes"/>
      <point x="567" y="439"/>
      <point x="489" y="495"/>
      <point x="386" y="495" type="curve" smooth="yes"/>
      <point x="308" y="495"/>
      <point x="247" y="469"/>
      <point x="211" y="434" type="curve"/>
      <point x="206" y="464" type="line" smooth="yes"/>
      <point x="204" y="477"/>
      <point x="194" y="480"/>
      <point x="180" y="480" type="curve" smooth="yes"/>
      <point x="77" y="480" type="line" smooth="yes"/>
      <point x="49" y="480"/>
      <point x="43" y="473"/>
      <point x="43" y="449" type="curve" smooth="yes"/>
      <point x="43" y="50" type="line" smooth="yes"/>
      <point x="43" y="16"/>
      <point x="56" y="0"/>
      <point x="96" y="0" type="curve" smooth="yes"/>
    </contour>
    <contour>
      <point x="450" y="551"/>
      <point x="482" y="578"/>
      <point x="521" y="635" type="curve" smooth="yes"/>
      <point x="543" y="666"/>
      <point x="539" y="682"/>
      <point x="502" y="710" type="curve" smooth="yes"/>
      <point x="464" y="738"/>
      <point x="444" y="744"/>
      <point x="427" y="723" type="curve" smooth="yes"/>
      <point x="406" y="698"/>
      <point x="395" y="689"/>
      <point x="371" y="689" type="curve" smooth="yes"/>
      <point x="323" y="689"/>
      <point x="286" y="739"/>
      <point x="207" y="739" type="curve" smooth="yes"/>
      <point x="150" y="739"/>
      <point x="118" y="709"/>
      <point x="80" y="657" type="curve" smooth="yes"/>
      <point x="58" y="626"/>
      <point x="63" y="611"/>
      <point x="99" y="584" type="curve" smooth="yes"/>
      <point x="136" y="555"/>
      <point x="157" y="548"/>
      <point x="174" y="569" type="curve"/>
      <point x="194" y="592"/>
      <point x="206" y="601"/>
      <point x="231" y="601" type="curve" smooth="yes"/>
      <point x="282" y="601"/>
      <point x="327" y="551"/>
      <point x="390" y="551" type="curve" smooth="yes"/>
    </contour>
  </outline>
</glyph>
<glyph name="ograve" format="1">
  <advance width="625"/>
  <unicode hex="00F2"/>
  <note>
	ograve
  </note>
  <outline>
    <contour>
      <point x="497" y="-15"/>
      <point x="602" y="85"/>
      <point x="602" y="240" type="curve" smooth="yes"/>
      <point x="602" y="395"/>
      <point x="497" y="495"/>
      <point x="312" y="495" type="curve" smooth="yes"/>
      <point x="127" y="495"/>
      <point x="23" y="395"/>
      <point x="23" y="240" type="curve" smooth="yes"/>
      <point x="23" y="85"/>
      <point x="127" y="-15"/>
      <point x="312" y="-15" type="curve" smooth="yes"/>
    </contour>
    <contour>
      <point x="257" y="128"/>
      <point x="224" y="163"/>
      <point x="224" y="240" type="curve" smooth="yes"/>
      <point x="224" y="317"/>
      <point x="257" y="350"/>
      <point x="312" y="350" type="curve" smooth="yes"/>
      <point x="368" y="350"/>
      <point x="400" y="317"/>
      <point x="400" y="240" type="curve" smooth="yes"/>
      <point x="400" y="163"/>
      <point x="368" y="128"/>
      <point x="312" y="128" type="curve" smooth="yes"/>
    </contour>
    <contour>
      <point x="368" y="535" type="line" smooth="yes"/>
      <point x="399" y="535"/>
      <point x="408" y="552"/>
      <point x="399" y="575" type="curve" smooth="yes"/>
      <point x="355" y="696" type="line" smooth="yes"/>
      <point x="346" y="721"/>
      <point x="340" y="730"/>
      <point x="303" y="730" type="curve" smooth="yes"/>
      <point x="183" y="730" type="line" smooth="yes"/>
      <point x="151" y="730"/>
      <point x="134" y="714"/>
      <point x="151" y="683" type="curve" smooth="yes"/>
      <point x="216" y="568" type="line" smooth="yes"/>
      <point x="231" y="542"/>
      <point x="239" y="535"/>
      <point x="279" y="535" type="curve" smooth="yes"/>
    </contour>
  </outline>
</glyph>
<glyph name="oacute" format="1">
  <advance width="625"/>
  <unicode hex="00F3"/>
  <note>
	oacute
  </note>
  <outline>
    <contour>
      <point x="497" y="-15"/>
      <point x="602" y="85"/>
      <point x="602" y="240" type="curve" smooth="yes"/>
      <point x="602" y="395"/>
      <point x="497" y="495"/>
      <point x="312" y="495" type="curve" smooth="yes"/>
      <point x="127" y="495"/>
      <point x="23" y="395"/>
      <point x="23" y="240" type="curve" smooth="yes"/>
      <point x="23" y="85"/>
      <point x="127" y="-15"/>
      <point x="312" y="-15" type="curve" smooth="yes"/>
    </contour>
    <contour>
      <point x="257" y="128"/>
      <point x="224" y="163"/>
      <point x="224" y="240" type="curve" smooth="yes"/>
      <point x="224" y="317"/>
      <point x="257" y="350"/>
      <point x="312" y="350" type="curve" smooth="yes"/>
      <point x="368" y="350"/>
      <point x="400" y="317"/>
      <point x="400" y="240" type="curve" smooth="yes"/>
      <point x="400" y="163"/>
      <point x="368" y="128"/>
      <point x="312" y="128" type="curve" smooth="yes"/>
    </contour>
    <contour>
      <point x="329" y="535" type="line" smooth="yes"/>
      <point x="369" y="535"/>
      <point x="377" y="542"/>
      <point x="392" y="568" type="curve" smooth="yes"/>
      <point x="457" y="683" type="line" smooth="yes"/>
      <point x="474" y="714"/>
      <point x="457" y="730"/>
      <point x="425" y="730" type="curve" smooth="yes"/>
      <point x="305" y="730" type="line" smooth="yes"/>
      <point x="268" y="730"/>
      <point x="262" y="720"/>
      <point x="253" y="696" type="curve" smooth="yes"/>
      <point x="209" y="575" type="line" smooth="yes"/>
      <point x="201" y="552"/>
      <point x="209" y="535"/>
      <point x="240" y="535" type="curve" smooth="yes"/>
    </contour>
  </outline>
</glyph>
<glyph name="otilde" format="1">
  <advance width="625"/>
  <unicode hex="00F5"/>
  <note>
	otilde
  </note>
  <outline>
    <contour>
      <point x="497" y="-15"/>
      <point x="602" y="85"/>
      <point x="602" y="240" type="curve" smooth="yes"/>
      <point x="602" y="395"/>
      <point x="497" y="495"/>
      <point x="312" y="495" type="curve" smooth="yes"/>
      <point x="127" y="495"/>
      <point x="23" y="395"/>
      <point x="23" y="240" type="curve" smooth="yes"/>
      <point x="23" y="85"/>
      <point x="127" y="-15"/>
      <point x="312" y="-15" type="curve" smooth="yes"/>
    </contour>
    <contour>
      <point x="257" y="128"/>
      <point x="224" y="163"/>
      <point x="224" y="240" type="curve" smooth="yes"/>
      <point x="224" y="317"/>
      <point x="257" y="350"/>
      <point x="312" y="350" type="curve" smooth="yes"/>
      <point x="368" y="350"/>
      <point x="400" y="317"/>
      <point x="400" y="240" type="curve" smooth="yes"/>
      <point x="400" y="163"/>
      <point x="368" y="128"/>
      <point x="312" y="128" type="curve" smooth="yes"/>
    </contour>
    <contour>
      <point x="466" y="543"/>
      <point x="498" y="570"/>
      <point x="537" y="627" type="curve" smooth="yes"/>
      <point x="559" y="658"/>
      <point x="555" y="674"/>
      <point x="518" y="702" type="curve" smooth="yes"/>
      <point x="480" y="730"/>
      <point x="460" y="736"/>
      <point x="443" y="715" type="curve" smooth="yes"/>
      <point x="422" y="690"/>
      <point x="411" y="681"/>
      <point x="387" y="681" type="curve" smooth="yes"/>
      <point x="339" y="681"/>
      <point x="302" y="731"/>
      <point x="223" y="731" type="curve" smooth="yes"/>
      <point x="166" y="731"/>
      <point x="134" y="701"/>
      <point x="96" y="649" type="curve" smooth="yes"/>
      <point x="74" y="618"/>
      <point x="79" y="603"/>
      <point x="115" y="576" type="curve" smooth="yes"/>
      <point x="152" y="547"/>
      <point x="173" y="540"/>
      <point x="190" y="561" type="curve"/>
      <point x="210" y="584"/>
      <point x="222" y="593"/>
      <point x="247" y="593" type="curve" smooth="yes"/>
      <point x="298" y="593"/>
      <point x="343" y="543"/>
      <point x="406" y="543" type="curve" smooth="yes"/>
    </contour>
  </outline>
</glyph>
<glyph name="divide" format="1">
  <advance width="468"/>
  <unicode hex="00F7"/>
  <note>
	divide
  </note>
  <outline>
    <contour>
      <point x="399" y="230" type="line" smooth="yes"/>
      <point x="436" y="230"/>
      <point x="445" y="246"/>
      <point x="445" y="278" type="curve" smooth="yes"/>
      <point x="445" y="328" type="line" smooth="yes"/>
      <point x="445" y="360"/>
      <point x="436" y="376"/>
      <point x="399" y="376" type="curve" smooth="yes"/>
      <point x="69" y="376" type="line" smooth="yes"/>
      <point x="32" y="376"/>
      <point x="23" y="360"/>
      <point x="23" y="328" type="curve" smooth="yes"/>
      <point x="23" y="278" type="line" smooth="yes"/>
      <point x="23" y="246"/>
      <point x="32" y="230"/>
      <point x="69" y="230" type="curve" smooth="yes"/>
    </contour>
    <contour>
      <point x="241" y="61" type="line" smooth="yes"/>
      <point x="274" y="61"/>
      <point x="295" y="87"/>
      <point x="295" y="117" type="curve" smooth="yes"/>
      <point x="295" y="140" type="line" smooth="yes"/>
      <point x="295" y="172"/>
      <point x="273" y="196"/>
      <point x="241" y="196" type="curve" smooth="yes"/>
      <point x="218" y="196" type="line" smooth="yes"/>
      <point x="186" y="196"/>
      <point x="164" y="172"/>
      <point x="164" y="140" type="curve" smooth="yes"/>
      <point x="164" y="117" type="line" smooth="yes"/>
      <point x="164" y="87"/>
      <point x="186" y="61"/>
      <point x="218" y="61" type="curve" smooth="yes"/>
    </contour>
    <contour>
      <point x="241" y="410" type="line" smooth="yes"/>
      <point x="274" y="410"/>
      <point x="295" y="436"/>
      <point x="295" y="466" type="curve" smooth="yes"/>
      <point x="295" y="489" type="line" smooth="yes"/>
      <point x="295" y="521"/>
      <point x="273" y="545"/>
      <point x="241" y="545" type="curve" smooth="yes"/>
      <point x="218" y="545" type="line" smooth="yes"/>
      <point x="186" y="545"/>
      <point x="164" y="521"/>
      <point x="164" y="489" type="curve" smooth="yes"/>
      <point x="164" y="466" type="line" smooth="yes"/>
      <point x="164" y="436"/>
      <point x="186" y="410"/>
      <point x="218" y="410" type="curve" smooth="yes"/>
    </contour>
  </outline>
</glyph>
<glyph name="ugrave" format="1">
  <advance width="603"/>
  <unicode hex="00F9"/>
  <note>
	ugrave
  </note>
  <outline>
    <contour>
      <point x="299" y="-15"/>
      <point x="356" y="11"/>
      <point x="392" y="46" type="curve"/>
      <point x="397" y="15" type="line" smooth="yes"/>
      <point x="399" y="2"/>
      <point x="409" y="0"/>
      <point x="423" y="0" type="curve" smooth="yes"/>
      <point x="526" y="0" type="line" smooth="yes"/>
      <point x="554" y="0"/>
      <point x="560" y="6"/>
      <point x="560" y="31" type="curve" smooth="yes"/>
      <point x="560" y="429" type="line" smooth="yes"/>
      <point x="560" y="463"/>
      <point x="547" y="480"/>
      <point x="507" y="480" type="curve" smooth="yes"/>
      <point x="410" y="480" type="line" smooth="yes"/>
      <point x="371" y="480"/>
      <point x="357" y="463"/>
      <point x="357" y="429" type="curve" smooth="yes"/>
      <point x="357" y="182" type="line" smooth="yes"/>
      <point x="357" y="143"/>
      <point x="335" y="121"/>
      <point x="295" y="121" type="curve" smooth="yes"/>
      <point x="258" y="121"/>
      <point x="240" y="139"/>
      <point x="240" y="178" type="curve" smooth="yes"/>
      <point x="240" y="429" type="line" smooth="yes"/>
      <point x="240" y="463"/>
      <point x="227" y="480"/>
      <point x="187" y="480" type="curve" smooth="yes"/>
      <point x="90" y="480" type="line" smooth="yes"/>
      <point x="51" y="480"/>
      <point x="38" y="463"/>
      <point x="38" y="429" type="curve" smooth="yes"/>
      <point x="38" y="170" type="line" smooth="yes"/>
      <point x="38" y="41"/>
      <point x="111" y="-15"/>
      <point x="222" y="-15" type="curve" smooth="yes"/>
    </contour>
    <contour>
      <point x="385" y="535" type="line" smooth="yes"/>
      <point x="416" y="535"/>
      <point x="425" y="552"/>
      <point x="416" y="575" type="curve" smooth="yes"/>
      <point x="372" y="696" type="line" smooth="yes"/>
      <point x="363" y="721"/>
      <point x="357" y="730"/>
      <point x="320" y="730" type="curve" smooth="yes"/>
      <point x="200" y="730" type="line" smooth="yes"/>
      <point x="168" y="730"/>
      <point x="151" y="714"/>
      <point x="168" y="683" type="curve" smooth="yes"/>
      <point x="233" y="568" type="line" smooth="yes"/>
      <point x="248" y="542"/>
      <point x="256" y="535"/>
      <point x="296" y="535" type="curve" smooth="yes"/>
    </contour>
  </outline>
</glyph>
<glyph name="uacute" format="1">
  <advance width="603"/>
  <unicode hex="00FA"/>
  <note>
	uacute
  </note>
  <outline>
    <contour>
      <point x="299" y="-15"/>
      <point x="356" y="11"/>
      <point x="392" y="46" type="curve"/>
      <point x="397" y="15" type="line" smooth="yes"/>
      <point x="399" y="2"/>
      <point x="409" y="0"/>
      <point x="423" y="0" type="curve" smooth="yes"/>
      <point x="526" y="0" type="line" smooth="yes"/>
      <point x="554" y="0"/>
      <point x="560" y="6"/>
      <point x="560" y="31" type="curve" smooth="yes"/>
      <point x="560" y="429" type="line" smooth="yes"/>
      <point x="560" y="463"/>
      <point x="547" y="480"/>
      <point x="507" y="480" type="curve" smooth="yes"/>
      <point x="410" y="480" type="line" smooth="yes"/>
      <point x="371" y="480"/>
      <point x="357" y="463"/>
      <point x="357" y="429" type="curve" smooth="yes"/>
      <point x="357" y="182" type="line" smooth="yes"/>
      <point x="357" y="143"/>
      <point x="335" y="121"/>
      <point x="295" y="121" type="curve" smooth="yes"/>
      <point x="258" y="121"/>
      <point x="240" y="139"/>
      <point x="240" y="178" type="curve" smooth="yes"/>
      <point x="240" y="429" type="line" smooth="yes"/>
      <point x="240" y="463"/>
      <point x="227" y="480"/>
      <point x="187" y="480" type="curve" smooth="yes"/>
      <point x="90" y="480" type="line" smooth="yes"/>
      <point x="51" y="480"/>
      <point x="38" y="463"/>
      <point x="38" y="429" type="curve" smooth="yes"/>
      <point x="38" y="170" type="line" smooth="yes"/>
      <point x="38" y="41"/>
      <point x="111" y="-15"/>
      <point x="222" y="-15" type="curve" smooth="yes"/>
    </contour>
    <contour>
      <point x="326" y="535" type="line" smooth="yes"/>
      <point x="366" y="535"/>
      <point x="374" y="542"/>
      <point x="389" y="568" type="curve" smooth="yes"/>
      <point x="454" y="683" type="line" smooth="yes"/>
      <point x="471" y="714"/>
      <point x="454" y="730"/>
      <point x="422" y="730" type="curve" smooth="yes"/>
      <point x="302" y="730" type="line" smooth="yes"/>
      <point x="265" y="730"/>
      <point x="259" y="720"/>
      <point x="250" y="696" type="curve" smooth="yes"/>
      <point x="206" y="575" type="line" smooth="yes"/>
      <point x="198" y="552"/>
      <point x="206" y="535"/>
      <point x="237" y="535" type="curve" smooth="yes"/>
    </contour>
  </outline>
</glyph>
<glyph name="ucircumflex" format="1">
  <advance width="623"/>
  <unicode hex="00FB"/>
  <note>
	ucircumflex
  </note>
  <outline>
    <contour>
      <point x="299" y="-15"/>
      <point x="356" y="11"/>
      <point x="392" y="46" type="curve"/>
      <point x="397" y="15" type="line" smooth="yes"/>
      <point x="399" y="2"/>
      <point x="409" y="0"/>
      <point x="423" y="0" type="curve" smooth="yes"/>
      <point x="526" y="0" type="line" smooth="yes"/>
      <point x="554" y="0"/>
      <point x="560" y="6"/>
      <point x="560" y="31" type="curve" smooth="yes"/>
      <point x="560" y="429" type="line" smooth="yes"/>
      <point x="560" y="463"/>
      <point x="547" y="480"/>
      <point x="507" y="480" type="curve" smooth="yes"/>
      <point x="410" y="480" type="line" smooth="yes"/>
      <point x="371" y="480"/>
      <point x="357" y="463"/>
      <point x="357" y="429" type="curve" smooth="yes"/>
      <point x="357" y="182" type="line" smooth="yes"/>
      <point x="357" y="143"/>
      <point x="335" y="121"/>
      <point x="295" y="121" type="curve" smooth="yes"/>
      <point x="258" y="121"/>
      <point x="240" y="139"/>
      <point x="240" y="178" type="curve" smooth="yes"/>
      <point x="240" y="429" type="line" smooth="yes"/>
      <point x="240" y="463"/>
      <point x="227" y="480"/>
      <point x="187" y="480" type="curve" smooth="yes"/>
      <point x="90" y="480" type="line" smooth="yes"/>
      <point x="51" y="480"/>
      <point x="38" y="463"/>
      <point x="38" y="429" type="curve" smooth="yes"/>
      <point x="38" y="170" type="line" smooth="yes"/>
      <point x="38" y="41"/>
      <point x="111" y="-15"/>
      <point x="222" y="-15" type="curve" smooth="yes"/>
    </contour>
    <contour>
      <point x="192" y="536" type="line" smooth="yes"/>
      <point x="225" y="536"/>
      <point x="235" y="543"/>
      <point x="247" y="562" type="curve" smooth="yes"/>
      <point x="298" y="639" type="line"/>
      <point x="348" y="562" type="line" smooth="yes"/>
      <point x="361" y="543"/>
      <point x="370" y="536"/>
      <point x="404" y="536" type="curve" smooth="yes"/>
      <point x="479" y="536" type="line" smooth="yes"/>
      <point x="510" y="536"/>
      <point x="520" y="555"/>
      <point x="498" y="583" type="curve" smooth="yes"/>
      <point x="402" y="708" type="line" smooth="yes"/>
      <point x="387" y="728"/>
      <point x="383" y="735"/>
      <point x="348" y="735" type="curve" smooth="yes"/>
      <point x="247" y="735" type="line" smooth="yes"/>
      <point x="212" y="735"/>
      <point x="209" y="728"/>
      <point x="193" y="708" type="curve" smooth="yes"/>
      <point x="97" y="583" type="line" smooth="yes"/>
      <point x="75" y="555"/>
      <point x="85" y="536"/>
      <point x="117" y="536" type="curve" smooth="yes"/>
    </contour>
  </outline>
</glyph>
<glyph name="Amacron" format="1">
  <advance width="747"/>
  <unicode hex="0100"/>
  <note>
	Amacron
  </note>
  <outline>
    <contour>
      <point x="198" y="0" type="line" smooth="yes"/>
      <point x="219" y="0"/>
      <point x="228" y="8"/>
      <point x="234" y="24" type="curve" smooth="yes"/>
      <point x="268" y="120" type="line"/>
      <point x="478" y="120" type="line"/>
      <point x="513" y="24" type="line" smooth="yes"/>
      <point x="519" y="8"/>
      <point x="528" y="0"/>
      <point x="548" y="0" type="curve" smooth="yes"/>
      <point x="703" y="0" type="line" smooth="yes"/>
      <point x="724" y="0"/>
      <point x="728" y="17"/>
      <point x="719" y="38" type="curve" smooth="yes"/>
      <point x="465" y="646" type="line" smooth="yes"/>
      <point x="455" y="671"/>
      <point x="445" y="680"/>
      <point x="419" y="680" type="curve" smooth="yes"/>
      <point x="328" y="680" type="line" smooth="yes"/>
      <point x="303" y="680"/>
      <point x="292" y="671"/>
      <point x="282" y="646" type="curve" smooth="yes"/>
      <point x="28" y="38" type="line" smooth="yes"/>
      <point x="19" y="17"/>
      <point x="22" y="0"/>
      <point x="44" y="0" type="curve" smooth="yes"/>
    </contour>
    <contour>
      <point x="373" y="426" type="line"/>
      <point x="434" y="256" type="line"/>
      <point x="312" y="256" type="line"/>
    </contour>
    <contour>
      <point x="508" y="753" type="line" smooth="yes"/>
      <point x="547" y="753"/>
      <point x="556" y="769"/>
      <point x="556" y="803" type="curve" smooth="yes"/>
      <point x="556" y="849" type="line" smooth="yes"/>
      <point x="556" y="883"/>
      <point x="547" y="899"/>
      <point x="508" y="899" type="curve" smooth="yes"/>
      <point x="239" y="899" type="line" smooth="yes"/>
      <point x="200" y="899"/>
      <point x="190" y="883"/>
      <point x="190" y="849" type="curve" smooth="yes"/>
      <point x="190" y="803" type="line" smooth="yes"/>
      <point x="190" y="769"/>
      <point x="200" y="753"/>
      <point x="239" y="753" type="curve" smooth="yes"/>
    </contour>
  </outline>
</glyph>
<glyph name="abreve" format="1">
  <advance width="618"/>
  <unicode hex="0103"/>
  <note>
	abreve
  </note>
  <outline>
    <contour>
      <point x="307" y="-15"/>
      <point x="359" y="4"/>
      <point x="398" y="45" type="curve"/>
      <point x="411" y="15" type="line" smooth="yes"/>
      <point x="416" y="4"/>
      <point x="423" y="0"/>
      <point x="438" y="0" type="curve" smooth="yes"/>
      <point x="540" y="0" type="line" smooth="yes"/>
      <point x="568" y="0"/>
      <point x="575" y="6"/>
      <point x="575" y="31" type="curve" smooth="yes"/>
      <point x="575" y="431" type="line"/>
      <point x="513" y="471"/>
      <point x="438" y="495"/>
      <point x="333" y="495" type="curve" smooth="yes"/>
      <point x="147" y="495"/>
      <point x="23" y="385"/>
      <point x="23" y="216" type="curve" smooth="yes"/>
      <point x="23" y="67"/>
      <point x="107" y="-15"/>
      <point x="230" y="-15" type="curve" smooth="yes"/>
    </contour>
    <contour>
      <point x="251" y="121"/>
      <point x="224" y="152"/>
      <point x="224" y="218" type="curve" smooth="yes"/>
      <point x="224" y="308"/>
      <point x="270" y="359"/>
      <point x="340" y="359" type="curve" smooth="yes"/>
      <point x="358" y="359"/>
      <point x="375" y="356"/>
      <point x="388" y="350" type="curve"/>
      <point x="388" y="194" type="line" smooth="yes"/>
      <point x="388" y="147"/>
      <point x="357" y="121"/>
      <point x="305" y="121" type="curve" smooth="yes"/>
    </contour>
    <contour>
      <point x="465" y="546"/>
      <point x="528" y="621"/>
      <point x="528" y="719" type="curve" smooth="yes"/>
      <point x="528" y="730"/>
      <point x="522" y="737"/>
      <point x="512" y="737" type="curve" smooth="yes"/>
      <point x="404" y="737" type="line" smooth="yes"/>
      <point x="390" y="737"/>
      <point x="387" y="730"/>
      <point x="387" y="718" type="curve" smooth="yes"/>
      <point x="387" y="687"/>
      <point x="372" y="669"/>
      <point x="339" y="669" type="curve" smooth="yes"/>
      <point x="305" y="669"/>
      <point x="291" y="687"/>
      <point x="291" y="718" type="curve" smooth="yes"/>
      <point x="291" y="730"/>
      <point x="288" y="737"/>
      <point x="274" y="737" type="curve" smooth="yes"/>
      <point x="166" y="737" type="line" smooth="yes"/>
      <point x="156" y="737"/>
      <point x="150" y="730"/>
      <point x="150" y="719" type="curve" smooth="yes"/>
      <point x="150" y="621"/>
      <point x="211" y="546"/>
      <point x="339" y="546" type="curve" smooth="yes"/>
    </contour>
  </outline>
</glyph>
<glyph name="Aogonek" format="1">
  <advance width="747"/>
  <unicode hex="0104"/>
  <note>
	Aogonek
  </note>
  <outline>
    <contour>
      <point x="198" y="0" type="line" smooth="yes"/>
      <point x="219" y="0"/>
      <point x="228" y="8"/>
      <point x="234" y="24" type="curve" smooth="yes"/>
      <point x="268" y="120" type="line"/>
      <point x="478" y="120" type="line"/>
      <point x="513" y="24" type="line" smooth="yes"/>
      <point x="519" y="8"/>
      <point x="528" y="0"/>
      <point x="548" y="0" type="curve" smooth="yes"/>
      <point x="703" y="0" type="line" smooth="yes"/>
      <point x="724" y="0"/>
      <point x="728" y="17"/>
      <point x="719" y="38" type="curve" smooth="yes"/>
      <point x="465" y="646" type="line" smooth="yes"/>
      <point x="455" y="671"/>
      <point x="445" y="680"/>
      <point x="419" y="680" type="curve" smooth="yes"/>
      <point x="328" y="680" type="line" smooth="yes"/>
      <point x="303" y="680"/>
      <point x="292" y="671"/>
      <point x="282" y="646" type="curve" smooth="yes"/>
      <point x="28" y="38" type="line" smooth="yes"/>
      <point x="19" y="17"/>
      <point x="22" y="0"/>
      <point x="44" y="0" type="curve" smooth="yes"/>
    </contour>
    <contour>
      <point x="602" y="-220"/>
      <point x="634" y="-216"/>
      <point x="660" y="-204" type="curve" smooth="yes"/>
      <point x="673" y="-198"/>
      <point x="673" y="-194"/>
      <point x="670" y="-187" type="curve" smooth="yes"/>
      <point x="649" y="-142" type="line" smooth="yes"/>
      <point x="645" y="-134"/>
      <point x="642" y="-134"/>
      <point x="635" y="-137" type="curve"/>
      <point x="629" y="-140"/>
      <point x="622" y="-141"/>
      <point x="613" y="-141" type="curve" smooth="yes"/>
      <point x="597" y="-141"/>
      <point x="589" y="-131"/>
      <point x="589" y="-114" type="curve" smooth="yes"/>
      <point x="589" y="-85"/>
      <point x="604" y="-67"/>
      <point x="650" y="-11" type="curve" smooth="yes"/>
      <point x="657" y="-3"/>
      <point x="652" y="5"/>
      <point x="640" y="5" type="curve" smooth="yes"/>
      <point x="543" y="5" type="line" smooth="yes"/>
      <point x="530" y="5"/>
      <point x="526" y="1"/>
      <point x="518" y="-8" type="curve" smooth="yes"/>
      <point x="474" y="-58"/>
      <point x="457" y="-95"/>
      <point x="457" y="-131" type="curve" smooth="yes"/>
      <point x="457" y="-179"/>
      <point x="487" y="-220"/>
      <point x="558" y="-220" type="curve" smooth="yes"/>
    </contour>
    <contour>
      <point x="373" y="426" type="line"/>
      <point x="434" y="256" type="line"/>
      <point x="312" y="256" type="line"/>
    </contour>
  </outline>
</glyph>
<glyph name="ccircumflex" format="1">
  <advance width="560"/>
  <unicode hex="0109"/>
  <note>
	ccircumflex
  </note>
  <outline>
    <contour>
      <point x="410" y="-15"/>
      <point x="471" y="4"/>
      <point x="525" y="39" type="curve" smooth="yes"/>
      <point x="540" y="49"/>
      <point x="540" y="58"/>
      <point x="532" y="72" type="curve" smooth="yes"/>
      <point x="487" y="149" type="line" smooth="yes"/>
      <point x="477" y="167"/>
      <point x="470" y="166"/>
      <point x="451" y="155" type="curve" smooth="yes"/>
      <point x="421" y="137"/>
      <point x="387" y="121"/>
      <point x="340" y="121" type="curve" smooth="yes"/>
      <point x="269" y="121"/>
      <point x="224" y="161"/>
      <point x="224" y="239" type="curve" smooth="yes"/>
      <point x="224" y="314"/>
      <point x="269" y="359"/>
      <point x="335" y="359" type="curve" smooth="yes"/>
      <point x="385" y="359"/>
      <point x="412" y="346"/>
      <point x="444" y="326" type="curve" smooth="yes"/>
      <point x="461" y="316"/>
      <point x="470" y="314"/>
      <point x="480" y="332" type="curve" smooth="yes"/>
      <point x="521" y="403" type="line" smooth="yes"/>
      <point x="530" y="419"/>
      <point x="533" y="431"/>
      <point x="518" y="442" type="curve" smooth="yes"/>
      <point x="471" y="476"/>
      <point x="412" y="495"/>
      <point x="317" y="495" type="curve" smooth="yes"/>
      <point x="132" y="495"/>
      <point x="23" y="392"/>
      <point x="23" y="239" type="curve" smooth="yes"/>
      <point x="23" y="73"/>
      <point x="129" y="-15"/>
      <point x="315" y="-15" type="curve" smooth="yes"/>
    </contour>
    <contour>
      <point x="199" y="536" type="line" smooth="yes"/>
      <point x="232" y="536"/>
      <point x="242" y="543"/>
      <point x="254" y="562" type="curve" smooth="yes"/>
      <point x="305" y="639" type="line"/>
      <point x="355" y="562" type="line" smooth="yes"/>
      <point x="368" y="543"/>
      <point x="377" y="536"/>
      <point x="411" y="536" type="curve" smooth="yes"/>
      <point x="486" y="536" type="line" smooth="yes"/>
      <point x="517" y="536"/>
      <point x="527" y="555"/>
      <point x="505" y="583" type="curve" smooth="yes"/>
      <point x="409" y="708" type="line" smooth="yes"/>
      <point x="394" y="728"/>
      <point x="390" y="735"/>
      <point x="355" y="735" type="curve" smooth="yes"/>
      <point x="254" y="735" type="line" smooth="yes"/>
      <point x="219" y="735"/>
      <point x="216" y="728"/>
      <point x="200" y="708" type="curve" smooth="yes"/>
      <point x="104" y="583" type="line" smooth="yes"/>
      <point x="82" y="555"/>
      <point x="92" y="536"/>
      <point x="124" y="536" type="curve" smooth="yes"/>
    </contour>
  </outline>
</glyph>
<glyph name="Cdotaccent" format="1">
  <advance width="679"/>
  <unicode hex="010A"/>
  <note>
	Cdotaccent
  </note>
  <outline>
    <contour>
      <point x="505" y="-15"/>
      <point x="590" y="5"/>
      <point x="645" y="43" type="curve" smooth="yes"/>
      <point x="660" y="54"/>
      <point x="659" y="64"/>
      <point x="651" y="79" type="curve"/>
      <point x="606" y="156" type="line" smooth="yes"/>
      <point x="596" y="173"/>
      <point x="587" y="170"/>
      <point x="570" y="161" type="curve" smooth="yes"/>
      <point x="534" y="142"/>
      <point x="490" y="128"/>
      <point x="425" y="128" type="curve" smooth="yes"/>
      <point x="305" y="128"/>
      <point x="224" y="197"/>
      <point x="224" y="340" type="curve" smooth="yes"/>
      <point x="224" y="481"/>
      <point x="296" y="551"/>
      <point x="418" y="551" type="curve" smooth="yes"/>
      <point x="482" y="551"/>
      <point x="526" y="536"/>
      <point x="559" y="518" type="curve" smooth="yes"/>
      <point x="576" y="509"/>
      <point x="585" y="506"/>
      <point x="595" y="524" type="curve" smooth="yes"/>
      <point x="638" y="597" type="line" smooth="yes"/>
      <point x="647" y="613"/>
      <point x="649" y="626"/>
      <point x="634" y="636" type="curve" smooth="yes"/>
      <point x="579" y="673"/>
      <point x="495" y="695"/>
      <point x="391" y="695" type="curve" smooth="yes"/>
      <point x="157" y="695"/>
      <point x="23" y="575"/>
      <point x="23" y="340" type="curve" smooth="yes"/>
      <point x="23" y="104"/>
      <point x="164" y="-15"/>
      <point x="397" y="-15" type="curve" smooth="yes"/>
    </contour>
    <contour>
      <point x="421" y="751" type="line" smooth="yes"/>
      <point x="458" y="751"/>
      <point x="482" y="780"/>
      <point x="482" y="815" type="curve" smooth="yes"/>
      <point x="482" y="840" type="line" smooth="yes"/>
      <point x="482" y="876"/>
      <point x="457" y="904"/>
      <point x="421" y="904" type="curve" smooth="yes"/>
      <point x="394" y="904" type="line" smooth="yes"/>
      <point x="358" y="904"/>
      <point x="333" y="876"/>
      <point x="333" y="840" type="curve" smooth="yes"/>
      <point x="333" y="815" type="line" smooth="yes"/>
      <point x="333" y="780"/>
      <point x="358" y="751"/>
      <point x="394" y="751" type="curve" smooth="yes"/>
    </contour>
  </outline>
</glyph>
<glyph name="cdotaccent" format="1">
  <advance width="560"/>
  <unicode hex="010B"/>
  <note>
	cdotaccent
  </note>
  <outline>
    <contour>
      <point x="410" y="-15"/>
      <point x="471" y="4"/>
      <point x="525" y="39" type="curve" smooth="yes"/>
      <point x="540" y="49"/>
      <point x="540" y="58"/>
      <point x="532" y="72" type="curve" smooth="yes"/>
      <point x="487" y="149" type="line" smooth="yes"/>
      <point x="477" y="167"/>
      <point x="470" y="166"/>
      <point x="451" y="155" type="curve" smooth="yes"/>
      <point x="421" y="137"/>
      <point x="387" y="121"/>
      <point x="340" y="121" type="curve" smooth="yes"/>
      <point x="269" y="121"/>
      <point x="224" y="161"/>
      <point x="224" y="239" type="curve" smooth="yes"/>
      <point x="224" y="314"/>
      <point x="269" y="359"/>
      <point x="335" y="359" type="curve" smooth="yes"/>
      <point x="385" y="359"/>
      <point x="412" y="346"/>
      <point x="444" y="326" type="curve" smooth="yes"/>
      <point x="461" y="316"/>
      <point x="470" y="314"/>
      <point x="480" y="332" type="curve" smooth="yes"/>
      <point x="521" y="403" type="line" smooth="yes"/>
      <point x="530" y="419"/>
      <point x="533" y="431"/>
      <point x="518" y="442" type="curve" smooth="yes"/>
      <point x="471" y="476"/>
      <point x="412" y="495"/>
      <point x="317" y="495" type="curve" smooth="yes"/>
      <point x="132" y="495"/>
      <point x="23" y="392"/>
      <point x="23" y="239" type="curve" smooth="yes"/>
      <point x="23" y="73"/>
      <point x="129" y="-15"/>
      <point x="315" y="-15" type="curve" smooth="yes"/>
    </contour>
    <contour>
      <point x="318" y="545" type="line" smooth="yes"/>
      <point x="355" y="545"/>
      <point x="379" y="574"/>
      <point x="379" y="609" type="curve" smooth="yes"/>
      <point x="379" y="634" type="line" smooth="yes"/>
      <point x="379" y="670"/>
      <point x="354" y="698"/>
      <point x="318" y="698" type="curve" smooth="yes"/>
      <point x="291" y="698" type="line" smooth="yes"/>
      <point x="255" y="698"/>
      <point x="230" y="670"/>
      <point x="230" y="634" type="curve" smooth="yes"/>
      <point x="230" y="609" type="line" smooth="yes"/>
      <point x="230" y="574"/>
      <point x="255" y="545"/>
      <point x="291" y="545" type="curve" smooth="yes"/>
    </contour>
  </outline>
</glyph>
<glyph name="Ccaron" format="1">
  <advance width="679"/>
  <unicode hex="010C"/>
  <note>
	Ccaron
  </note>
  <outline>
    <contour>
      <point x="505" y="-15"/>
      <point x="590" y="5"/>
      <point x="645" y="43" type="curve" smooth="yes"/>
      <point x="660" y="54"/>
      <point x="659" y="64"/>
      <point x="651" y="79" type="curve"/>
      <point x="606" y="156" type="line" smooth="yes"/>
      <point x="596" y="173"/>
      <point x="587" y="170"/>
      <point x="570" y="161" type="curve" smooth="yes"/>
      <point x="534" y="142"/>
      <point x="490" y="128"/>
      <point x="425" y="128" type="curve" smooth="yes"/>
      <point x="305" y="128"/>
      <point x="224" y="197"/>
      <point x="224" y="340" type="curve" smooth="yes"/>
      <point x="224" y="481"/>
      <point x="296" y="551"/>
      <point x="418" y="551" type="curve" smooth="yes"/>
      <point x="482" y="551"/>
      <point x="526" y="536"/>
      <point x="559" y="518" type="curve" smooth="yes"/>
      <point x="576" y="509"/>
      <point x="585" y="506"/>
      <point x="595" y="524" type="curve" smooth="yes"/>
      <point x="638" y="597" type="line" smooth="yes"/>
      <point x="647" y="613"/>
      <point x="649" y="626"/>
      <point x="634" y="636" type="curve" smooth="yes"/>
      <point x="579" y="673"/>
      <point x="495" y="695"/>
      <point x="391" y="695" type="curve" smooth="yes"/>
      <point x="157" y="695"/>
      <point x="23" y="575"/>
      <point x="23" y="340" type="curve" smooth="yes"/>
      <point x="23" y="104"/>
      <point x="164" y="-15"/>
      <point x="397" y="-15" type="curve" smooth="yes"/>
    </contour>
    <contour>
      <point x="445" y="750" type="line" smooth="yes"/>
      <point x="480" y="750"/>
      <point x="484" y="756"/>
      <point x="499" y="776" type="curve" smooth="yes"/>
      <point x="595" y="901" type="line" smooth="yes"/>
      <point x="617" y="929"/>
      <point x="609" y="948"/>
      <point x="577" y="948" type="curve" smooth="yes"/>
      <point x="500" y="948" type="line" smooth="yes"/>
      <point x="467" y="948"/>
      <point x="458" y="942"/>
      <point x="445" y="923" type="curve" smooth="yes"/>
      <point x="395" y="846" type="line"/>
      <point x="344" y="923" type="line" smooth="yes"/>
      <point x="331" y="942"/>
      <point x="322" y="948"/>
      <point x="289" y="948" type="curve" smooth="yes"/>
      <point x="212" y="948" type="line" smooth="yes"/>
      <point x="180" y="948"/>
      <point x="172" y="929"/>
      <point x="194" y="901" type="curve" smooth="yes"/>
      <point x="290" y="776" type="line" smooth="yes"/>
      <point x="306" y="756"/>
      <point x="309" y="750"/>
      <point x="344" y="750" type="curve" smooth="yes"/>
    </contour>
  </outline>
</glyph>
<glyph name="Dcaron" format="1">
  <advance width="689"/>
  <unicode hex="010E"/>
  <note>
	Dcaron
  </note>
  <outline>
    <contour>
      <point x="315" y="0" type="line" smooth="yes"/>
      <point x="539" y="0"/>
      <point x="666" y="108"/>
      <point x="666" y="340" type="curve" smooth="yes"/>
      <point x="666" y="578"/>
      <point x="539" y="680"/>
      <point x="315" y="680" type="curve" smooth="yes"/>
      <point x="95" y="680" type="line" smooth="yes"/>
      <point x="56" y="680"/>
      <point x="43" y="663"/>
      <point x="43" y="629" type="curve" smooth="yes"/>
      <point x="43" y="50" type="line" smooth="yes"/>
      <point x="43" y="16"/>
      <point x="56" y="0"/>
      <point x="95" y="0" type="curve" smooth="yes"/>
    </contour>
    <contour>
      <point x="245" y="534" type="line"/>
      <point x="324" y="534" type="line" smooth="yes"/>
      <point x="416" y="534"/>
      <point x="465" y="489"/>
      <point x="465" y="340" type="curve" smooth="yes"/>
      <point x="465" y="191"/>
      <point x="416" y="145"/>
      <point x="324" y="145" type="curve" smooth="yes"/>
      <point x="245" y="145" type="line"/>
    </contour>
    <contour>
      <point x="365" y="750" type="line" smooth="yes"/>
      <point x="400" y="750"/>
      <point x="404" y="756"/>
      <point x="419" y="776" type="curve" smooth="yes"/>
      <point x="515" y="901" type="line" smooth="yes"/>
      <point x="537" y="929"/>
      <point x="529" y="948"/>
      <point x="497" y="948" type="curve" smooth="yes"/>
      <point x="420" y="948" type="line" smooth="yes"/>
      <point x="387" y="948"/>
      <point x="378" y="942"/>
      <point x="365" y="923" type="curve" smooth="yes"/>
      <point x="315" y="846" type="line"/>
      <point x="264" y="923" type="line" smooth="yes"/>
      <point x="251" y="942"/>
      <point x="242" y="948"/>
      <point x="209" y="948" type="curve" smooth="yes"/>
      <point x="132" y="948" type="line" smooth="yes"/>
      <point x="100" y="948"/>
      <point x="92" y="929"/>
      <point x="114" y="901" type="curve" smooth="yes"/>
      <point x="210" y="776" type="line" smooth="yes"/>
      <point x="226" y="756"/>
      <point x="229" y="750"/>
      <point x="264" y="750" type="curve" smooth="yes"/>
    </contour>
  </outline>
</glyph>
<glyph name="dcaron" format="1">
  <advance width="805"/>
  <unicode hex="010F"/>
  <note>
	dcaron
  </note>
  <outline>
    <contour>
      <point x="429" y="-15"/>
      <point x="525" y="16"/>
      <point x="580" y="56" type="curve"/>
      <point x="580" y="629" type="line" smooth="yes"/>
      <point x="580" y="663"/>
      <point x="566" y="680"/>
      <point x="527" y="680" type="curve" smooth="yes"/>
      <point x="434" y="680" type="line" smooth="yes"/>
      <point x="394" y="680"/>
      <point x="381" y="663"/>
      <point x="381" y="629" type="curve" smooth="yes"/>
      <point x="381" y="468" type="line"/>
      <point x="357" y="484"/>
      <point x="313" y="495"/>
      <point x="268" y="495" type="curve" smooth="yes"/>
      <point x="108" y="495"/>
      <point x="23" y="392"/>
      <point x="23" y="243" type="curve" smooth="yes"/>
      <point x="23" y="73"/>
      <point x="122" y="-15"/>
      <point x="322" y="-15" type="curve" smooth="yes"/>
    </contour>
    <contour>
      <point x="262" y="121"/>
      <point x="224" y="152"/>
      <point x="224" y="242" type="curve" smooth="yes"/>
      <point x="224" y="310"/>
      <point x="250" y="359"/>
      <point x="311" y="359" type="curve" smooth="yes"/>
      <point x="356" y="359"/>
      <point x="382" y="339"/>
      <point x="382" y="293" type="curve" smooth="yes"/>
      <point x="382" y="132" type="line"/>
      <point x="369" y="125"/>
      <point x="349" y="121"/>
      <point x="328" y="121" type="curve" smooth="yes"/>
    </contour>
    <contour>
      <point x="716" y="559" type="line" smooth="yes"/>
      <point x="757" y="559"/>
      <point x="764" y="566"/>
      <point x="779" y="592" type="curve" smooth="yes"/>
      <point x="844" y="707" type="line" smooth="yes"/>
      <point x="862" y="738"/>
      <point x="844" y="754"/>
      <point x="812" y="754" type="curve" smooth="yes"/>
      <point x="709" y="754" type="line" smooth="yes"/>
      <point x="671" y="754"/>
      <point x="665" y="744"/>
      <point x="656" y="720" type="curve" smooth="yes"/>
      <point x="612" y="599" type="line" smooth="yes"/>
      <point x="604" y="576"/>
      <point x="612" y="559"/>
      <point x="644" y="559" type="curve" smooth="yes"/>
    </contour>
  </outline>
</glyph>
<glyph name="Edotaccent" format="1">
  <advance width="571"/>
  <unicode hex="0116"/>
  <note>
	Edotaccent
  </note>
  <outline>
    <contour>
      <point x="509" y="0" type="line" smooth="yes"/>
      <point x="548" y="0"/>
      <point x="557" y="16"/>
      <point x="557" y="49" type="curve" smooth="yes"/>
      <point x="557" y="95" type="line" smooth="yes"/>
      <point x="557" y="129"/>
      <point x="548" y="145"/>
      <point x="509" y="145" type="curve" smooth="yes"/>
      <point x="245" y="145" type="line"/>
      <point x="245" y="268" type="line"/>
      <point x="420" y="268" type="line" smooth="yes"/>
      <point x="459" y="268"/>
      <point x="469" y="284"/>
      <point x="469" y="318" type="curve" smooth="yes"/>
      <point x="469" y="362" type="line" smooth="yes"/>
      <point x="469" y="396"/>
      <point x="459" y="412"/>
      <point x="420" y="412" type="curve" smooth="yes"/>
      <point x="245" y="412" type="line"/>
      <point x="245" y="534" type="line"/>
      <point x="510" y="534" type="line" smooth="yes"/>
      <point x="549" y="534"/>
      <point x="558" y="550"/>
      <point x="558" y="584" type="curve" smooth="yes"/>
      <point x="558" y="630" type="line" smooth="yes"/>
      <point x="558" y="664"/>
      <point x="549" y="680"/>
      <point x="510" y="680" type="curve" smooth="yes"/>
      <point x="95" y="680" type="line" smooth="yes"/>
      <point x="56" y="680"/>
      <point x="43" y="663"/>
      <point x="43" y="629" type="curve" smooth="yes"/>
      <point x="43" y="50" type="line" smooth="yes"/>
      <point x="43" y="16"/>
      <point x="56" y="0"/>
      <point x="95" y="0" type="curve" smooth="yes"/>
    </contour>
    <contour>
      <point x="318" y="751" type="line" smooth="yes"/>
      <point x="355" y="751"/>
      <point x="379" y="780"/>
      <point x="379" y="815" type="curve" smooth="yes"/>
      <point x="379" y="840" type="line" smooth="yes"/>
      <point x="379" y="876"/>
      <point x="354" y="904"/>
      <point x="318" y="904" type="curve" smooth="yes"/>
      <point x="291" y="904" type="line" smooth="yes"/>
      <point x="255" y="904"/>
      <point x="230" y="876"/>
      <point x="230" y="840" type="curve" smooth="yes"/>
      <point x="230" y="815" type="line" smooth="yes"/>
      <point x="230" y="780"/>
      <point x="255" y="751"/>
      <point x="291" y="751" type="curve" smooth="yes"/>
    </contour>
  </outline>
</glyph>
<glyph name="Eogonek" format="1">
  <advance width="571"/>
  <unicode hex="0118"/>
  <note>
	Eogonek
  </note>
  <outline>
    <contour>
      <point x="509" y="0" type="line" smooth="yes"/>
      <point x="548" y="0"/>
      <point x="557" y="16"/>
      <point x="557" y="49" type="curve" smooth="yes"/>
      <point x="557" y="95" type="line" smooth="yes"/>
      <point x="557" y="129"/>
      <point x="548" y="145"/>
      <point x="509" y="145" type="curve" smooth="yes"/>
      <point x="245" y="145" type="line"/>
      <point x="245" y="268" type="line"/>
      <point x="420" y="268" type="line" smooth="yes"/>
      <point x="459" y="268"/>
      <point x="469" y="284"/>
      <point x="469" y="318" type="curve" smooth="yes"/>
      <point x="469" y="362" type="line" smooth="yes"/>
      <point x="469" y="396"/>
      <point x="459" y="412"/>
      <point x="420" y="412" type="curve" smooth="yes"/>
      <point x="245" y="412" type="line"/>
      <point x="245" y="534" type="line"/>
      <point x="510" y="534" type="line" smooth="yes"/>
      <point x="549" y="534"/>
      <point x="558" y="550"/>
      <point x="558" y="584" type="curve" smooth="yes"/>
      <point x="558" y="630" type="line" smooth="yes"/>
      <point x="558" y="664"/>
      <point x="549" y="680"/>
      <point x="510" y="680" type="curve" smooth="yes"/>
      <point x="95" y="680" type="line" smooth="yes"/>
      <point x="56" y="680"/>
      <point x="43" y="663"/>
      <point x="43" y="629" type="curve" smooth="yes"/>
      <point x="43" y="50" type="line" smooth="yes"/>
      <point x="43" y="16"/>
      <point x="56" y="0"/>
      <point x="95" y="0" type="curve" smooth="yes"/>
    </contour>
    <contour>
      <point x="460" y="-220"/>
      <point x="492" y="-216"/>
      <point x="518" y="-204" type="curve" smooth="yes"/>
      <point x="531" y="-198"/>
      <point x="531" y="-194"/>
      <point x="528" y="-187" type="curve" smooth="yes"/>
      <point x="507" y="-142" type="line" smooth="yes"/>
      <point x="503" y="-134"/>
      <point x="500" y="-134"/>
      <point x="493" y="-137" type="curve"/>
      <point x="487" y="-140"/>
      <point x="480" y="-141"/>
      <point x="471" y="-141" type="curve" smooth="yes"/>
      <point x="455" y="-141"/>
      <point x="447" y="-131"/>
      <point x="447" y="-114" type="curve" smooth="yes"/>
      <point x="447" y="-85"/>
      <point x="462" y="-67"/>
      <point x="508" y="-11" type="curve" smooth="yes"/>
      <point x="515" y="-3"/>
      <point x="510" y="5"/>
      <point x="498" y="5" type="curve" smooth="yes"/>
      <point x="401" y="5" type="line" smooth="yes"/>
      <point x="388" y="5"/>
      <point x="384" y="1"/>
      <point x="376" y="-8" type="curve" smooth="yes"/>
      <point x="332" y="-58"/>
      <point x="315" y="-95"/>
      <point x="315" y="-131" type="curve" smooth="yes"/>
      <point x="315" y="-179"/>
      <point x="345" y="-220"/>
      <point x="416" y="-220" type="curve" smooth="yes"/>
    </contour>
  </outline>
</glyph>
<glyph name="eogonek" format="1">
  <advance width="594"/>
  <unicode hex="0119"/>
  <note>
	eogonek
  </note>
  <outline>
    <contour>
      <point x="402" y="-15"/>
      <point x="470" y="0"/>
      <point x="526" y="36" type="curve" smooth="yes"/>
      <point x="540" y="45"/>
      <point x="541" y="54"/>
      <point x="533" y="68" type="curve" smooth="yes"/>
      <point x="499" y="132" type="line" smooth="yes"/>
      <point x="492" y="145"/>
      <point x="485" y="148"/>
      <point x="468" y="139" type="curve" smooth="yes"/>
      <point x="437" y="123"/>
      <point x="404" y="109"/>
      <point x="344" y="109" type="curve" smooth="yes"/>
      <point x="255" y="109"/>
      <point x="213" y="142"/>
      <point x="213" y="198" type="curve"/>
      <point x="527" y="198" type="line" smooth="yes"/>
      <point x="557" y="198"/>
      <point x="571" y="215"/>
      <point x="571" y="248" type="curve" smooth="yes"/>
      <point x="571" y="399"/>
      <point x="482" y="495"/>
      <point x="302" y="495" type="curve" smooth="yes"/>
      <point x="122" y="495"/>
      <point x="23" y="404"/>
      <point x="23" y="234" type="curve" smooth="yes"/>
      <point x="23" y="67"/>
      <point x="150" y="-15"/>
      <point x="314" y="-15" type="curve" smooth="yes"/>
    </contour>
    <contour>
      <point x="482" y="-171"/>
      <point x="514" y="-167"/>
      <point x="540" y="-155" type="curve" smooth="yes"/>
      <point x="553" y="-149"/>
      <point x="553" y="-145"/>
      <point x="550" y="-138" type="curve" smooth="yes"/>
      <point x="529" y="-93" type="line" smooth="yes"/>
      <point x="525" y="-85"/>
      <point x="522" y="-85"/>
      <point x="515" y="-88" type="curve"/>
      <point x="509" y="-91"/>
      <point x="502" y="-92"/>
      <point x="493" y="-92" type="curve" smooth="yes"/>
      <point x="477" y="-92"/>
      <point x="469" y="-82"/>
      <point x="469" y="-65" type="curve" smooth="yes"/>
      <point x="469" y="-36"/>
      <point x="484" y="-18"/>
      <point x="530" y="38" type="curve" smooth="yes"/>
      <point x="537" y="46"/>
      <point x="532" y="54"/>
      <point x="520" y="54" type="curve" smooth="yes"/>
      <point x="423" y="54" type="line" smooth="yes"/>
      <point x="410" y="54"/>
      <point x="406" y="50"/>
      <point x="398" y="41" type="curve" smooth="yes"/>
      <point x="354" y="-9"/>
      <point x="337" y="-46"/>
      <point x="337" y="-82" type="curve" smooth="yes"/>
      <point x="337" y="-130"/>
      <point x="367" y="-171"/>
      <point x="438" y="-171" type="curve" smooth="yes"/>
    </contour>
    <contour>
      <point x="213" y="345"/>
      <point x="242" y="377"/>
      <point x="303" y="377" type="curve" smooth="yes"/>
      <point x="364" y="377"/>
      <point x="391" y="346"/>
      <point x="391" y="297" type="curve"/>
      <point x="213" y="297" type="line"/>
    </contour>
  </outline>
</glyph>
<glyph name="Ecaron" format="1">
  <advance width="571"/>
  <unicode hex="011A"/>
  <note>
	Ecaron
  </note>
  <outline>
    <contour>
      <point x="509" y="0" type="line" smooth="yes"/>
      <point x="548" y="0"/>
      <point x="557" y="16"/>
      <point x="557" y="49" type="curve" smooth="yes"/>
      <point x="557" y="95" type="line" smooth="yes"/>
      <point x="557" y="129"/>
      <point x="548" y="145"/>
      <point x="509" y="145" type="curve" smooth="yes"/>
      <point x="245" y="145" type="line"/>
      <point x="245" y="268" type="line"/>
      <point x="420" y="268" type="line" smooth="yes"/>
      <point x="459" y="268"/>
      <point x="469" y="284"/>
      <point x="469" y="318" type="curve" smooth="yes"/>
      <point x="469" y="362" type="line" smooth="yes"/>
      <point x="469" y="396"/>
      <point x="459" y="412"/>
      <point x="420" y="412" type="curve" smooth="yes"/>
      <point x="245" y="412" type="line"/>
      <point x="245" y="534" type="line"/>
      <point x="510" y="534" type="line" smooth="yes"/>
      <point x="549" y="534"/>
      <point x="558" y="550"/>
      <point x="558" y="584" type="curve" smooth="yes"/>
      <point x="558" y="630" type="line" smooth="yes"/>
      <point x="558" y="664"/>
      <point x="549" y="680"/>
      <point x="510" y="680" type="curve" smooth="yes"/>
      <point x="95" y="680" type="line" smooth="yes"/>
      <point x="56" y="680"/>
      <point x="43" y="663"/>
      <point x="43" y="629" type="curve" smooth="yes"/>
      <point x="43" y="50" type="line" smooth="yes"/>
      <point x="43" y="16"/>
      <point x="56" y="0"/>
      <point x="95" y="0" type="curve" smooth="yes"/>
    </contour>
    <contour>
      <point x="355" y="750" type="line" smooth="yes"/>
      <point x="390" y="750"/>
      <point x="394" y="756"/>
      <point x="409" y="776" type="curve" smooth="yes"/>
      <point x="505" y="901" type="line" smooth="yes"/>
      <point x="527" y="929"/>
      <point x="519" y="948"/>
      <point x="487" y="948" type="curve" smooth="yes"/>
      <point x="410" y="948" type="line" smooth="yes"/>
      <point x="377" y="948"/>
      <point x="368" y="942"/>
      <point x="355" y="923" type="curve" smooth="yes"/>
      <point x="305" y="846" type="line"/>
      <point x="254" y="923" type="line" smooth="yes"/>
      <point x="241" y="942"/>
      <point x="232" y="948"/>
      <point x="199" y="948" type="curve" smooth="yes"/>
      <point x="122" y="948" type="line" smooth="yes"/>
      <point x="90" y="948"/>
      <point x="82" y="929"/>
      <point x="104" y="901" type="curve" smooth="yes"/>
      <point x="200" y="776" type="line" smooth="yes"/>
      <point x="216" y="756"/>
      <point x="219" y="750"/>
      <point x="254" y="750" type="curve" smooth="yes"/>
    </contour>
  </outline>
</glyph>
<glyph name="ecaron" format="1">
  <advance width="594"/>
  <unicode hex="011B"/>
  <note>
	ecaron
  </note>
  <outline>
    <contour>
      <point x="402" y="-15"/>
      <point x="470" y="0"/>
      <point x="526" y="36" type="curve" smooth="yes"/>
      <point x="540" y="45"/>
      <point x="541" y="54"/>
      <point x="533" y="68" type="curve" smooth="yes"/>
      <point x="499" y="132" type="line" smooth="yes"/>
      <point x="492" y="145"/>
      <point x="485" y="148"/>
      <point x="468" y="139" type="curve" smooth="yes"/>
      <point x="437" y="123"/>
      <point x="404" y="109"/>
      <point x="344" y="109" type="curve" smooth="yes"/>
      <point x="255" y="109"/>
      <point x="213" y="142"/>
      <point x="213" y="198" type="curve"/>
      <point x="527" y="198" type="line" smooth="yes"/>
      <point x="557" y="198"/>
      <point x="571" y="215"/>
      <point x="571" y="248" type="curve" smooth="yes"/>
      <point x="571" y="399"/>
      <point x="482" y="495"/>
      <point x="302" y="495" type="curve" smooth="yes"/>
      <point x="122" y="495"/>
      <point x="23" y="404"/>
      <point x="23" y="234" type="curve" smooth="yes"/>
      <point x="23" y="67"/>
      <point x="150" y="-15"/>
      <point x="314" y="-15" type="curve" smooth="yes"/>
    </contour>
    <contour>
      <point x="213" y="345"/>
      <point x="242" y="377"/>
      <point x="303" y="377" type="curve" smooth="yes"/>
      <point x="364" y="377"/>
      <point x="391" y="346"/>
      <point x="391" y="297" type="curve"/>
      <point x="213" y="297" type="line"/>
    </contour>
    <contour>
      <point x="354" y="544" type="line" smooth="yes"/>
      <point x="389" y="544"/>
      <point x="393" y="550"/>
      <point x="408" y="570" type="curve" smooth="yes"/>
      <point x="504" y="695" type="line" smooth="yes"/>
      <point x="526" y="723"/>
      <point x="518" y="742"/>
      <point x="486" y="742" type="curve" smooth="yes"/>
      <point x="409" y="742" type="line" smooth="yes"/>
      <point x="376" y="742"/>
      <point x="367" y="736"/>
      <point x="354" y="717" type="curve" smooth="yes"/>
      <point x="304" y="640" type="line"/>
      <point x="253" y="717" type="line" smooth="yes"/>
      <point x="240" y="736"/>
      <point x="231" y="742"/>
      <point x="198" y="742" type="curve" smooth="yes"/>
      <point x="121" y="742" type="line" smooth="yes"/>
      <point x="89" y="742"/>
      <point x="81" y="723"/>
      <point x="103" y="695" type="curve" smooth="yes"/>
      <point x="199" y="570" type="line" smooth="yes"/>
      <point x="215" y="550"/>
      <point x="218" y="544"/>
      <point x="253" y="544" type="curve" smooth="yes"/>
    </contour>
  </outline>
</glyph>
<glyph name="Gcircumflex" format="1">
  <advance width="705"/>
  <unicode hex="011C"/>
  <note>
	Gcircumflex
  </note>
  <outline>
    <contour>
      <point x="515" y="-15"/>
      <point x="601" y="9"/>
      <point x="659" y="50" type="curve" smooth="yes"/>
      <point x="678" y="64"/>
      <point x="682" y="75"/>
      <point x="682" y="100" type="curve" smooth="yes"/>
      <point x="682" y="344" type="line" smooth="yes"/>
      <point x="682" y="385"/>
      <point x="669" y="407"/>
      <point x="622" y="407" type="curve" smooth="yes"/>
      <point x="409" y="407" type="line" smooth="yes"/>
      <point x="370" y="407"/>
      <point x="360" y="393"/>
      <point x="360" y="359" type="curve" smooth="yes"/>
      <point x="360" y="314" type="line" smooth="yes"/>
      <point x="360" y="280"/>
      <point x="370" y="265"/>
      <point x="409" y="265" type="curve" smooth="yes"/>
      <point x="495" y="265" type="line"/>
      <point x="495" y="143" type="line"/>
      <point x="475" y="135"/>
      <point x="439" y="129"/>
      <point x="409" y="129" type="curve" smooth="yes"/>
      <point x="293" y="129"/>
      <point x="224" y="194"/>
      <point x="224" y="340" type="curve" smooth="yes"/>
      <point x="224" y="484"/>
      <point x="304" y="551"/>
      <point x="424" y="551" type="curve" smooth="yes"/>
      <point x="488" y="551"/>
      <point x="533" y="535"/>
      <point x="566" y="518" type="curve" smooth="yes"/>
      <point x="584" y="509"/>
      <point x="592" y="506"/>
      <point x="602" y="524" type="curve" smooth="yes"/>
      <point x="646" y="599" type="line" smooth="yes"/>
      <point x="655" y="615"/>
      <point x="657" y="626"/>
      <point x="642" y="636" type="curve" smooth="yes"/>
      <point x="587" y="673"/>
      <point x="501" y="695"/>
      <point x="397" y="695" type="curve" smooth="yes"/>
      <point x="165" y="695"/>
      <point x="23" y="575"/>
      <point x="23" y="340" type="curve" smooth="yes"/>
      <point x="23" y="104"/>
      <point x="164" y="-15"/>
      <point x="397" y="-15" type="curve" smooth="yes"/>
    </contour>
    <contour>
      <point x="293" y="718" type="line" smooth="yes"/>
      <point x="326" y="718"/>
      <point x="336" y="725"/>
      <point x="348" y="744" type="curve" smooth="yes"/>
      <point x="399" y="821" type="line"/>
      <point x="449" y="744" type="line" smooth="yes"/>
      <point x="462" y="725"/>
      <point x="471" y="718"/>
      <point x="505" y="718" type="curve" smooth="yes"/>
      <point x="580" y="718" type="line" smooth="yes"/>
      <point x="611" y="718"/>
      <point x="621" y="737"/>
      <point x="599" y="765" type="curve" smooth="yes"/>
      <point x="503" y="890" type="line" smooth="yes"/>
      <point x="488" y="910"/>
      <point x="484" y="917"/>
      <point x="449" y="917" type="curve" smooth="yes"/>
      <point x="348" y="917" type="line" smooth="yes"/>
      <point x="313" y="917"/>
      <point x="310" y="910"/>
      <point x="294" y="890" type="curve" smooth="yes"/>
      <point x="198" y="765" type="line" smooth="yes"/>
      <point x="176" y="737"/>
      <point x="186" y="718"/>
      <point x="218" y="718" type="curve" smooth="yes"/>
    </contour>
  </outline>
</glyph>
